SplineFontDB: 3.2
FontName: Elettronike-Regular
FullName: Elettronike Regular
FamilyName: Elettronike
Weight: Regular
Copyright: Copyright 2014 The Nunito Project Authors https:github.comgooglefontsnunito
Version: 3.603
ItalicAngle: 0
UnderlinePosition: -100
UnderlineWidth: 36
Ascent: 800
Descent: 200
InvalidEm: 0
sfntRevision: 0x00039a1d
LayerCount: 2
Layer: 0 0 "Back" 1
Layer: 1 0 "Fore" 0
XUID: [1021 142 1642761010 7246340]
StyleMap: 0x0040
FSType: 0
OS2Version: 4
OS2_WeightWidthSlopeOnly: 0
OS2_UseTypoMetrics: 1
CreationTime: 1653837857
ModificationTime: 1720652039
PfmFamily: 81
TTFWeight: 400
TTFWidth: 5
LineGap: 0
VLineGap: 0
Panose: 0 0 0 0 0 0 0 0 0 0
OS2TypoAscent: 1011
OS2TypoAOffset: 0
OS2TypoDescent: -353
OS2TypoDOffset: 0
OS2TypoLinegap: 0
OS2WinAscent: 1011
OS2WinAOffset: 0
OS2WinDescent: 353
OS2WinDOffset: 0
HheadAscent: 1011
HheadAOffset: 0
HheadDescent: -353
HheadDOffset: 0
OS2SubXSize: 650
OS2SubYSize: 600
OS2SubXOff: 0
OS2SubYOff: 75
OS2SupXSize: 650
OS2SupYSize: 600
OS2SupXOff: 0
OS2SupYOff: 350
OS2StrikeYSize: 50
OS2StrikeYPos: 300
OS2CapHeight: 705
OS2XHeight: 486
OS2Vendor: 'NONE'
OS2CodePages: 20000197.00000000
OS2UnicodeRanges: a000026f.10000003.00000000.00000000
Lookup: 1 0 0 "'aalt' Access All Alternates lookup 0" { "'aalt' Access All Alternates lookup 0 subtable"  } ['aalt' ('DFLT' <'dflt' > 'cyrl' <'BSH ' 'CHU ' 'dflt' > 'latn' <'AZE ' 'CAT ' 'CRT ' 'KAZ ' 'MOL ' 'NLD ' 'ROM ' 'TAT ' 'TRK ' 'dflt' > ) ]
Lookup: 3 0 0 "'aalt' Access All Alternates lookup 1" { "'aalt' Access All Alternates lookup 1 subtable"  } ['aalt' ('DFLT' <'dflt' > 'cyrl' <'BSH ' 'CHU ' 'dflt' > 'latn' <'AZE ' 'CAT ' 'CRT ' 'KAZ ' 'MOL ' 'NLD ' 'ROM ' 'TAT ' 'TRK ' 'dflt' > ) ]

StartChar: .notdef
Encoding: 65536 -1 0
Width: 500
GlyphClass: 1
Flags: W
LayerCount: 2
Fore
SplineSet
50 -180 m 1
 50 705 l 1
 450 705 l 1
 450 -180 l 1
 50 -180 l 1
100 -130 m 1
 400 -130 l 1
 400 655 l 1
 100 655 l 1
 100 -130 l 1
EndSplineSet
Validated: 1
EndChar

StartChar: exclam
Encoding: 33 33 4
Width: 228
GlyphClass: 1
Flags: W
LayerCount: 2
Fore
SplineSet
115 179 m 0
 99 179 88 190 87 211 c 2
 67 659 l 2
 65 691 83 712 115 712 c 0
 146 712 163 691 161 659 c 2
 141 211 l 2
 140 190 130 179 115 179 c 0
115 -4 m 0
 82 -4 60 19 60 51 c 0
 60 83 82 106 115 106 c 0
 148 106 169 83 169 51 c 0
 169 19 148 -4 115 -4 c 0
EndSplineSet
Validated: 33
EndChar

StartChar: quotedbl
Encoding: 34 34 5
Width: 392
GlyphClass: 1
Flags: W
LayerCount: 2
Fore
SplineSet
111 421 m 0
 96 421 83 433 81 453 c 2
 67 663 l 2
 64 691 84 712 111 712 c 0
 138 712 157 692 155 663 c 2
 141 453 l 2
 140 432 127 421 111 421 c 0
282 421 m 0
 266 421 254 433 252 453 c 2
 237 663 l 2
 235 691 254 712 281 712 c 0
 308 712 328 692 325 663 c 2
 312 453 l 2
 310 432 298 421 282 421 c 0
EndSplineSet
Validated: 33
EndChar

StartChar: numbersign
Encoding: 35 35 6
Width: 600
GlyphClass: 1
Flags: W
LayerCount: 2
Fore
SplineSet
120 -7 m 0
 99 -7 90 8 95 32 c 2
 124 182 l 1
 69 182 l 2
 46 182 33 192 33 211 c 0
 33 231 46 241 69 241 c 2
 135 241 l 1
 180 472 l 1
 89 472 l 2
 66 472 53 483 53 502 c 0
 53 521 66 531 89 531 c 2
 190 531 l 1
 219 679 l 2
 224 702 237 712 257 712 c 0
 277 712 286 697 281 673 c 2
 254 531 l 1
 413 531 l 1
 441 679 l 2
 446 702 459 712 479 712 c 0
 499 712 508 697 504 673 c 2
 476 531 l 1
 531 531 l 2
 554 531 567 521 567 502 c 0
 567 483 554 472 531 472 c 2
 465 472 l 1
 421 241 l 1
 511 241 l 2
 534 241 547 231 547 211 c 0
 547 192 534 182 511 182 c 2
 410 182 l 1
 379 26 l 2
 374 3 362 -7 342 -7 c 0
 322 -7 311 7 316 32 c 2
 345 182 l 1
 187 182 l 1
 157 26 l 2
 153 3 140 -7 120 -7 c 0
243 472 m 1
 198 241 l 1
 356 241 l 1
 402 472 l 1
 243 472 l 1
EndSplineSet
Validated: 33
EndChar

StartChar: dollar
Encoding: 36 36 7
Width: 600
GlyphClass: 1
Flags: W
LayerCount: 2
Fore
SplineSet
310 -122 m 0
 291 -122 276 -107 276 -88 c 2
 276 -4 l 1
 190 0 117 26 68 62 c 0
 29 88 58 155 104 125 c 0
 148 94 207 68 301 68 c 0
 415 68 469 117 469 188 c 0
 469 245 433 278 340 298 c 2
 240 319 l 2
 119 345 61 404 61 504 c 0
 61 617 147 698 276 708 c 1
 276 793 l 2
 276 812 291 827 310 827 c 0
 329 827 344 812 344 793 c 2
 344 708 l 1
 403 703 473 678 520 635 c 0
 552 607 522 551 477 581 c 1
 432 617 381 637 306 637 c 0
 206 637 142 584 142 506 c 0
 142 444 177 410 261 392 c 2
 362 370 l 2
 492 342 552 287 552 192 c 0
 552 83 467 11 344 -3 c 1
 344 -88 l 2
 344 -107 330 -122 310 -122 c 0
EndSplineSet
Validated: 33
EndChar

StartChar: percent
Encoding: 37 37 8
Width: 930
GlyphClass: 1
Flags: W
LayerCount: 2
Fore
SplineSet
686 671 m 2
 300 -1 l 2
 275 -44 219 -10 243 32 c 2
 629 704 l 2
 653 748 709 713 686 671 c 2
226 282 m 0
 120 282 56 362 56 498 c 0
 56 634 120 713 226 713 c 0
 331 713 396 634 396 498 c 0
 396 362 332 282 226 282 c 0
226 341 m 0
 288 341 326 394 326 498 c 0
 326 602 288 654 226 654 c 0
 163 654 126 602 126 498 c 0
 126 394 163 341 226 341 c 0
704 -9 m 0
 598 -9 534 70 534 207 c 0
 534 342 599 422 704 422 c 0
 810 422 874 342 874 207 c 0
 874 71 811 -9 704 -9 c 0
704 50 m 0
 767 50 804 103 804 207 c 0
 804 310 767 363 704 363 c 0
 642 363 605 311 605 207 c 0
 605 102 642 50 704 50 c 0
EndSplineSet
Validated: 33
EndChar

StartChar: ampersand
Encoding: 38 38 9
Width: 693
GlyphClass: 1
Flags: W
LayerCount: 2
Fore
SplineSet
287 -9 m 0
 146 -9 62 62 62 169 c 0
 62 259 112 319 210 384 c 2
 225 394 l 1
 166 459 144 506 144 558 c 0
 144 651 212 714 317 714 c 0
 409 714 475 659 475 571 c 0
 475 502 442 449 335 382 c 1
 500 198 l 1
 523 244 540 311 546 385 c 0
 549 408 561 420 583 420 c 0
 606 420 618 406 616 381 c 0
 609 286 584 207 548 146 c 1
 638 47 l 2
 663 21 646 -7 615 -7 c 0
 596 -7 586 -1 571 15 c 2
 506 89 l 1
 450 27 373 -9 287 -9 c 0
317 651 m 0
 259 651 220 615 220 560 c 0
 220 519 235 492 290 429 c 1
 374 484 404 520 404 567 c 0
 404 619 369 651 317 651 c 0
291 58 m 0
 361 58 416 86 459 138 c 1
 271 344 l 1
 258 336 l 2
 173 280 142 240 142 175 c 0
 142 102 194 58 291 58 c 0
EndSplineSet
Validated: 33
EndChar

StartChar: quotesingle
Encoding: 39 39 10
Width: 221
GlyphClass: 1
Flags: W
LayerCount: 2
Fore
SplineSet
111 421 m 0
 96 421 83 433 81 453 c 2
 67 663 l 2
 64 691 84 712 111 712 c 0
 138 712 157 692 155 663 c 2
 141 453 l 2
 140 432 127 421 111 421 c 0
EndSplineSet
Validated: 33
EndChar

StartChar: parenleft
Encoding: 40 40 11
Width: 317
GlyphClass: 1
Flags: W
LayerCount: 2
Fore
SplineSet
210 -169 m 0
 136 -31 102 114 102 263 c 0
 102 412 136 557 210 695 c 0
 230 729 287 711 268 661 c 0
 215 528 188 399 188 263 c 0
 188 127 216 -1 268 -135 c 0
 287 -185 230 -202 210 -169 c 0
EndSplineSet
Validated: 33
EndChar

StartChar: parenright
Encoding: 41 41 12
Width: 317
GlyphClass: 1
Flags: W
LayerCount: 2
Fore
SplineSet
108 -169 m 0
 89 -202 29 -185 49 -135 c 0
 103 -2 129 127 129 263 c 0
 129 399 100 527 49 661 c 0
 31 711 88 729 108 695 c 0
 182 558 215 412 215 263 c 0
 215 114 181 -34 108 -169 c 0
EndSplineSet
Validated: 33
EndChar

StartChar: asterisk
Encoding: 42 42 13
Width: 450
GlyphClass: 1
Flags: W
LayerCount: 2
Fore
SplineSet
128 368 m 0
 110 378 109 396 121 416 c 2
 180 509 l 1
 71 505 l 2
 47 505 32 515 32 535 c 0
 32 554 47 564 71 563 c 2
 181 559 l 1
 122 654 l 2
 109 674 111 692 128 702 c 0
 144 711 162 702 173 681 c 2
 225 581 l 1
 277 681 l 2
 288 703 306 711 323 702 c 0
 339 691 341 673 328 653 c 2
 269 559 l 1
 379 563 l 2
 403 564 418 554 418 535 c 0
 418 515 403 505 379 505 c 2
 270 509 l 1
 328 416 l 2
 341 396 339 378 323 369 c 0
 305 358 288 367 277 388 c 2
 225 488 l 1
 172 388 l 2
 162 367 145 357 128 368 c 0
EndSplineSet
Validated: 33
EndChar

StartChar: plus
Encoding: 43 43 14
Width: 600
GlyphClass: 1
Flags: W
LayerCount: 2
Fore
SplineSet
300 33 m 0
 279 33 268 45 268 66 c 2
 268 256 l 1
 81 256 l 2
 61 256 49 267 49 287 c 0
 49 307 61 318 81 318 c 2
 268 318 l 1
 268 502 l 2
 268 523 279 535 300 535 c 0
 321 535 332 523 332 502 c 2
 332 318 l 1
 519 318 l 2
 539 318 551 307 551 287 c 0
 551 267 539 256 519 256 c 2
 332 256 l 1
 332 66 l 2
 332 45 321 33 300 33 c 0
EndSplineSet
Validated: 1
EndChar

StartChar: comma
Encoding: 44 44 15
Width: 228
GlyphClass: 1
Flags: W
LayerCount: 2
Fore
SplineSet
124 -95 m 0
 97 -128 58 -100 85 -65 c 0
 100 -45 108 -23 111 -4 c 1
 80 -1 60 21 60 51 c 0
 60 83 81 106 113 106 c 0
 147 106 169 82 169 38 c 0
 169 -3 158 -53 124 -95 c 0
EndSplineSet
Validated: 33
EndChar

StartChar: hyphen
Encoding: 45 45 16
Width: 424
GlyphClass: 1
Flags: W
LayerCount: 2
Fore
SplineSet
325 233 m 2
 100 233 l 2
 80 233 65 247 65 266 c 0
 65 286 80 300 100 300 c 2
 325 300 l 2
 344 300 359 286 359 266 c 0
 359 247 344 233 325 233 c 2
EndSplineSet
Validated: 1
EndChar

StartChar: period
Encoding: 46 46 17
Width: 228
GlyphClass: 1
Flags: W
LayerCount: 2
Fore
SplineSet
115 -4 m 0
 82 -4 60 19 60 51 c 0
 60 83 82 106 115 106 c 0
 148 106 169 83 169 51 c 0
 169 19 148 -4 115 -4 c 0
EndSplineSet
Validated: 1
EndChar

StartChar: slash
Encoding: 47 47 18
Width: 283
GlyphClass: 1
Flags: W
LayerCount: 2
Fore
SplineSet
292 704 m 2
 55 -34 l 2
 40 -78 -24 -60 -10 -15 c 2
 228 723 l 2
 243 767 307 748 292 704 c 2
EndSplineSet
Validated: 33
Substitution2: "'frac' Diagonal Fractions lookup 23 subtable" fraction
Substitution2: "'aalt' Access All Alternates lookup 0 subtable" fraction
EndChar

StartChar: zero
Encoding: 48 48 19
Width: 600
GlyphClass: 1
Flags: W
LayerCount: 2
Fore
SplineSet
300 -9 m 0
 139 -9 53 118 53 353 c 0
 53 589 139 714 300 714 c 0
 462 714 547 590 547 354 c 0
 547 118 461 -9 300 -9 c 0
300 62 m 0
 412 62 465 155 465 354 c 0
 465 554 413 643 300 643 c 0
 188 643 135 553 135 354 c 0
 135 155 188 62 300 62 c 0
EndSplineSet
Validated: 1
Substitution2: "'onum' Oldstyle Figures lookup 31 subtable" zero.tosf
Substitution2: "'frac' Diagonal Fractions lookup 24 subtable" zero.numr
Substitution2: "'dnom' Denominators lookup 22 subtable" zero.dnom
Substitution2: "'numr' Numerators lookup 21 subtable" zero.numr
Substitution2: "'sups' Superscript lookup 20 subtable" zero.superior
Substitution2: "'sinf' Scientific Inferiors lookup 19 subtable" zero.inferior
Substitution2: "'subs' Subscript lookup 18 subtable" zero.inferior
AlternateSubs2: "'aalt' Access All Alternates lookup 1 subtable" zero.tosf zero.dnom zero.numr zero.inferior zero.superior
EndChar

StartChar: one
Encoding: 49 49 20
Width: 600
GlyphClass: 1
Flags: W
LayerCount: 2
Fore
SplineSet
487 0 m 2
 155 0 l 2
 131 0 117 14 117 36 c 0
 117 58 131 70 155 70 c 2
 285 70 l 1
 285 609 l 1
 183 541 l 2
 141 515 104 575 147 603 c 2
 285 694 l 2
 303 705 318 712 334 712 c 0
 353 712 367 701 367 677 c 2
 367 70 l 1
 487 70 l 2
 511 70 525 58 525 36 c 0
 525 13 511 0 487 0 c 2
EndSplineSet
Validated: 33
Substitution2: "'ss01' Style Set 1 lookup 35 subtable" one.ss01
Substitution2: "'salt' Stylistic Alternatives lookup 34 subtable" one.ss01
Substitution2: "'onum' Oldstyle Figures lookup 31 subtable" one.tosf
Substitution2: "'frac' Diagonal Fractions lookup 24 subtable" one.numr
Substitution2: "'dnom' Denominators lookup 22 subtable" one.dnom
Substitution2: "'numr' Numerators lookup 21 subtable" one.numr
Substitution2: "'sups' Superscript lookup 20 subtable" onesuperior
Substitution2: "'sinf' Scientific Inferiors lookup 19 subtable" one.inferior
Substitution2: "'subs' Subscript lookup 18 subtable" one.inferior
AlternateSubs2: "'aalt' Access All Alternates lookup 1 subtable" one.ss01 one.tosf one.dnom one.numr one.inferior onesuperior
EndChar

StartChar: two
Encoding: 50 50 21
Width: 600
GlyphClass: 1
Flags: W
LayerCount: 2
Fore
SplineSet
508 0 m 2
 129 0 l 2
 99 0 86 15 86 39 c 0
 86 53 93 67 107 82 c 2
 331 322 l 2
 399 395 427 454 427 518 c 0
 427 599 378 641 284 641 c 0
 224 641 172 623 122 584 c 0
 80 553 47 614 85 643 c 0
 137 686 214 714 291 714 c 0
 432 714 510 645 510 524 c 0
 510 439 470 362 384 272 c 2
 193 70 l 1
 508 70 l 2
 533 70 546 58 546 36 c 0
 546 13 533 0 508 0 c 2
EndSplineSet
Validated: 33
Substitution2: "'onum' Oldstyle Figures lookup 31 subtable" two.tosf
Substitution2: "'frac' Diagonal Fractions lookup 24 subtable" two.numr
Substitution2: "'dnom' Denominators lookup 22 subtable" two.dnom
Substitution2: "'numr' Numerators lookup 21 subtable" two.numr
Substitution2: "'sups' Superscript lookup 20 subtable" twosuperior
Substitution2: "'sinf' Scientific Inferiors lookup 19 subtable" two.inferior
Substitution2: "'subs' Subscript lookup 18 subtable" two.inferior
AlternateSubs2: "'aalt' Access All Alternates lookup 1 subtable" two.tosf two.dnom two.numr two.inferior twosuperior
EndChar

StartChar: three
Encoding: 51 51 22
Width: 600
GlyphClass: 1
Flags: W
LayerCount: 2
Fore
SplineSet
292 -9 m 0
 214 -9 131 13 74 58 c 0
 32 88 65 148 111 119 c 0
 169 80 227 64 290 64 c 0
 392 64 447 110 447 196 c 0
 447 279 391 322 287 322 c 2
 216 322 l 2
 191 322 177 336 177 358 c 0
 177 379 191 393 216 393 c 2
 280 393 l 2
 370 393 427 443 427 526 c 0
 427 600 377 641 287 641 c 0
 226 641 175 625 123 584 c 0
 82 554 44 612 87 644 c 0
 140 689 215 714 292 714 c 0
 428 714 509 646 509 533 c 0
 509 454 466 392 395 365 c 1
 481 342 529 279 529 190 c 0
 529 68 439 -9 292 -9 c 0
EndSplineSet
Validated: 33
Substitution2: "'onum' Oldstyle Figures lookup 31 subtable" three.tosf
Substitution2: "'frac' Diagonal Fractions lookup 24 subtable" three.numr
Substitution2: "'dnom' Denominators lookup 22 subtable" three.dnom
Substitution2: "'numr' Numerators lookup 21 subtable" three.numr
Substitution2: "'sups' Superscript lookup 20 subtable" threesuperior
Substitution2: "'sinf' Scientific Inferiors lookup 19 subtable" three.inferior
Substitution2: "'subs' Subscript lookup 18 subtable" three.inferior
AlternateSubs2: "'aalt' Access All Alternates lookup 1 subtable" three.tosf three.dnom three.numr three.inferior threesuperior
EndChar

StartChar: four
Encoding: 52 52 23
Width: 600
GlyphClass: 1
Flags: W
LayerCount: 2
Fore
SplineSet
418 -7 m 0
 393 -7 377 8 377 35 c 2
 377 151 l 1
 90 151 l 2
 64 151 47 164 47 188 c 0
 47 202 53 216 70 240 c 2
 375 684 l 2
 387 702 401 712 421 712 c 0
 443 712 460 698 460 670 c 2
 460 221 l 1
 533 221 l 2
 558 221 572 209 572 186 c 0
 572 163 558 151 533 151 c 2
 460 151 l 1
 460 35 l 2
 460 8 445 -7 418 -7 c 0
377 221 m 1
 377 574 l 1
 136 221 l 1
 377 221 l 1
EndSplineSet
Validated: 1
Substitution2: "'onum' Oldstyle Figures lookup 31 subtable" four.tosf
Substitution2: "'frac' Diagonal Fractions lookup 24 subtable" four.numr
Substitution2: "'dnom' Denominators lookup 22 subtable" four.dnom
Substitution2: "'numr' Numerators lookup 21 subtable" four.numr
Substitution2: "'sups' Superscript lookup 20 subtable" four.superior
Substitution2: "'sinf' Scientific Inferiors lookup 19 subtable" four.inferior
Substitution2: "'subs' Subscript lookup 18 subtable" four.inferior
AlternateSubs2: "'aalt' Access All Alternates lookup 1 subtable" four.tosf four.dnom four.numr four.inferior four.superior
EndChar

StartChar: five
Encoding: 53 53 24
Width: 600
GlyphClass: 1
Flags: W
LayerCount: 2
Fore
SplineSet
315 -9 m 0
 238 -9 160 13 99 61 c 0
 59 89 93 150 137 121 c 0
 191 82 249 64 314 64 c 0
 412 64 471 123 471 213 c 0
 471 305 415 370 321 370 c 0
 263 370 215 350 176 303 c 0
 167 292 154 284 138 284 c 0
 115 284 102 297 102 319 c 2
 102 667 l 2
 102 691 116 705 140 705 c 2
 480 705 l 2
 504 705 518 692 518 670 c 0
 518 647 504 635 480 635 c 2
 183 635 l 1
 183 382 l 1
 220 420 274 441 336 441 c 0
 468 441 553 351 553 217 c 0
 553 84 462 -9 315 -9 c 0
EndSplineSet
Validated: 33
Substitution2: "'onum' Oldstyle Figures lookup 31 subtable" five.tosf
Substitution2: "'frac' Diagonal Fractions lookup 24 subtable" five.numr
Substitution2: "'dnom' Denominators lookup 22 subtable" five.dnom
Substitution2: "'numr' Numerators lookup 21 subtable" five.numr
Substitution2: "'sups' Superscript lookup 20 subtable" five.superior
Substitution2: "'sinf' Scientific Inferiors lookup 19 subtable" five.inferior
Substitution2: "'subs' Subscript lookup 18 subtable" five.inferior
AlternateSubs2: "'aalt' Access All Alternates lookup 1 subtable" five.tosf five.dnom five.numr five.inferior five.superior
EndChar

StartChar: six
Encoding: 54 54 25
Width: 600
GlyphClass: 1
Flags: W
LayerCount: 2
Fore
SplineSet
324 -9 m 0
 157 -9 64 117 64 335 c 0
 64 578 170 714 349 714 c 0
 410 714 480 690 529 645 c 0
 563 618 532 556 490 587 c 1
 445 626 396 641 347 641 c 0
 217 641 144 544 144 351 c 2
 144 303 l 1
 170 389 244 442 336 442 c 0
 460 442 548 350 548 220 c 0
 548 87 456 -9 324 -9 c 0
319 61 m 0
 408 61 469 124 469 217 c 0
 469 309 408 373 319 373 c 0
 230 373 169 309 169 217 c 0
 169 124 230 61 319 61 c 0
EndSplineSet
Validated: 33
Substitution2: "'onum' Oldstyle Figures lookup 31 subtable" six.tosf
Substitution2: "'frac' Diagonal Fractions lookup 24 subtable" six.numr
Substitution2: "'dnom' Denominators lookup 22 subtable" six.dnom
Substitution2: "'numr' Numerators lookup 21 subtable" six.numr
Substitution2: "'sups' Superscript lookup 20 subtable" six.superior
Substitution2: "'sinf' Scientific Inferiors lookup 19 subtable" six.inferior
Substitution2: "'subs' Subscript lookup 18 subtable" six.inferior
AlternateSubs2: "'aalt' Access All Alternates lookup 1 subtable" six.tosf six.dnom six.numr six.inferior six.superior
EndChar

StartChar: seven
Encoding: 55 55 26
Width: 600
GlyphClass: 1
Flags: W
LayerCount: 2
Fore
SplineSet
168 -7 m 0
 139 -7 121 16 137 47 c 2
 439 634 l 1
 98 634 l 2
 74 634 60 647 60 670 c 0
 60 692 74 705 98 705 c 2
 495 705 l 2
 519 705 535 692 535 670 c 0
 535 651 530 639 522 622 c 2
 214 21 l 2
 205 2 191 -7 168 -7 c 0
EndSplineSet
Validated: 33
Substitution2: "'onum' Oldstyle Figures lookup 31 subtable" seven.tosf
Substitution2: "'frac' Diagonal Fractions lookup 24 subtable" seven.numr
Substitution2: "'dnom' Denominators lookup 22 subtable" seven.dnom
Substitution2: "'numr' Numerators lookup 21 subtable" seven.numr
Substitution2: "'sups' Superscript lookup 20 subtable" seven.superior
Substitution2: "'sinf' Scientific Inferiors lookup 19 subtable" seven.inferior
Substitution2: "'subs' Subscript lookup 18 subtable" seven.inferior
AlternateSubs2: "'aalt' Access All Alternates lookup 1 subtable" seven.tosf seven.dnom seven.numr seven.inferior seven.superior
EndChar

StartChar: eight
Encoding: 56 56 27
Width: 600
GlyphClass: 1
Flags: W
LayerCount: 2
Fore
SplineSet
300 -9 m 0
 142 -9 49 63 49 187 c 0
 49 274 101 339 178 361 c 1
 109 388 66 450 66 526 c 0
 66 644 157 714 300 714 c 0
 443 714 535 644 535 526 c 0
 535 450 491 386 422 361 c 1
 500 339 551 274 551 187 c 0
 551 63 458 -9 300 -9 c 0
300 391 m 0
 398 391 456 440 456 519 c 0
 456 599 398 646 300 646 c 0
 202 646 145 599 145 519 c 0
 145 440 202 391 300 391 c 0
300 59 m 0
 413 59 472 103 472 192 c 0
 472 280 413 323 300 323 c 0
 187 323 128 280 128 192 c 0
 128 103 187 59 300 59 c 0
EndSplineSet
Validated: 1
Substitution2: "'onum' Oldstyle Figures lookup 31 subtable" eight.tosf
Substitution2: "'frac' Diagonal Fractions lookup 24 subtable" eight.numr
Substitution2: "'dnom' Denominators lookup 22 subtable" eight.dnom
Substitution2: "'numr' Numerators lookup 21 subtable" eight.numr
Substitution2: "'sups' Superscript lookup 20 subtable" eight.superior
Substitution2: "'sinf' Scientific Inferiors lookup 19 subtable" eight.inferior
Substitution2: "'subs' Subscript lookup 18 subtable" eight.inferior
AlternateSubs2: "'aalt' Access All Alternates lookup 1 subtable" eight.tosf eight.dnom eight.numr eight.inferior eight.superior
EndChar

StartChar: nine
Encoding: 57 57 28
Width: 600
GlyphClass: 1
Flags: W
LayerCount: 2
Fore
SplineSet
251 -9 m 0
 190 -9 120 16 71 61 c 0
 37 88 68 150 110 119 c 1
 155 80 204 64 253 64 c 0
 383 64 456 161 456 354 c 2
 456 402 l 1
 430 316 356 263 264 263 c 0
 140 263 52 355 52 485 c 0
 52 618 144 714 276 714 c 0
 443 714 536 588 536 370 c 0
 536 127 430 -9 251 -9 c 0
281 332 m 0
 370 332 432 396 432 489 c 0
 432 581 370 645 281 645 c 0
 193 645 131 581 131 489 c 0
 131 396 193 332 281 332 c 0
EndSplineSet
Validated: 33
Substitution2: "'onum' Oldstyle Figures lookup 31 subtable" nine.tosf
Substitution2: "'frac' Diagonal Fractions lookup 24 subtable" nine.numr
Substitution2: "'dnom' Denominators lookup 22 subtable" nine.dnom
Substitution2: "'numr' Numerators lookup 21 subtable" nine.numr
Substitution2: "'sups' Superscript lookup 20 subtable" nine.superior
Substitution2: "'sinf' Scientific Inferiors lookup 19 subtable" nine.inferior
Substitution2: "'subs' Subscript lookup 18 subtable" nine.inferior
AlternateSubs2: "'aalt' Access All Alternates lookup 1 subtable" nine.tosf nine.dnom nine.numr nine.inferior nine.superior
EndChar

StartChar: colon
Encoding: 58 58 29
Width: 228
GlyphClass: 1
Flags: W
LayerCount: 2
Fore
SplineSet
115 380 m 0
 82 380 60 404 60 435 c 0
 60 468 82 490 115 490 c 0
 148 490 169 468 169 435 c 0
 169 404 148 380 115 380 c 0
115 -4 m 0
 82 -4 60 19 60 51 c 0
 60 83 82 106 115 106 c 0
 148 106 169 83 169 51 c 0
 169 19 148 -4 115 -4 c 0
EndSplineSet
Validated: 1
EndChar

StartChar: semicolon
Encoding: 59 59 30
Width: 228
GlyphClass: 1
Flags: W
LayerCount: 2
Fore
SplineSet
115 380 m 0
 82 380 60 404 60 435 c 0
 60 468 82 490 115 490 c 0
 148 490 169 468 169 435 c 0
 169 404 148 380 115 380 c 0
124 -95 m 0
 97 -128 58 -100 85 -65 c 0
 100 -45 108 -23 111 -4 c 1
 80 -1 60 21 60 51 c 0
 60 83 81 106 113 106 c 0
 147 106 169 82 169 38 c 0
 169 -3 158 -53 124 -95 c 0
EndSplineSet
Validated: 33
EndChar

StartChar: less
Encoding: 60 60 31
Width: 600
GlyphClass: 1
Flags: W
LayerCount: 2
Fore
SplineSet
512 49 m 2
 87 242 l 2
 65 251 54 267 54 287 c 0
 54 308 65 323 87 332 c 2
 512 525 l 2
 553 543 575 484 536 467 c 2
 134 287 l 1
 536 107 l 2
 575 90 553 31 512 49 c 2
EndSplineSet
Validated: 33
EndChar

StartChar: equal
Encoding: 61 61 32
Width: 600
GlyphClass: 1
Flags: W
LayerCount: 2
Fore
SplineSet
519 356 m 2
 81 356 l 2
 61 356 49 367 49 387 c 0
 49 407 61 418 81 418 c 2
 519 418 l 2
 539 418 551 407 551 387 c 0
 551 367 539 356 519 356 c 2
519 157 m 2
 81 157 l 2
 61 157 49 168 49 188 c 0
 49 208 61 218 81 218 c 2
 519 218 l 2
 539 218 551 208 551 188 c 0
 551 167 539 157 519 157 c 2
EndSplineSet
Validated: 1
EndChar

StartChar: greater
Encoding: 62 62 33
Width: 600
GlyphClass: 1
Flags: W
LayerCount: 2
Fore
SplineSet
514 242 m 2
 88 49 l 2
 47 31 25 90 64 107 c 2
 467 287 l 1
 64 467 l 2
 25 484 47 543 88 525 c 2
 514 332 l 2
 536 323 546 308 546 287 c 0
 546 267 536 251 514 242 c 2
EndSplineSet
Validated: 33
EndChar

StartChar: question
Encoding: 63 63 34
Width: 443
GlyphClass: 1
Flags: W
LayerCount: 2
Fore
SplineSet
209 180 m 0
 192 180 182 192 182 212 c 0
 182 281 205 335 268 409 c 0
 318 467 336 504 336 550 c 0
 336 607 294 641 223 641 c 0
 161 641 112 622 64 587 c 0
 13 553 -19 612 28 647 c 0
 80 688 155 714 227 714 c 0
 342 714 419 651 419 556 c 0
 419 493 395 445 327 373 c 0
 264 307 242 263 236 207 c 0
 235 190 225 180 209 180 c 0
208 -4 m 0
 174 -4 152 19 152 51 c 0
 152 83 174 106 208 106 c 0
 241 106 262 83 262 51 c 0
 262 19 241 -4 208 -4 c 0
EndSplineSet
Validated: 33
EndChar

StartChar: at
Encoding: 64 64 35
Width: 946
GlyphClass: 1
Flags: W
LayerCount: 2
Fore
SplineSet
485 -163 m 0
 230 -163 61 6 61 273 c 0
 61 535 239 714 498 714 c 0
 729 714 885 565 885 344 c 0
 885 171 809 59 695 59 c 0
 630 59 589 92 579 148 c 1
 543 90 487 59 429 59 c 0
 326 59 267 127 267 241 c 0
 267 388 359 495 483 495 c 0
 546 495 590 467 610 416 c 1
 617 459 l 2
 621 482 634 491 654 491 c 0
 676 491 687 478 683 454 c 2
 643 227 l 2
 640 209 639 193 639 180 c 0
 639 135 658 113 699 113 c 0
 776 113 828 205 828 344 c 0
 828 533 696 657 497 657 c 0
 274 657 124 504 124 273 c 0
 124 36 264 -107 485 -107 c 0
 583 -107 663 -78 719 -29 c 0
 755 0 790 -45 755 -75 c 0
 693 -129 599 -163 485 -163 c 0
438 117 m 0
 527 117 592 204 592 325 c 0
 592 400 560 437 490 437 c 0
 402 437 335 355 335 241 c 0
 335 161 373 117 438 117 c 0
EndSplineSet
Validated: 33
EndChar

StartChar: A
Encoding: 65 65 36
Width: 729
GlyphClass: 2
Flags: W
AnchorPoint: "Anchor-4" 692 0 basechar 0
AnchorPoint: "Anchor-3" 366 0 basechar 0
AnchorPoint: "Anchor-2" 366 705 basechar 0
LayerCount: 2
Fore
SplineSet
72 -7 m 0
 40 -7 27 17 41 49 c 2
 316 675 l 2
 328 701 345 712 365 712 c 0
 385 712 402 701 413 675 c 2
 689 49 l 2
 703 17 691 -7 660 -7 c 0
 636 -7 623 6 613 30 c 2
 548 180 l 1
 181 180 l 1
 117 30 l 2
 105 4 93 -7 72 -7 c 0
366 609 m 1
 364 609 l 1
 211 249 l 1
 519 249 l 1
 366 609 l 1
EndSplineSet
Validated: 1048609
Substitution2: "Single Substitution lookup 29 subtable" ordfeminine
Substitution2: "'aalt' Access All Alternates lookup 0 subtable" ordfeminine
EndChar

StartChar: B
Encoding: 66 66 37
Width: 676
GlyphClass: 2
Flags: W
AnchorPoint: "Anchor-3" 341 0 basechar 0
AnchorPoint: "Anchor-2" 340 705 basechar 0
LayerCount: 2
Fore
SplineSet
381 0 m 2
 132 0 l 2
 103 0 87 16 87 45 c 2
 87 660 l 2
 87 689 103 705 132 705 c 2
 369 705 l 2
 514 705 597 638 597 521 c 0
 597 443 554 387 484 362 c 1
 565 341 614 282 614 194 c 0
 614 68 529 0 381 0 c 2
167 639 m 1
 167 390 l 1
 357 390 l 2
 462 390 516 433 516 514 c 0
 516 596 462 639 357 639 c 2
 167 639 l 1
167 324 m 1
 167 66 l 1
 373 66 l 2
 480 66 533 108 533 195 c 0
 533 283 480 324 373 324 c 2
 167 324 l 1
EndSplineSet
Validated: 1048577
EndChar

StartChar: C
Encoding: 67 67 38
Width: 673
GlyphClass: 2
Flags: W
AnchorPoint: "Anchor-3" 385 0 basechar 0
AnchorPoint: "Anchor-2" 387 705 basechar 0
LayerCount: 2
Fore
SplineSet
392 -9 m 0
 184 -9 61 130 61 353 c 0
 61 575 184 714 392 714 c 0
 475 714 552 689 607 645 c 0
 652 612 614 548 566 582 c 0
 518 621 460 639 394 639 c 0
 235 639 149 535 149 353 c 0
 149 171 235 66 394 66 c 0
 460 66 518 85 568 124 c 0
 615 157 651 95 611 64 c 0
 554 16 477 -9 392 -9 c 0
EndSplineSet
Validated: 1048609
EndChar

StartChar: D
Encoding: 68 68 39
Width: 742
GlyphClass: 2
Flags: W
AnchorPoint: "Anchor-6" 183 358 basechar 0
AnchorPoint: "Anchor-3" 371 0 basechar 0
AnchorPoint: "Anchor-2" 370 705 basechar 0
LayerCount: 2
Fore
SplineSet
325 0 m 2
 132 0 l 2
 103 0 87 16 87 45 c 2
 87 660 l 2
 87 689 103 705 132 705 c 2
 325 705 l 2
 553 705 682 581 682 353 c 0
 682 125 553 0 325 0 c 2
169 635 m 1
 169 70 l 1
 319 70 l 2
 504 70 595 165 595 353 c 0
 595 541 504 635 319 635 c 2
 169 635 l 1
EndSplineSet
Validated: 1048577
EndChar

StartChar: E
Encoding: 69 69 40
Width: 583
GlyphClass: 2
Flags: W
AnchorPoint: "Anchor-7" 25 705 basechar 0
AnchorPoint: "Anchor-4" 494 0 basechar 0
AnchorPoint: "Anchor-3" 324 0 basechar 0
AnchorPoint: "Anchor-2" 324 705 basechar 0
LayerCount: 2
Fore
SplineSet
504 0 m 2
 132 0 l 2
 103 0 87 16 87 45 c 2
 87 660 l 2
 87 689 103 705 132 705 c 2
 504 705 l 2
 526 705 539 693 539 671 c 0
 539 649 526 636 504 636 c 2
 167 636 l 1
 167 392 l 1
 483 392 l 2
 506 392 518 380 518 358 c 0
 518 336 506 323 483 323 c 2
 167 323 l 1
 167 69 l 1
 504 69 l 2
 526 69 539 56 539 35 c 0
 539 12 526 0 504 0 c 2
EndSplineSet
Validated: 1048577
EndChar

StartChar: F
Encoding: 70 70 41
Width: 548
GlyphClass: 2
Flags: W
AnchorPoint: "Anchor-3" 296 0 basechar 0
AnchorPoint: "Anchor-2" 298 705 basechar 0
LayerCount: 2
Fore
SplineSet
131 -7 m 0
 103 -7 87 9 87 38 c 2
 87 660 l 2
 87 689 103 705 132 705 c 2
 495 705 l 2
 517 705 530 693 530 671 c 0
 530 649 517 636 495 636 c 2
 169 636 l 1
 169 390 l 1
 474 390 l 2
 496 390 510 378 510 356 c 0
 510 334 496 321 474 321 c 2
 169 321 l 1
 169 38 l 2
 169 9 156 -7 131 -7 c 0
EndSplineSet
Validated: 1048577
EndChar

StartChar: G
Encoding: 71 71 42
Width: 726
GlyphClass: 2
Flags: W
AnchorPoint: "Anchor-3" 398 0 basechar 0
AnchorPoint: "Anchor-2" 391 705 basechar 0
LayerCount: 2
Fore
SplineSet
409 -9 m 0
 183 -9 61 127 61 352 c 0
 61 575 185 714 397 714 c 0
 482 714 562 692 624 641 c 0
 662 614 627 551 585 579 c 1
 531 622 470 640 396 640 c 0
 235 640 148 535 148 352 c 0
 148 165 236 64 411 64 c 0
 468 64 524 74 574 93 c 1
 574 302 l 1
 431 302 l 2
 408 302 395 315 395 335 c 0
 395 356 408 367 431 367 c 2
 610 367 l 2
 632 367 645 354 645 332 c 2
 645 71 l 2
 645 51 639 37 623 31 c 0
 567 8 482 -9 409 -9 c 0
EndSplineSet
Validated: 1048609
EndChar

StartChar: H
Encoding: 72 72 43
Width: 761
GlyphClass: 2
Flags: W
AnchorPoint: "Anchor-7" 25 705 basechar 0
AnchorPoint: "Anchor-6" 381 553 basechar 0
AnchorPoint: "Anchor-3" 381 0 basechar 0
AnchorPoint: "Anchor-2" 380 705 basechar 0
LayerCount: 2
Fore
SplineSet
128 -7 m 0
 102 -7 87 9 87 36 c 2
 87 669 l 2
 87 697 102 712 128 712 c 0
 154 712 169 697 169 669 c 2
 169 393 l 1
 592 393 l 1
 592 669 l 2
 592 697 607 712 633 712 c 0
 659 712 674 697 674 669 c 2
 674 36 l 2
 674 9 659 -7 633 -7 c 0
 607 -7 592 9 592 36 c 2
 592 322 l 1
 169 322 l 1
 169 36 l 2
 169 9 155 -7 128 -7 c 0
EndSplineSet
Validated: 1048577
EndChar

StartChar: I
Encoding: 73 73 44
Width: 257
GlyphClass: 2
Flags: W
AnchorPoint: "Anchor-7" 26 705 basechar 0
AnchorPoint: "Anchor-4" 157 0 basechar 0
AnchorPoint: "Anchor-3" 128 0 basechar 0
AnchorPoint: "Anchor-2" 128 705 basechar 0
LayerCount: 2
Fore
SplineSet
128 -7 m 0
 102 -7 87 9 87 36 c 2
 87 669 l 2
 87 697 102 712 128 712 c 0
 154 712 169 697 169 669 c 2
 169 36 l 2
 169 9 155 -7 128 -7 c 0
EndSplineSet
Validated: 1048577
EndChar

StartChar: J
Encoding: 74 74 45
Width: 324
GlyphClass: 2
Flags: W
AnchorPoint: "Anchor-3" 197 0 basechar 0
AnchorPoint: "Anchor-2" 196 705 basechar 0
LayerCount: 2
Fore
SplineSet
61 -3 m 2
 28 -6 l 2
 2 -7 -12 10 -12 31 c 0
 -12 47 -2 62 19 64 c 2
 50 66 l 2
 118 72 155 115 155 188 c 2
 155 670 l 2
 155 697 170 712 196 712 c 0
 222 712 237 697 237 670 c 2
 237 187 l 2
 237 71 176 5 61 -3 c 2
EndSplineSet
Validated: 1048609
EndChar

StartChar: K
Encoding: 75 75 46
Width: 625
GlyphClass: 2
Flags: MW
HStem: 252 60
AnchorPoint: "Anchor-7" 25 705 basechar 0
AnchorPoint: "Anchor-3" 316 0 basechar 0
AnchorPoint: "Anchor-2" 316 705 basechar 0
LayerCount: 2
Fore
SplineSet
128 -7 m 0
 102 -7 87 9 87 36 c 2
 87 670 l 2
 87 697 102 712 128 712 c 0
 154 712 169 697 169 670 c 2
 168.491210938 288.278320312 l 1
 170.491210938 288.264648438 l 1
 515.245117188 608.094726562 l 2
 531.245117188 624.094726562 546.245117188 631.094726562 565.245117188 631.094726562 c 0
 601.245117188 631.094726562 609.245117188 598.094726562 585.245117188 575.094726562 c 2
 302.305664062 312.69921875 l 1
 582.491210938 54.5283203125 l 2
 612.491210938 26.5283203125 598 -7 562 -7 c 0
 541 -7 530 2 513 19 c 2
 247.203125 261.59765625 l 1
 169 190 l 1
 169 36 l 2
 169 9 155 -7 128 -7 c 0
EndSplineSet
Validated: 1048609
EndChar

StartChar: L
Encoding: 76 76 47
Width: 543
GlyphClass: 2
Flags: W
AnchorPoint: "Anchor-6" 173 387 basechar 0
AnchorPoint: "Anchor-3" 307 0 basechar 0
AnchorPoint: "Anchor-2" 128 705 basechar 0
AnchorPoint: "Anchor-1" 403 390 basechar 0
AnchorPoint: "Anchor-0" 284 705 basechar 0
LayerCount: 2
Fore
SplineSet
497 0 m 2
 129 0 l 2
 102 0 87 16 87 43 c 2
 87 667 l 2
 87 695 102 710 128 710 c 0
 154 710 169 695 169 667 c 2
 169 72 l 1
 497 72 l 2
 521 72 535 59 535 36 c 0
 535 13 521 0 497 0 c 2
EndSplineSet
Validated: 1048577
EndChar

StartChar: M
Encoding: 77 77 48
Width: 855
GlyphClass: 2
Flags: W
AnchorPoint: "Anchor-3" 428 0 basechar 0
AnchorPoint: "Anchor-2" 428 705 basechar 0
LayerCount: 2
Fore
SplineSet
127 -7 m 0
 103 -7 89 8 89 33 c 2
 89 672 l 2
 89 698 103 712 127 712 c 0
 149 712 159 704 170 684 c 2
 429 196 l 1
 687 684 l 2
 698 704 708 712 730 712 c 0
 753 712 767 698 767 672 c 2
 767 33 l 2
 767 8 754 -7 729 -7 c 0
 705 -7 691 8 691 33 c 2
 691 550 l 1
 465 126 l 2
 456 109 447 102 429 102 c 0
 411 102 401 110 393 126 c 2
 164 551 l 1
 164 33 l 2
 164 8 151 -7 127 -7 c 0
EndSplineSet
Validated: 1048577
EndChar

StartChar: N
Encoding: 78 78 49
Width: 740
GlyphClass: 2
Flags: W
AnchorPoint: "Anchor-3" 370 0 basechar 0
AnchorPoint: "Anchor-2" 370 705 basechar 0
LayerCount: 2
Fore
SplineSet
126 -7 m 0
 101 -7 87 8 87 34 c 2
 87 670 l 2
 87 697 101 712 123 712 c 0
 143 712 151 705 164 687 c 2
 576 138 l 1
 576 672 l 2
 576 697 590 712 615 712 c 0
 639 712 652 697 652 672 c 2
 652 33 l 2
 652 8 640 -7 619 -7 c 0
 599 -7 589 0 576 18 c 2
 164 568 l 1
 164 34 l 2
 164 8 150 -7 126 -7 c 0
EndSplineSet
Validated: 1048577
EndChar

StartChar: O
Encoding: 79 79 50
Width: 767
GlyphClass: 2
Flags: W
AnchorPoint: "Anchor-9" 383 -9 basechar 0
AnchorPoint: "Anchor-7" 26 705 basechar 0
AnchorPoint: "Anchor-6" 384 353 basechar 0
AnchorPoint: "Anchor-4" 440 0 basechar 0
AnchorPoint: "Anchor-3" 383 0 basechar 0
AnchorPoint: "Anchor-2" 383 705 basechar 0
AnchorPoint: "Anchor-0" 454 705 basechar 0
LayerCount: 2
Fore
SplineSet
383 -9 m 0
 186 -9 61 131 61 353 c 0
 61 575 185 714 383 714 c 0
 582 714 707 575 707 354 c 0
 707 131 581 -9 383 -9 c 0
383 64 m 0
 533 64 620 171 620 353 c 0
 620 536 534 641 383 641 c 0
 234 641 148 535 148 353 c 0
 148 171 234 64 383 64 c 0
EndSplineSet
Validated: 1048577
Substitution2: "Single Substitution lookup 29 subtable" ordmasculine
Substitution2: "'aalt' Access All Alternates lookup 0 subtable" ordmasculine
EndChar

StartChar: P
Encoding: 80 80 51
Width: 633
GlyphClass: 2
Flags: W
AnchorPoint: "Anchor-3" 324 0 basechar 0
AnchorPoint: "Anchor-2" 324 705 basechar 0
LayerCount: 2
Fore
SplineSet
128 -7 m 0
 102 -7 87 9 87 36 c 2
 87 663 l 2
 87 690 102 705 129 705 c 2
 366 705 l 2
 517 705 601 628 601 493 c 0
 601 359 517 281 366 281 c 2
 169 281 l 1
 169 36 l 2
 169 9 155 -7 128 -7 c 0
169 637 m 1
 169 350 l 1
 356 350 l 2
 465 350 520 399 520 493 c 0
 520 588 465 637 356 637 c 2
 169 637 l 1
EndSplineSet
Validated: 1048577
EndChar

StartChar: Q
Encoding: 81 81 52
Width: 767
GlyphClass: 2
Flags: W
AnchorPoint: "Anchor-3" 377 0 basechar 0
AnchorPoint: "Anchor-2" 377 705 basechar 0
LayerCount: 2
Fore
SplineSet
383 -9 m 0
 186 -9 61 131 61 353 c 0
 61 575 185 714 383 714 c 0
 582 714 707 575 707 354 c 0
 707 182 632 59 507 12 c 1
 536 2 557 -19 580 -57 c 2
 627 -133 l 2
 648 -166 647 -189 624 -201 c 0
 601 -213 579 -202 559 -169 c 2
 494 -66 l 2
 472 -28 434 -9 383 -9 c 0
383 64 m 0
 533 64 620 171 620 353 c 0
 620 536 534 641 383 641 c 0
 234 641 148 535 148 353 c 0
 148 171 234 64 383 64 c 0
EndSplineSet
Validated: 1048609
EndChar

StartChar: R
Encoding: 82 82 53
Width: 669
GlyphClass: 2
Flags: W
AnchorPoint: "Anchor-3" 341 0 basechar 0
AnchorPoint: "Anchor-2" 341 705 basechar 0
LayerCount: 2
Fore
SplineSet
128 -7 m 0
 102 -7 87 9 87 36 c 2
 87 663 l 2
 87 690 102 705 129 705 c 2
 366 705 l 2
 517 705 601 631 601 501 c 0
 601 397 542 328 438 308 c 1
 469 297 494 272 517 230 c 2
 613 51 l 2
 628 22 618 -7 585 -7 c 0
 562 -7 548 3 538 24 c 2
 429 226 l 2
 398 283 362 298 297 298 c 2
 169 298 l 1
 169 36 l 2
 169 9 155 -7 128 -7 c 0
169 637 m 1
 169 363 l 1
 354 363 l 2
 464 363 520 410 520 501 c 0
 520 590 464 637 354 637 c 2
 169 637 l 1
EndSplineSet
Validated: 1048609
EndChar

StartChar: S
Encoding: 83 83 54
Width: 615
GlyphClass: 2
Flags: W
AnchorPoint: "Anchor-3" 316 0 basechar 0
AnchorPoint: "Anchor-2" 314 705 basechar 0
LayerCount: 2
Fore
SplineSet
315 -9 m 0
 219 -9 132 15 70 60 c 0
 28 89 60 154 104 125 c 0
 165 82 230 64 315 64 c 0
 435 64 492 113 492 186 c 0
 492 245 453 277 355 297 c 2
 251 318 l 2
 125 344 64 404 64 505 c 0
 64 630 169 714 321 714 c 0
 405 714 478 691 537 644 c 0
 575 615 544 554 498 584 c 1
 445 625 388 641 320 641 c 0
 214 641 147 588 147 508 c 0
 147 444 184 409 273 391 c 2
 377 369 l 2
 511 341 575 288 575 190 c 0
 575 72 475 -9 315 -9 c 0
EndSplineSet
Validated: 1048609
EndChar

StartChar: T
Encoding: 84 84 55
Width: 602
GlyphClass: 2
Flags: W
AnchorPoint: "Anchor-6" 301 358 basechar 0
AnchorPoint: "Anchor-3" 301 0 basechar 0
AnchorPoint: "Anchor-2" 301 705 basechar 0
LayerCount: 2
Fore
SplineSet
301 -7 m 0
 275 -7 260 9 260 36 c 2
 260 634 l 1
 35 634 l 2
 11 634 -3 648 -3 670 c 0
 -3 692 11 705 35 705 c 2
 568 705 l 2
 592 705 606 692 606 670 c 0
 606 647 592 634 568 634 c 2
 343 634 l 1
 343 36 l 2
 343 9 329 -7 301 -7 c 0
EndSplineSet
Validated: 1048577
EndChar

StartChar: U
Encoding: 85 85 56
Width: 728
GlyphClass: 2
Flags: W
AnchorPoint: "Anchor-4" 422 0 basechar 0
AnchorPoint: "Anchor-3" 365 0 basechar 0
AnchorPoint: "Anchor-2" 365 705 basechar 0
AnchorPoint: "Anchor-0" 581 705 basechar 0
LayerCount: 2
Fore
SplineSet
365 -9 m 0
 180 -9 82 91 82 279 c 2
 82 670 l 2
 82 697 97 712 123 712 c 0
 149 712 164 697 164 670 c 2
 164 283 l 2
 164 136 233 64 365 64 c 0
 496 64 564 136 564 283 c 2
 564 670 l 2
 564 697 579 712 606 712 c 0
 631 712 646 697 646 670 c 2
 646 279 l 2
 646 91 549 -9 365 -9 c 0
EndSplineSet
Validated: 1048577
EndChar

StartChar: V
Encoding: 86 86 57
Width: 689
GlyphClass: 2
Flags: W
AnchorPoint: "Anchor-3" 345 0 basechar 0
AnchorPoint: "Anchor-2" 344 705 basechar 0
LayerCount: 2
Fore
SplineSet
345 -7 m 0
 320 -7 305 5 295 29 c 2
 20 658 l 2
 6 691 26 712 54 712 c 0
 78 712 89 701 98 679 c 2
 346 103 l 1
 593 680 l 2
 602 701 614 712 638 712 c 0
 666 712 682 689 669 658 c 2
 394 29 l 2
 384 5 370 -7 345 -7 c 0
EndSplineSet
Validated: 1048609
EndChar

StartChar: W
Encoding: 87 87 58
Width: 1101
GlyphClass: 2
Flags: W
AnchorPoint: "Anchor-3" 551 0 basechar 0
AnchorPoint: "Anchor-2" 551 705 basechar 0
LayerCount: 2
Fore
SplineSet
313 -7 m 0
 289 -7 275 5 266 31 c 2
 45 662 l 2
 36 691 50 712 82 712 c 0
 105 712 117 701 126 677 c 2
 316 121 l 1
 509 674 l 2
 518 700 531 712 553 712 c 0
 574 712 586 700 595 674 c 2
 787 115 l 1
 981 677 l 2
 988 700 1001 712 1024 712 c 0
 1052 712 1067 691 1057 662 c 2
 835 31 l 2
 826 5 813 -7 788 -7 c 0
 764 -7 750 5 741 31 c 2
 551 578 l 1
 359 31 l 2
 350 5 338 -7 313 -7 c 0
EndSplineSet
Validated: 1048609
EndChar

StartChar: X
Encoding: 88 88 59
Width: 650
GlyphClass: 2
Flags: W
AnchorPoint: "Anchor-3" 326 0 basechar 0
AnchorPoint: "Anchor-2" 325 705 basechar 0
LayerCount: 2
Fore
SplineSet
78 -7 m 0
 45 -7 27 23 48 50 c 2
 279 361 l 1
 62 653 l 2
 40 682 58 712 89 712 c 0
 108 712 120 704 134 685 c 2
 326 422 l 1
 517 685 l 2
 530 704 542 712 561 712 c 0
 592 712 611 683 589 653 c 2
 372 361 l 1
 603 50 l 2
 623 23 606 -7 573 -7 c 0
 556 -7 542 1 528 20 c 2
 325 297 l 1
 122 20 l 2
 108 1 95 -7 78 -7 c 0
EndSplineSet
Validated: 1048609
EndChar

StartChar: Y
Encoding: 89 89 60
Width: 596
GlyphClass: 2
Flags: W
AnchorPoint: "Anchor-7" 17 705 basechar 0
AnchorPoint: "Anchor-3" 298 0 basechar 0
AnchorPoint: "Anchor-2" 298 705 basechar 0
LayerCount: 2
Fore
SplineSet
298 -7 m 0
 272 -7 257 9 257 37 c 2
 257 333 l 1
 24 654 l 2
 5 680 19 712 52 712 c 0
 71 712 84 704 97 685 c 2
 300 405 l 1
 502 685 l 2
 516 704 528 712 547 712 c 0
 579 712 593 683 572 653 c 2
 339 331 l 1
 339 37 l 2
 339 9 325 -7 298 -7 c 0
EndSplineSet
Validated: 1048609
EndChar

StartChar: Z
Encoding: 90 90 61
Width: 589
GlyphClass: 2
Flags: W
AnchorPoint: "Anchor-3" 307 0 basechar 0
AnchorPoint: "Anchor-2" 306 705 basechar 0
LayerCount: 2
Fore
SplineSet
535 0 m 2
 86 0 l 2
 44 0 30 39 61 80 c 2
 454 634 l 1
 80 634 l 2
 55 634 41 647 41 670 c 0
 41 692 55 705 80 705 c 2
 514 705 l 2
 557 705 571 667 540 625 c 2
 146 71 l 1
 535 71 l 2
 560 71 574 59 574 36 c 0
 574 13 560 0 535 0 c 2
EndSplineSet
Validated: 1048609
EndChar

StartChar: bracketleft
Encoding: 91 91 62
Width: 315
GlyphClass: 1
Flags: W
LayerCount: 2
Fore
SplineSet
281 -180 m 2
 145 -180 l 2
 125 -180 109 -165 109 -145 c 2
 109 670 l 2
 109 690 125 705 145 705 c 2
 281 705 l 2
 301 705 314 691 314 673 c 0
 314 655 301 641 281 641 c 2
 190 641 l 1
 190 -116 l 1
 281 -116 l 2
 301 -116 314 -130 314 -148 c 0
 314 -166 301 -180 281 -180 c 2
EndSplineSet
Validated: 1
EndChar

StartChar: backslash
Encoding: 92 92 63
Width: 283
GlyphClass: 1
Flags: W
LayerCount: 2
Fore
SplineSet
228 -34 m 2
 -10 704 l 2
 -23 748 40 767 55 723 c 2
 292 -15 l 2
 307 -60 242 -78 228 -34 c 2
EndSplineSet
Validated: 33
EndChar

StartChar: bracketright
Encoding: 93 93 64
Width: 315
GlyphClass: 1
Flags: W
LayerCount: 2
Fore
SplineSet
171 -180 m 2
 34 -180 l 2
 14 -180 1 -166 1 -148 c 0
 1 -130 14 -116 34 -116 c 2
 125 -116 l 1
 125 641 l 1
 34 641 l 2
 14 641 1 655 1 673 c 0
 1 691 14 705 34 705 c 2
 171 705 l 2
 191 705 206 690 206 670 c 2
 206 -145 l 2
 206 -165 191 -180 171 -180 c 2
EndSplineSet
Validated: 1
EndChar

StartChar: asciicircum
Encoding: 94 94 65
Width: 600
GlyphClass: 1
Flags: W
LayerCount: 2
Fore
SplineSet
91 133 m 0
 63 133 54 153 65 178 c 2
 260 608 l 2
 268 627 281 635 300 635 c 0
 319 635 332 627 340 608 c 2
 535 178 l 2
 546 152 538 133 509 133 c 0
 493 133 484 140 476 159 c 2
 300 551 l 1
 124 159 l 2
 115 140 107 133 91 133 c 0
EndSplineSet
Validated: 33
EndChar

StartChar: underscore
Encoding: 95 95 66
Width: 500
GlyphClass: 1
Flags: W
LayerCount: 2
Fore
SplineSet
458 -53 m 2
 42 -53 l 2
 26 -53 13 -42 13 -27 c 0
 13 -12 26 0 42 0 c 2
 458 0 l 2
 474 0 487 -12 487 -27 c 0
 487 -42 474 -53 458 -53 c 2
EndSplineSet
Validated: 1
EndChar

StartChar: grave
Encoding: 96 96 67
Width: 356
GlyphClass: 1
Flags: W
LayerCount: 2
Fore
SplineSet
207 556 m 2
 106 712 l 2
 79 752 146 791 169 745 c 2
 253 582 l 2
 269 551 225 529 207 556 c 2
EndSplineSet
Validated: 33
EndChar

StartChar: a
Encoding: 97 97 68
Width: 530
GlyphClass: 2
Flags: W
AnchorPoint: "Anchor-4" 440 0 basechar 0
AnchorPoint: "Anchor-3" 268 0 basechar 0
AnchorPoint: "Anchor-2" 272 484 basechar 0
LayerCount: 2
Fore
SplineSet
229 -9 m 0
 129 -9 54 56 54 140 c 0
 54 247 126 282 346 282 c 2
 378 282 l 1
 378 313 l 2
 378 395 346 430 271 430 c 0
 224 430 178 419 127 392 c 0
 81 369 61 434 102 453 c 0
 159 482 219 495 271 495 c 0
 397 495 456 436 456 306 c 2
 456 35 l 2
 456 8 443 -7 419 -7 c 0
 394 -7 380 8 380 35 c 2
 380 85 l 1
 355 27 300 -9 229 -9 c 0
242 52 m 0
 321 52 378 114 378 199 c 2
 378 229 l 1
 347 229 l 2
 184 229 136 209 136 145 c 0
 136 90 176 52 242 52 c 0
EndSplineSet
Validated: 1048609
Substitution2: "'ss01' Style Set 1 lookup 35 subtable" a.ss01
Substitution2: "'salt' Stylistic Alternatives lookup 34 subtable" a.ss01
Substitution2: "Single Substitution lookup 29 subtable" ordfeminine
AlternateSubs2: "'aalt' Access All Alternates lookup 1 subtable" a.ss01 ordfeminine
EndChar

StartChar: b
Encoding: 98 98 69
Width: 583
GlyphClass: 2
Flags: W
AnchorPoint: "Anchor-3" 309 0 basechar 0
AnchorPoint: "Anchor-2" 306 705 basechar 0
LayerCount: 2
Fore
SplineSet
322 -9 m 0
 246 -9 185 28 156 87 c 1
 156 35 l 2
 156 8 141 -7 116 -7 c 0
 90 -7 76 8 76 35 c 2
 76 671 l 2
 76 697 90 712 116 712 c 0
 142 712 157 697 157 671 c 2
 157 403 l 1
 187 460 247 495 322 495 c 0
 453 495 537 398 537 243 c 0
 537 89 452 -9 322 -9 c 0
305 56 m 0
 396 56 455 123 455 243 c 0
 455 364 396 430 305 430 c 0
 214 430 155 364 155 243 c 0
 155 123 214 56 305 56 c 0
EndSplineSet
Validated: 1048577
EndChar

StartChar: c
Encoding: 99 99 70
Width: 463
GlyphClass: 2
Flags: W
AnchorPoint: "Anchor-3" 278 0 basechar 0
AnchorPoint: "Anchor-2" 278 484 basechar 0
LayerCount: 2
Fore
SplineSet
282 -9 m 0
 136 -9 46 92 46 246 c 0
 46 400 136 495 282 495 c 0
 330 495 385 481 428 446 c 0
 462 422 430 367 392 393 c 0
 357 420 320 429 287 429 c 0
 185 429 129 363 129 245 c 0
 129 128 185 57 287 57 c 0
 320 57 356 66 392 93 c 0
 431 119 459 63 426 40 c 0
 384 5 330 -9 282 -9 c 0
EndSplineSet
Validated: 1048609
EndChar

StartChar: d
Encoding: 100 100 71
Width: 583
GlyphClass: 2
Flags: W
AnchorPoint: "Anchor-6" 291 245 basechar 0
AnchorPoint: "Anchor-5" 417 584 basechar 0
AnchorPoint: "Anchor-3" 294 0 basechar 0
AnchorPoint: "Anchor-2" 292 705 basechar 0
AnchorPoint: "Anchor-0" 553 705 basechar 0
LayerCount: 2
Fore
SplineSet
261 -9 m 0
 131 -9 46 89 46 243 c 0
 46 398 130 495 261 495 c 0
 336 495 397 459 426 401 c 1
 426 671 l 2
 426 697 441 712 467 712 c 0
 492 712 507 697 507 671 c 2
 507 35 l 2
 507 8 493 -7 467 -7 c 0
 441 -7 427 8 427 35 c 2
 427 87 l 1
 398 28 337 -9 261 -9 c 0
278 56 m 0
 369 56 428 123 428 243 c 0
 428 364 369 430 278 430 c 0
 186 430 128 364 128 243 c 0
 128 123 186 56 278 56 c 0
EndSplineSet
Validated: 1048577
EndChar

StartChar: e
Encoding: 101 101 72
Width: 532
GlyphClass: 2
Flags: W
HStem: -9 65<201.586 397.475> 220.03 65.3984<125 421> 435 60<196.555 363.245>
VStem: 46 79<132.8 220.03 285.429 354.805> 421 70<285.429 372.64>
AnchorPoint: "Anchor-4" 356 0 basechar 0
AnchorPoint: "Anchor-3" 280 0 basechar 0
AnchorPoint: "Anchor-2" 280 484 basechar 0
LayerCount: 2
Fore
SplineSet
295 -9 m 0
 141 -9 46 87 46 242 c 0
 46 393 142 495 280 495 c 0
 411 495 491 405 491 257 c 0
 491 236 479 220.030273438 456 220.030273438 c 2
 125 220.030273438 l 1
 131 109.030273438 191 56 295 56 c 0
 339 56 386 66 428 95 c 0
 474 124 504 69 462 41 c 0
 418 9 353 -9 295 -9 c 0
282 435 m 0
 189 435 135 378.428710938 125 285.428710938 c 1
 421 285.428710938 l 1
 417 383.428710938 369 435 282 435 c 0
EndSplineSet
Validated: 1572897
EndChar

StartChar: f
Encoding: 102 102 73
Width: 333
GlyphClass: 2
Flags: W
AnchorPoint: "Anchor-3" 142 0 basechar 0
AnchorPoint: "Anchor-2" 142 705 basechar 0
LayerCount: 2
Fore
SplineSet
142 -7 m 0
 117 -7 102 8 102 35 c 2
 102 423 l 1
 38 423 l 2
 16 423 3 435 3 455 c 0
 3 475 16 486 38 486 c 2
 102 486 l 1
 102 503 l 2
 102 630 164 696 285 706 c 2
 314 709 l 2
 361 712 357 649 322 646 c 2
 299 644 l 2
 218 638 183 595 183 513 c 2
 183 486 l 1
 291 486 l 2
 313 486 326 475 326 455 c 0
 326 435 313 423 291 423 c 2
 183 423 l 1
 183 35 l 2
 183 8 169 -7 142 -7 c 0
EndSplineSet
Validated: 1048609
EndChar

StartChar: g
Encoding: 103 103 74
Width: 586
GlyphClass: 2
Flags: W
AnchorPoint: "Anchor-2" 295 484 basechar 0
LayerCount: 2
Fore
SplineSet
291 -189 m 0
 220 -189 150 -173 96 -137 c 0
 57 -114 89 -58 124 -77 c 0
 183 -113 234 -124 287 -124 c 0
 382 -124 431 -73 431 24 c 2
 431 109 l 1
 403 48 339 11 264 11 c 0
 130 11 46 109 46 254 c 0
 46 398 130 495 264 495 c 0
 340 495 402 459 430 399 c 1
 430 452 l 2
 430 479 445 493 470 493 c 0
 496 493 510 479 510 452 c 2
 510 35 l 2
 510 -114 435 -189 291 -189 c 0
279 77 m 0
 372 77 431 145 431 254 c 0
 431 362 372 430 279 430 c 0
 186 430 128 362 128 254 c 0
 128 145 186 77 279 77 c 0
EndSplineSet
Validated: 1048609
EndChar

StartChar: h
Encoding: 104 104 75
Width: 568
GlyphClass: 2
Flags: W
AnchorPoint: "Anchor-6" 285 246 basechar 0
AnchorPoint: "Anchor-5" 167 584 basechar 0
AnchorPoint: "Anchor-3" 285 0 basechar 0
AnchorPoint: "Anchor-2" 286 705 basechar 0
AnchorPoint: "Anchor-1" 251 353 basechar 0
AnchorPoint: "Anchor-0" 193 705 basechar 0
LayerCount: 2
Fore
SplineSet
116 -7 m 0
 90 -7 76 8 76 35 c 2
 76 671 l 2
 76 697 90 712 116 712 c 0
 142 712 157 697 157 671 c 2
 157 407 l 1
 190 465 251 495 322 495 c 0
 438 495 495 431 495 303 c 2
 495 35 l 2
 495 8 480 -7 455 -7 c 0
 429 -7 414 8 414 35 c 2
 414 298 l 2
 414 388 380 429 303 429 c 0
 214 429 157 368 157 277 c 2
 157 35 l 2
 157 8 143 -7 116 -7 c 0
EndSplineSet
Validated: 1048577
EndChar

StartChar: i
Encoding: 105 105 76
Width: 232
GlyphClass: 2
Flags: W
AnchorPoint: "Anchor-4" 144 0 basechar 0
AnchorPoint: "Anchor-3" 116 0 basechar 0
LayerCount: 2
Fore
SplineSet
116 603 m 0
 82 603 63 621 63 653 c 0
 63 685 82 702 116 702 c 0
 150 702 169 685 169 653 c 0
 169 621 151 603 116 603 c 0
116 -5 m 0
 90 -5 76 11 76 39 c 2
 76 448 l 2
 76 476 90 491 116 491 c 0
 142 491 157 476 157 448 c 2
 157 39 l 2
 157 11 143 -5 116 -5 c 0
EndSplineSet
Validated: 1048577
Substitution2: "'locl' Localized Forms in Latin lookup 10 subtable" idotaccent
Substitution2: "Single Substitution lookup 4 subtable" dotlessi
Substitution2: "Single Substitution lookup 3 subtable" dotlessi
Substitution2: "'aalt' Access All Alternates lookup 0 subtable" idotaccent
EndChar

StartChar: j
Encoding: 106 106 77
Width: 236
GlyphClass: 1
Flags: W
LayerCount: 2
Fore
SplineSet
119 603 m 0
 86 603 66 621 66 653 c 0
 66 685 86 702 119 702 c 0
 154 702 173 685 173 653 c 0
 173 621 154 603 119 603 c 0
-17 -191 m 0
 -67 -193 -69 -131 -29 -128 c 0
 45 -124 79 -91 79 -15 c 2
 79 452 l 2
 79 479 94 493 120 493 c 0
 145 493 160 479 160 452 c 2
 160 -9 l 2
 160 -132 97 -186 -17 -191 c 0
EndSplineSet
Validated: 33
Substitution2: "Single Substitution lookup 4 subtable" dotlessj
Substitution2: "Single Substitution lookup 3 subtable" dotlessj
EndChar

StartChar: k
Encoding: 107 107 78
Width: 500
GlyphClass: 2
Flags: HMW
HStem: -7 21G<103 129.5 425 451.5> 473 20G<405 433> 692 20G<103 129> 692 20G<103 129>
VStem: 76 81<35 228 270 671>
AnchorPoint: "Anchor-3" 250 0 basechar 0
AnchorPoint: "Anchor-2" 286 705 basechar 0
LayerCount: 2
Fore
SplineSet
116 -7 m 0xe8
 90 -7 76 8 76 35 c 2
 76 671 l 2
 76 697 90 712 116 712 c 0
 142 712 157 697 157 671 c 2
 157 270 l 1
 159 270 l 1
 364 466 l 2
 382 483 393 493 417 493 c 0
 449 493 463 463 438 437 c 2
 243 252 l 1
 457 51 l 2
 484 24 466 -7 437 -7 c 0
 413 -7 401 3 381 23 c 2
 188.748046875 200.530273438 l 1
 157 170.41015625 l 1
 157 35 l 2
 157 8 143 -7 116 -7 c 0xe8
EndSplineSet
Validated: 1048609
EndChar

StartChar: l
Encoding: 108 108 79
Width: 296
GlyphClass: 2
Flags: W
AnchorPoint: "Anchor-6" 126 357 basechar 0
AnchorPoint: "Anchor-3" 186 0 basechar 0
AnchorPoint: "Anchor-2" 116 705 basechar 0
AnchorPoint: "Anchor-1" 281 353 basechar 0
AnchorPoint: "Anchor-0" 202 705 basechar 0
LayerCount: 2
Fore
SplineSet
224 -9 m 0
 127 -9 76 51 76 161 c 2
 76 671 l 2
 76 697 90 712 116 712 c 0
 142 712 157 697 157 671 c 2
 157 167 l 2
 157 95 186 60 242 60 c 0
 254 60 263 62 272 62 c 0
 286 63 292 57 292 33 c 0
 292 9 283 -2 258 -6 c 0
 247 -8 235 -9 224 -9 c 0
EndSplineSet
Validated: 1048609
Substitution2: "'ss02' Style Set 2 lookup 36 subtable" l.ss02
Substitution2: "'aalt' Access All Alternates lookup 0 subtable" l.ss02
EndChar

StartChar: m
Encoding: 109 109 80
Width: 856
GlyphClass: 2
Flags: W
AnchorPoint: "Anchor-3" 429 0 basechar 0
AnchorPoint: "Anchor-2" 429 484 basechar 0
LayerCount: 2
Fore
SplineSet
118 -7 m 0
 92 -7 78 8 78 35 c 2
 78 452 l 2
 78 479 92 493 117 493 c 0
 143 493 157 479 157 452 c 2
 157 405 l 1
 186 463 240 495 309 495 c 0
 384 495 433 463 455 396 c 1
 484 457 545 495 619 495 c 0
 727 495 781 432 781 303 c 2
 781 35 l 2
 781 8 766 -7 740 -7 c 0
 715 -7 700 8 700 35 c 2
 700 299 l 2
 700 388 671 429 599 429 c 0
 520 429 470 369 470 275 c 2
 470 35 l 2
 470 8 455 -7 429 -7 c 0
 404 -7 389 8 389 35 c 2
 389 299 l 2
 389 388 360 429 288 429 c 0
 208 429 159 369 159 275 c 2
 159 35 l 2
 159 8 145 -7 118 -7 c 0
EndSplineSet
Validated: 1048577
EndChar

StartChar: n
Encoding: 110 110 81
Width: 568
GlyphClass: 2
Flags: W
HStem: -7 21G<103 129.5 442 467.5> 429 66<222.854 376.376>
VStem: 76 81<-3.50717 362.047 436.062 488.929> 414 81<-3.50717 387.844>
AnchorPoint: "Anchor-3" 285 0 basechar 0
AnchorPoint: "Anchor-2" 285 484 basechar 0
LayerCount: 2
Fore
SplineSet
116 -7 m 0
 90 -7 76 8 76 35 c 2
 76 452 l 2
 76 479 90 493 115 493 c 0
 141 493 155 479 155 452 c 2
 155 436.0625 l 1
 197.864257812 484.893554688 249 495 322 495 c 0
 438 495 495 433 495 303 c 2
 495 35 l 2
 495 8 480 -7 455 -7 c 0
 429 -7 414 8 414 35 c 2
 414 298 l 2
 414 388 380 429 303 429 c 0
 214 429 157 368 157 277 c 2
 157 35 l 2
 157 8 143 -7 116 -7 c 0
EndSplineSet
Validated: 1048577
EndChar

StartChar: o
Encoding: 111 111 82
Width: 556
GlyphClass: 2
Flags: W
AnchorPoint: "Anchor-6" 278 243 basechar 0
AnchorPoint: "Anchor-4" 337 0 basechar 0
AnchorPoint: "Anchor-3" 278 0 basechar 0
AnchorPoint: "Anchor-2" 278 484 basechar 0
AnchorPoint: "Anchor-0" 330 484 basechar 0
LayerCount: 2
Fore
SplineSet
278 -9 m 0
 137 -9 46 89 46 243 c 0
 46 397 137 495 278 495 c 0
 419 495 510 397 510 243 c 0
 510 89 419 -9 278 -9 c 0
278 56 m 0
 369 56 428 123 428 243 c 0
 428 364 369 430 278 430 c 0
 186 430 128 364 128 243 c 0
 128 123 186 56 278 56 c 0
EndSplineSet
Validated: 1048577
Substitution2: "Single Substitution lookup 29 subtable" ordmasculine
Substitution2: "'aalt' Access All Alternates lookup 0 subtable" ordmasculine
EndChar

StartChar: p
Encoding: 112 112 83
Width: 583
GlyphClass: 2
Flags: W
AnchorPoint: "Anchor-3" 290 0 basechar 0
AnchorPoint: "Anchor-2" 290 484 basechar 0
LayerCount: 2
Fore
SplineSet
116 -187 m 0
 90 -187 76 -172 76 -146 c 2
 76 452 l 2
 76 479 90 493 115 493 c 0
 141 493 156 479 156 452 c 2
 156 400 l 1
 185 459 246 495 322 495 c 0
 452 495 537 398 537 243 c 0
 537 89 453 -9 322 -9 c 0
 247 -9 187 26 157 84 c 1
 157 -146 l 2
 157 -172 142 -187 116 -187 c 0
305 56 m 0
 396 56 455 123 455 243 c 0
 455 364 396 430 305 430 c 0
 214 430 155 364 155 243 c 0
 155 123 214 56 305 56 c 0
EndSplineSet
Validated: 1048577
EndChar

StartChar: q
Encoding: 113 113 84
Width: 583
GlyphClass: 2
Flags: W
AnchorPoint: "Anchor-3" 291 0 basechar 0
AnchorPoint: "Anchor-2" 291 484 basechar 0
LayerCount: 2
Fore
SplineSet
467 -187 m 0
 441 -187 426 -172 426 -146 c 2
 426 85 l 1
 397 27 336 -9 261 -9 c 0
 130 -9 46 89 46 243 c 0
 46 398 131 495 261 495 c 0
 337 495 398 459 427 400 c 1
 427 452 l 2
 427 479 441 493 467 493 c 0
 493 493 507 479 507 452 c 2
 507 -146 l 2
 507 -172 492 -187 467 -187 c 0
278 56 m 0
 369 56 428 123 428 243 c 0
 428 364 369 430 278 430 c 0
 186 430 128 364 128 243 c 0
 128 123 186 56 278 56 c 0
EndSplineSet
Validated: 1048577
EndChar

StartChar: r
Encoding: 114 114 85
Width: 358
GlyphClass: 2
Flags: MW
HStem: -7 21G<103.5 130> 400.252 92.748
VStem: 76 82<35 277>
LayerCount: 2
Fore
SplineSet
117 -7 m 0
 90 -7 76 8 76 35 c 2
 76 452 l 2
 76 479 90 493 115 493 c 0
 141 493 155 479 155 452 c 2
 155 429.868164062 l 1
 199.8515625 477.291015625 240 490 317 493 c 0
 337 495 350 485 351 461 c 0
 353 438 331.408203125 402.251953125 305.408203125 400.251953125 c 2
 289.408203125 398.251953125 l 2
 198.408203125 390.251953125 158 361.870117188 158 277 c 2
 158 35 l 2
 158 8 143 -7 117 -7 c 0
EndSplineSet
Validated: 33
EndChar

StartChar: s
Encoding: 115 115 86
Width: 481
GlyphClass: 2
Flags: W
AnchorPoint: "Anchor-3" 240 0 basechar 0
AnchorPoint: "Anchor-2" 249 484 basechar 0
LayerCount: 2
Fore
SplineSet
240 -9 m 0
 180 -9 117 5 65 40 c 0
 29 62 54 117 94 96 c 0
 146 64 194 53 242 53 c 0
 318 53 357 83 357 131 c 0
 357 169 332 189 278 201 c 2
 187 221 l 2
 103 239 63 282 63 349 c 0
 63 437 139 495 253 495 c 0
 311 495 365 480 408 447 c 0
 442 424 414 370 375 394 c 0
 335 421 293 433 253 433 c 0
 179 433 139 401 139 353 c 0
 139 315 161 292 213 281 c 2
 304 262 l 2
 390 243 434 204 434 135 c 0
 434 46 357 -9 240 -9 c 0
EndSplineSet
Validated: 1048609
EndChar

StartChar: t
Encoding: 116 116 87
Width: 401
GlyphClass: 2
Flags: W
HStem: -9 69<235.2 367.62> 423 63<21.259 122 203 362.655>
VStem: 122 81<93.2675 423 486 638.529>
AnchorPoint: "Anchor-6" 188 267 basechar 0
AnchorPoint: "Anchor-3" 239 0 basechar 0
AnchorPoint: "Anchor-2" 163 635 basechar 0
AnchorPoint: "Anchor-0" 271 705 basechar 0
LayerCount: 2
Fore
SplineSet
294 -9 m 0
 179 -9 122 54 122 168 c 2
 122 423 l 1
 55 423 l 2
 32 423 20 435 20 455 c 0
 20 475 32 486 55 486 c 2
 122 486 l 1
 122 601 l 2
 122 627 137 642 163 642 c 0
 189 642 203 627 203 601 c 2
 203 486 l 1
 329 486 l 2
 351 486 364 475 364 455 c 0
 364 435 351 423 329 423 c 2
 203 423 l 1
 203 176 l 2
 203 100 232 60 305 60 c 0
 330 60 347 68 360 68 c 0
 372 69 381 61 381 38 c 0
 381 22 376 7 361 2 c 0
 345 -3 315 -9 294 -9 c 0
EndSplineSet
Validated: 1048609
EndChar

StartChar: u
Encoding: 117 117 88
Width: 560
GlyphClass: 2
Flags: W
HStem: -9 67<193.088 340.105> 473 20G<101.5 127 433 458.5>
VStem: 74 81<95.8024 489.7> 405 81<-2.69702 82 124.511 489.7>
AnchorPoint: "Anchor-4" 470 0 basechar 0
AnchorPoint: "Anchor-3" 282 0 basechar 0
AnchorPoint: "Anchor-2" 282 485 basechar 0
AnchorPoint: "Anchor-0" 421 484 basechar 0
LayerCount: 2
Fore
SplineSet
249 -9 m 0
 131 -9 74 57 74 184 c 2
 74 452 l 2
 74 479 89 493 114 493 c 0
 140 493 155 479 155 452 c 2
 155 185 l 2
 155 99 189 58 265 58 c 0
 348 58 405 118 405 210 c 2
 405 452 l 2
 405 479 420 493 446 493 c 0
 471 493 486 479 486 452 c 2
 486 35 l 2
 486 8 473 -7 447 -7 c 0
 422 -7 407 8 407 35 c 2
 407 82 l 1
 376 23 319 -9 249 -9 c 0
EndSplineSet
Validated: 1048577
EndChar

StartChar: v
Encoding: 118 118 89
Width: 515
GlyphClass: 2
Flags: W
AnchorPoint: "Anchor-3" 258 0 basechar 0
AnchorPoint: "Anchor-2" 258 484 basechar 0
LayerCount: 2
Fore
SplineSet
257 -7 m 0
 233 -7 217 5 205 32 c 2
 32 436 l 2
 18 466 31 493 67 493 c 0
 87 493 98 484 108 461 c 2
 259 93 l 1
 412 461 l 2
 421 484 432 493 454 493 c 0
 485 493 496 466 484 437 c 2
 309 32 l 2
 299 6 281 -7 257 -7 c 0
EndSplineSet
Validated: 1048609
EndChar

StartChar: w
Encoding: 119 119 90
Width: 841
GlyphClass: 2
Flags: W
AnchorPoint: "Anchor-3" 421 0 basechar 0
AnchorPoint: "Anchor-2" 421 484 basechar 0
LayerCount: 2
Fore
SplineSet
244 -7 m 0
 221 -7 203 5 193 31 c 2
 44 436 l 2
 31 471 47 493 78 493 c 0
 98 493 109 485 118 460 c 2
 246 94 l 1
 378 460 l 2
 387 483 401 493 423 493 c 0
 444 493 459 482 467 460 c 2
 597 93 l 1
 727 462 l 2
 736 486 749 493 768 493 c 0
 800 493 809 465 797 436 c 2
 648 31 l 2
 638 5 620 -7 597 -7 c 0
 574 -7 556 5 547 31 c 2
 421 378 l 1
 295 31 l 2
 285 5 267 -7 244 -7 c 0
EndSplineSet
Validated: 1048609
EndChar

StartChar: x
Encoding: 120 120 91
Width: 525
GlyphClass: 2
Flags: W
AnchorPoint: "Anchor-3" 263 0 basechar 0
AnchorPoint: "Anchor-2" 263 484 basechar 0
LayerCount: 2
Fore
SplineSet
78 -6 m 0
 51 -6 32 21 57 52 c 2
 215 251 l 1
 68 435 l 2
 42 466 62 493 89 493 c 0
 110 493 122 486 134 470 c 2
 263 307 l 1
 393 470 l 2
 405 486 417 493 437 493 c 0
 464 493 484 466 458 434 c 2
 310 250 l 1
 470 52 l 2
 495 22 475 -6 447 -6 c 0
 428 -6 415 1 402 17 c 2
 263 193 l 1
 123 17 l 2
 111 2 99 -6 78 -6 c 0
EndSplineSet
Validated: 1048609
EndChar

StartChar: y
Encoding: 121 121 92
Width: 514
GlyphClass: 2
Flags: W
AnchorPoint: "Anchor-3" 389 0 basechar 0
AnchorPoint: "Anchor-2" 258 484 basechar 0
LayerCount: 2
Fore
SplineSet
184 -187 m 0
 153 -187 141 -160 154 -130 c 2
 215 8 l 1
 31 436 l 2
 18 466 31 493 67 493 c 0
 87 493 98 484 108 461 c 2
 259 92 l 1
 411 461 l 2
 421 485 432 493 454 493 c 0
 485 493 496 466 484 437 c 2
 228 -155 l 2
 217 -179 206 -187 184 -187 c 0
EndSplineSet
Validated: 1048609
EndChar

StartChar: z
Encoding: 122 122 93
Width: 463
GlyphClass: 2
Flags: W
AnchorPoint: "Anchor-3" 239 0 basechar 0
AnchorPoint: "Anchor-2" 239 484 basechar 0
LayerCount: 2
Fore
SplineSet
408 0 m 2
 85 0 l 2
 50 0 40 37 66 67 c 2
 332 423 l 1
 81 423 l 2
 60 423 48 435 48 455 c 0
 48 475 60 486 81 486 c 2
 388 486 l 2
 429 486 438 450 414 421 c 2
 144 63 l 1
 408 63 l 2
 429 63 441 52 441 32 c 0
 441 12 429 0 408 0 c 2
EndSplineSet
Validated: 1048609
EndChar

StartChar: braceleft
Encoding: 123 123 94
Width: 352
GlyphClass: 1
Flags: W
LayerCount: 2
Fore
SplineSet
316 -180 m 2
 247 -180 l 2
 182 -180 146 -144 146 -78 c 2
 146 149 l 2
 146 204 127 228 71 230 c 0
 53 230 42 245 42 263 c 0
 42 281 53 295 71 296 c 0
 127 297 146 321 146 376 c 2
 146 603 l 2
 146 669 182 705 247 705 c 2
 316 705 l 2
 336 705 351 691 351 673 c 0
 351 655 339 641 320 641 c 2
 270 641 l 2
 241 641 227 626 227 596 c 2
 227 368 l 2
 227 314 197 272 154 263 c 1
 197 253 227 211 227 158 c 2
 227 -71 l 2
 227 -101 241 -116 270 -116 c 2
 320 -116 l 2
 339 -116 351 -130 351 -148 c 0
 351 -166 336 -180 316 -180 c 2
EndSplineSet
Validated: 1
EndChar

StartChar: bar
Encoding: 124 124 95
Width: 265
GlyphClass: 1
Flags: W
LayerCount: 2
Fore
SplineSet
132 -187 m 0
 107 -187 92 -173 92 -146 c 2
 92 671 l 2
 92 697 107 712 132 712 c 0
 158 712 173 697 173 671 c 2
 173 -146 l 2
 173 -173 159 -187 132 -187 c 0
EndSplineSet
Validated: 1
EndChar

StartChar: braceright
Encoding: 125 125 96
Width: 352
GlyphClass: 1
Flags: W
LayerCount: 2
Fore
SplineSet
106 -180 m 2
 36 -180 l 2
 16 -180 1 -166 1 -148 c 0
 1 -130 14 -116 32 -116 c 2
 82 -116 l 2
 111 -116 125 -101 125 -71 c 2
 125 158 l 2
 125 211 155 253 198 263 c 1
 155 272 125 314 125 368 c 2
 125 596 l 2
 125 626 111 641 82 641 c 2
 32 641 l 2
 14 641 1 655 1 673 c 0
 1 691 16 705 36 705 c 2
 106 705 l 2
 171 705 206 669 206 603 c 2
 206 376 l 2
 206 321 225 297 281 296 c 0
 299 295 310 281 310 263 c 0
 310 245 299 230 281 230 c 0
 225 229 206 204 206 149 c 2
 206 -78 l 2
 206 -144 171 -180 106 -180 c 2
EndSplineSet
Validated: 1
EndChar

StartChar: asciitilde
Encoding: 126 126 97
Width: 600
GlyphClass: 1
Flags: W
LayerCount: 2
Fore
SplineSet
415 217 m 0
 381 217 343 229 289 259 c 0
 236 289 212 297 190 297 c 0
 160 297 136 286 115 252 c 0
 94 217 48 247 67 281 c 0
 94 333 136 358 186 358 c 0
 219 358 254 347 308 317 c 0
 357 291 385 277 410 277 c 0
 440 277 464 288 485 323 c 0
 507 357 553 327 534 293 c 0
 507 242 464 217 415 217 c 0
EndSplineSet
Validated: 33
EndChar

StartChar: exclamdown
Encoding: 161 161 99
Width: 228
GlyphClass: 1
Flags: W
LayerCount: 2
Fore
SplineSet
115 380 m 0
 82 380 60 404 60 435 c 0
 60 468 82 490 115 490 c 0
 148 490 169 468 169 435 c 0
 169 404 148 380 115 380 c 0
115 -187 m 0
 83 -187 65 -166 67 -134 c 2
 87 278 l 2
 89 299 99 309 115 309 c 0
 130 309 141 299 142 278 c 2
 161 -134 l 2
 162 -166 146 -187 115 -187 c 0
EndSplineSet
Validated: 33
EndChar

StartChar: cent
Encoding: 162 162 100
Width: 600
GlyphClass: 1
Flags: W
LayerCount: 2
Fore
SplineSet
318 -122 m 0
 299 -122 284 -107 284 -87 c 2
 284 -4 l 1
 168 14 91 111 91 244 c 0
 91 371 167 468 284 488 c 1
 284 578 l 2
 284 598 299 613 318 613 c 0
 338 613 352 598 352 578 c 2
 352 491 l 1
 400 488 450 471 484 445 c 0
 518 421 490 364 447 392 c 0
 415 415 375 426 335 426 c 0
 236 426 174 353 174 244 c 0
 174 133 234 61 334 61 c 0
 373 61 412 71 448 95 c 0
 495 124 516 63 482 41 c 0
 448 16 399 -2 352 -6 c 1
 352 -87 l 2
 352 -107 338 -122 318 -122 c 0
EndSplineSet
Validated: 33
EndChar

StartChar: sterling
Encoding: 163 163 101
Width: 600
GlyphClass: 1
Flags: W
LayerCount: 2
Fore
SplineSet
524 0 m 2
 76 0 l 2
 56 0 41 16 41 36 c 0
 41 55 56 70 76 70 c 2
 146 70 l 1
 146 323 l 1
 73 323 l 2
 55 323 41 336 41 353 c 0
 41 371 55 384 73 384 c 2
 146 384 l 1
 146 510 l 2
 146 638 218 714 362 714 c 0
 430 714 503 690 549 650 c 0
 588 618 547 564 508 593 c 0
 464 630 416 644 361 644 c 0
 272 644 228 599 228 514 c 2
 228 384 l 1
 382 384 l 2
 401 384 415 371 415 353 c 0
 415 336 401 323 382 323 c 2
 228 323 l 1
 228 70 l 1
 524 70 l 2
 544 70 559 55 559 36 c 0
 559 16 544 0 524 0 c 2
EndSplineSet
Validated: 33
EndChar

StartChar: currency
Encoding: 164 164 102
Width: 600
GlyphClass: 1
Flags: W
LayerCount: 2
Fore
SplineSet
50 -11 m 0
 37 2 37 20 50 33 c 2
 109 93 l 1
 78 135 59 188 59 245 c 0
 59 302 77 355 109 397 c 1
 50 458 l 2
 38 471 38 488 50 501 c 0
 61 513 81 513 94 499 c 2
 152 440 l 1
 192 473 244 493 300 493 c 0
 355 493 406 474 447 442 c 1
 502 499 l 2
 516 513 536 514 548 501 c 0
 561 488 561 470 547 456 c 2
 490 398 l 1
 522 355 541 303 541 245 c 0
 541 187 522 135 489 92 c 1
 547 33 l 2
 560 20 560 2 547 -11 c 0
 536 -23 516 -23 504 -9 c 2
 447 49 l 1
 407 16 356 -3 300 -3 c 0
 244 -3 192 17 151 49 c 1
 93 -10 l 2
 80 -23 63 -24 50 -11 c 0
300 67 m 0
 392 67 466 147 466 245 c 0
 466 344 392 424 300 423 c 0
 207 423 132 344 132 245 c 0
 132 147 207 67 300 67 c 0
EndSplineSet
Validated: 33
EndChar

StartChar: yen
Encoding: 165 165 103
Width: 600
GlyphClass: 1
Flags: W
LayerCount: 2
Fore
SplineSet
300 -7 m 0
 274 -7 259 9 259 37 c 2
 259 175 l 1
 99 175 l 2
 78 175 65 186 65 205 c 0
 65 224 78 235 99 235 c 2
 259 235 l 1
 259 328 l 1
 99 328 l 2
 78 328 65 339 65 358 c 0
 65 377 78 388 99 388 c 2
 223 388 l 1
 30 656 l 2
 12 681 27 712 58 712 c 0
 76 712 88 704 100 686 c 2
 300 405 l 1
 500 686 l 2
 513 705 524 712 543 712 c 0
 574 712 589 683 569 655 c 2
 378 388 l 1
 501 388 l 2
 522 388 535 377 535 358 c 0
 535 339 522 328 501 328 c 2
 341 328 l 1
 341 235 l 1
 501 235 l 2
 522 235 535 224 535 205 c 0
 535 186 522 175 501 175 c 2
 341 175 l 1
 341 37 l 2
 341 9 327 -7 300 -7 c 0
EndSplineSet
Validated: 33
EndChar

StartChar: brokenbar
Encoding: 166 166 104
Width: 265
GlyphClass: 1
Flags: W
LayerCount: 2
Fore
SplineSet
132 365 m 0
 107 365 92 380 92 406 c 2
 92 671 l 2
 92 697 107 712 132 712 c 0
 158 712 173 697 173 671 c 2
 173 406 l 2
 173 380 159 365 132 365 c 0
132 -187 m 0
 107 -187 92 -172 92 -146 c 2
 92 119 l 2
 92 145 107 160 132 160 c 0
 158 160 173 145 173 119 c 2
 173 -146 l 2
 173 -172 159 -187 132 -187 c 0
EndSplineSet
Validated: 1
EndChar

StartChar: section
Encoding: 167 167 105
Width: 545
GlyphClass: 1
Flags: W
LayerCount: 2
Fore
SplineSet
248 -189 m 0
 175 -189 112 -172 68 -140 c 0
 35 -119 62 -62 101 -85 c 0
 141 -111 196 -126 249 -126 c 0
 328 -126 383 -87 383 -15 c 0
 383 36 361 69 293 102 c 2
 183 153 l 2
 76 204 42 253 42 327 c 0
 42 375 65 424 102 457 c 1
 90 474 82 499 82 534 c 0
 82 646 172 713 293 713 c 0
 361 713 423 696 468 664 c 0
 503 641 474 585 435 609 c 0
 397 635 342 651 291 651 c 0
 217 651 162 611 162 539 c 0
 162 489 184 455 252 423 c 2
 362 371 l 2
 469 321 503 271 503 198 c 0
 503 148 480 101 443 68 c 1
 454 50 463 25 463 -10 c 0
 463 -122 373 -189 248 -189 c 0
116 338 m 0
 116 290 141 254 222 216 c 2
 316 172 l 2
 356 152 384 132 403 112 c 1
 420 133 429 159 429 187 c 0
 429 235 404 271 323 308 c 2
 229 353 l 2
 188 372 160 393 142 413 c 1
 125 392 116 366 116 338 c 0
EndSplineSet
Validated: 33
EndChar

StartChar: dieresis
Encoding: 168 168 106
Width: 467
GlyphClass: 1
Flags: W
LayerCount: 2
Fore
SplineSet
321 606 m 0
 291 606 274 622 274 652 c 0
 274 682 291 699 321 699 c 0
 351 699 367 682 367 652 c 0
 367 622 351 606 321 606 c 0
147 606 m 0
 118 606 100 622 100 652 c 0
 100 682 118 699 147 699 c 0
 177 699 194 682 194 652 c 0
 194 622 177 606 147 606 c 0
EndSplineSet
Validated: 1
EndChar

StartChar: copyright
Encoding: 169 169 107
Width: 815
GlyphClass: 1
Flags: W
LayerCount: 2
Fore
SplineSet
408 -9 m 0
 203 -9 46 149 46 353 c 0
 46 557 203 714 408 714 c 0
 612 714 769 557 769 353 c 0
 769 149 612 -9 408 -9 c 0
408 35 m 0
 587 35 723 173 723 353 c 0
 723 533 587 670 408 670 c 0
 228 670 92 533 92 353 c 0
 92 173 228 35 408 35 c 0
421 137 m 0
 292 137 213 224 213 355 c 0
 213 487 292 568 421 568 c 0
 466 568 514 553 550 526 c 0
 580 506 557 455 520 478 c 0
 488 500 455 508 424 508 c 0
 337 508 285 452 285 355 c 0
 285 257 337 197 424 197 c 0
 456 197 488 205 521 228 c 0
 557 250 579 200 550 180 c 0
 514 152 465 137 421 137 c 0
EndSplineSet
Validated: 33
EndChar

StartChar: ordfeminine
Encoding: 170 170 108
Width: 327
GlyphClass: 1
Flags: W
LayerCount: 2
Fore
SplineSet
136 411 m 0
 73 411 27 449 27 501 c 0
 27 562 86 587 182 587 c 2
 234 587 l 1
 234 603 l 2
 234 648 210 669 162 669 c 0
 135 669 107 663 78 651 c 0
 44 638 32 680 62 693 c 0
 94 708 130 714 164 714 c 0
 248 714 290 676 290 601 c 2
 290 439 l 2
 290 421 280 411 263 411 c 0
 246 411 236 422 236 439 c 2
 236 470 l 1
 234 470 l 1
 212 429 182 411 136 411 c 0
149 453 m 0
 198 453 234 488 234 546 c 2
 234 551 l 1
 184 551 l 2
 117 551 84 535 84 502 c 0
 84 475 104 453 149 453 c 0
EndSplineSet
Validated: 33
EndChar

StartChar: guillemotleft
Encoding: 171 171 109
Width: 441
GlyphClass: 1
Flags: W
LayerCount: 2
Fore
SplineSet
187 89 m 0
 172 83 155 87 147 102 c 2
 65 238 l 2
 54 256 54 274 65 293 c 2
 146 428 l 2
 155 444 171 449 186 442 c 0
 203 434 210 415 201 395 c 2
 136 265 l 1
 201 136 l 2
 210 116 205 96 187 89 c 0
368 89 m 0
 353 83 336 87 328 102 c 2
 246 238 l 2
 235 256 235 274 246 293 c 2
 327 428 l 2
 336 444 352 449 367 442 c 0
 385 434 391 415 382 395 c 2
 318 265 l 1
 382 136 l 2
 391 116 387 96 368 89 c 0
EndSplineSet
Validated: 33
EndChar

StartChar: logicalnot
Encoding: 172 172 110
Width: 600
GlyphClass: 1
Flags: W
LayerCount: 2
Fore
SplineSet
512 142 m 0
 490 142 480 154 480 175 c 2
 480 358 l 1
 81 358 l 2
 61 358 49 370 49 389 c 0
 49 409 61 420 81 420 c 2
 511 420 l 2
 532 420 544 408 544 387 c 2
 544 175 l 2
 544 154 532 142 512 142 c 0
EndSplineSet
Validated: 1
EndChar

StartChar: softhyphen
Encoding: 173 173 111
Width: 424
GlyphClass: 1
Flags: W
LayerCount: 2
Fore
SplineSet
325 233 m 2
 100 233 l 2
 80 233 65 247 65 266 c 0
 65 286 80 300 100 300 c 2
 325 300 l 2
 344 300 359 286 359 266 c 0
 359 247 344 233 325 233 c 2
EndSplineSet
Validated: 1
EndChar

StartChar: registered
Encoding: 174 174 112
Width: 815
GlyphClass: 1
Flags: W
LayerCount: 2
Fore
SplineSet
408 -9 m 0
 203 -9 46 149 46 353 c 0
 46 557 203 714 408 714 c 0
 612 714 769 557 769 353 c 0
 769 149 612 -9 408 -9 c 0
408 35 m 0
 587 35 723 173 723 353 c 0
 723 533 587 670 408 670 c 0
 228 670 92 533 92 353 c 0
 92 173 228 35 408 35 c 0
297 136 m 0
 276 136 264 149 264 171 c 2
 264 524 l 2
 264 549 278 564 304 564 c 2
 435 564 l 2
 526 564 576 517 576 442 c 0
 576 380 543 341 485 328 c 1
 505 320 521 304 532 272 c 2
 567 180 l 2
 577 152 561 136 537 136 c 0
 521 136 511 146 506 162 c 2
 464 272 l 2
 452 305 426 314 392 314 c 2
 330 314 l 1
 330 171 l 2
 330 149 319 136 297 136 c 0
330 510 m 1
 330 368 l 1
 427 368 l 2
 483 368 511 390 511 439 c 0
 511 488 484 510 427 510 c 2
 330 510 l 1
EndSplineSet
Validated: 33
EndChar

StartChar: macron
Encoding: 175 175 113
Width: 501
GlyphClass: 1
Flags: W
LayerCount: 2
Fore
SplineSet
372 625 m 2
 129 625 l 2
 111 625 100 635 100 652 c 0
 100 670 111 680 129 680 c 2
 372 680 l 2
 390 680 401 670 401 652 c 0
 401 635 390 625 372 625 c 2
EndSplineSet
Validated: 1
EndChar

StartChar: degree
Encoding: 176 176 114
Width: 371
GlyphClass: 1
Flags: W
LayerCount: 2
Fore
SplineSet
186 418 m 0
 101 418 37 483 37 566 c 0
 37 650 101 714 186 714 c 0
 269 714 333 651 333 566 c 0
 333 482 269 418 186 418 c 0
186 473 m 0
 238 473 275 512 275 566 c 0
 275 620 238 659 186 659 c 0
 133 659 96 620 96 566 c 0
 96 512 133 473 186 473 c 0
EndSplineSet
Validated: 1
EndChar

StartChar: plusminus
Encoding: 177 177 115
Width: 600
GlyphClass: 1
Flags: W
LayerCount: 2
Fore
SplineSet
300 120 m 0
 279 120 268 133 268 154 c 2
 268 297 l 1
 82 297 l 2
 61 297 49 309 49 329 c 0
 49 348 61 359 82 359 c 2
 268 359 l 1
 268 503 l 2
 268 524 279 536 300 536 c 0
 321 536 332 524 332 503 c 2
 332 359 l 1
 519 359 l 2
 539 359 551 348 551 329 c 0
 551 309 539 297 519 297 c 2
 332 297 l 1
 332 154 l 2
 332 133 321 120 300 120 c 0
519 0 m 2
 81 0 l 2
 61 0 49 12 49 31 c 0
 49 51 61 62 81 62 c 2
 519 62 l 2
 539 62 551 51 551 31 c 0
 551 11 539 0 519 0 c 2
EndSplineSet
Validated: 1
EndChar

StartChar: twosuperior
Encoding: 178 178 116
Width: 380
GlyphClass: 1
Flags: W
LayerCount: 2
Fore
SplineSet
310 282 m 2
 85 282 l 2
 66 282 52 294 52 311 c 0
 52 326 59 338 70 349 c 2
 189 478 l 2
 228 520 243 550 243 585 c 0
 243 627 219 650 173 650 c 0
 144 650 111 639 85 620 c 0
 49 597 21 645 55 669 c 0
 90 694 139 709 185 709 c 0
 266 709 316 664 316 592 c 0
 316 547 296 506 249 457 c 2
 140 341 l 1
 310 341 l 2
 330 341 341 331 341 312 c 0
 341 293 330 282 310 282 c 2
EndSplineSet
Validated: 33
EndChar

StartChar: threesuperior
Encoding: 179 179 117
Width: 380
GlyphClass: 1
Flags: W
LayerCount: 2
Fore
SplineSet
187 278 m 0
 135 278 88 292 54 318 c 0
 20 342 46 390 84 366 c 0
 112 346 146 337 181 337 c 0
 228 337 263 357 263 405 c 0
 263 449 230 466 177 466 c 2
 127 466 l 2
 107 466 95 477 95 496 c 0
 95 515 107 525 127 525 c 2
 166 525 l 2
 218 525 251 546 251 590 c 0
 251 627 223 650 176 650 c 0
 147 650 114 640 88 622 c 0
 48 597 21 645 55 669 c 0
 91 694 139 709 186 709 c 0
 267 709 319 665 319 600 c 0
 319 550 290 516 251 500 c 1
 299 488 331 452 331 398 c 0
 331 322 268 278 187 278 c 0
EndSplineSet
Validated: 33
EndChar

StartChar: acute
Encoding: 180 180 118
Width: 356
GlyphClass: 1
Flags: W
LayerCount: 2
Fore
SplineSet
250 712 m 2
 149 556 l 2
 132 529 87 551 103 582 c 2
 187 745 l 2
 210 791 277 752 250 712 c 2
EndSplineSet
Validated: 33
EndChar

StartChar: micro
Encoding: 181 181 119
Width: 600
GlyphClass: 1
Flags: W
LayerCount: 2
Fore
SplineSet
135 -187 m 0
 109 -187 95 -172 95 -146 c 2
 95 452 l 2
 95 479 109 493 135 493 c 0
 161 493 176 479 176 452 c 2
 176 186 l 2
 176 99 210 60 285 60 c 0
 368 60 426 119 426 211 c 2
 426 452 l 2
 426 479 440 493 466 493 c 0
 492 493 507 479 507 452 c 2
 507 35 l 2
 507 8 493 -7 468 -7 c 0
 442 -7 428 8 428 30 c 2
 428 88 l 1
 402 25 347 -9 284 -9 c 0
 235 -9 195 4 170 41 c 1
 174 -145 l 2
 175 -172 162 -187 135 -187 c 0
EndSplineSet
Validated: 33
EndChar

StartChar: paragraph
Encoding: 182 182 120
Width: 588
GlyphClass: 1
Flags: W
LayerCount: 2
Fore
SplineSet
276 -187 m 0
 255 -187 244 -175 244 -154 c 2
 244 310 l 1
 124 310 45 392 45 508 c 0
 45 623 124 705 245 705 c 2
 459 705 l 2
 486 705 501 690 501 664 c 2
 501 -154 l 2
 501 -175 489 -187 469 -187 c 0
 448 -187 436 -175 436 -154 c 2
 436 643 l 1
 309 643 l 1
 309 -154 l 2
 309 -175 297 -187 276 -187 c 0
EndSplineSet
Validated: 1
EndChar

StartChar: periodcentered
Encoding: 183 183 121
Width: 228
GlyphClass: 1
Flags: W
LayerCount: 2
Fore
SplineSet
115 211 m 0
 82 211 60 234 60 266 c 0
 60 298 82 321 115 321 c 0
 148 321 169 298 169 266 c 0
 169 234 148 211 115 211 c 0
EndSplineSet
Validated: 1
Substitution2: "Single Substitution lookup 15 subtable" periodcentered.loclCAT
Substitution2: "Single Substitution lookup 14 subtable" periodcentered.loclCAT
Substitution2: "'aalt' Access All Alternates lookup 0 subtable" periodcentered.loclCAT
EndChar

StartChar: cedilla
Encoding: 184 184 122
Width: 402
GlyphClass: 1
Flags: W
LayerCount: 2
Fore
SplineSet
190 -192 m 0
 166 -192 139 -189 118 -180 c 0
 87 -168 101 -123 133 -136 c 0
 148 -143 166 -145 188 -145 c 0
 223 -145 246 -132 246 -108 c 0
 246 -91 234 -80 208 -80 c 0
 197 -80 188 -81 175 -84 c 0
 164 -88 158 -89 151 -84 c 0
 146 -79 145 -72 147 -59 c 2
 159 20 l 1
 210 20 l 1
 199 -44 l 1
 206 -43 212 -42 218 -42 c 0
 267 -42 302 -67 302 -110 c 0
 302 -159 257 -192 190 -192 c 0
EndSplineSet
Validated: 33
EndChar

StartChar: onesuperior
Encoding: 185 185 123
Width: 380
GlyphClass: 1
Flags: W
LayerCount: 2
Fore
SplineSet
301 282 m 2
 114 282 l 2
 93 282 83 293 83 312 c 0
 83 330 93 341 114 341 c 2
 181 341 l 1
 181 626 l 1
 129 593 l 2
 88 569 60 621 98 644 c 2
 179 694 l 2
 192 703 204 708 218 708 c 0
 238 708 249 695 249 675 c 2
 249 341 l 1
 301 341 l 2
 321 341 332 331 332 312 c 0
 332 293 321 282 301 282 c 2
EndSplineSet
Validated: 33
EndChar

StartChar: ordmasculine
Encoding: 186 186 124
Width: 339
GlyphClass: 1
Flags: W
LayerCount: 2
Fore
SplineSet
170 411 m 0
 85 411 23 471 23 563 c 0
 23 655 85 714 170 714 c 0
 254 714 316 655 316 563 c 0
 316 471 254 411 170 411 c 0
170 457 m 0
 224 457 258 494 258 563 c 0
 258 632 224 668 170 668 c 0
 115 668 81 632 81 563 c 0
 81 494 115 457 170 457 c 0
EndSplineSet
Validated: 1
EndChar

StartChar: guillemotright
Encoding: 187 187 125
Width: 441
GlyphClass: 1
Flags: W
LayerCount: 2
Fore
SplineSet
73 89 m 0
 55 96 49 116 59 136 c 2
 124 265 l 1
 59 395 l 2
 50 415 56 434 74 442 c 0
 90 449 106 444 115 428 c 2
 195 293 l 2
 206 274 206 257 195 238 c 2
 113 102 l 2
 105 87 88 83 73 89 c 0
254 89 m 0
 236 96 230 116 240 136 c 2
 305 265 l 1
 240 395 l 2
 231 415 237 434 255 442 c 0
 271 449 287 444 296 428 c 2
 376 293 l 2
 387 274 387 257 376 238 c 2
 294 102 l 2
 286 87 269 83 254 89 c 0
EndSplineSet
Validated: 33
EndChar

StartChar: onequarter
Encoding: 188 188 126
Width: 893
GlyphClass: 1
Flags: W
LayerCount: 2
Fore
SplineSet
692 672 m 2
 303 1 l 2
 281 -38 227 -8 249 33 c 2
 638 704 l 2
 661 744 715 712 692 672 c 2
301 282 m 2
 114 282 l 2
 93 282 83 293 83 312 c 0
 83 330 93 341 114 341 c 2
 181 341 l 1
 181 626 l 1
 129 593 l 2
 88 569 60 621 98 644 c 2
 179 694 l 2
 192 703 204 708 218 708 c 0
 238 708 249 695 249 675 c 2
 249 341 l 1
 301 341 l 2
 321 341 332 331 332 312 c 0
 332 293 321 282 301 282 c 2
775 -3 m 0
 754 -3 741 8 741 29 c 2
 741 83 l 1
 580 83 l 2
 559 83 546 97 546 114 c 0
 546 128 553 138 563 154 c 2
 734 402 l 2
 740 412 752 426 775 426 c 0
 796 426 809 413 809 390 c 2
 809 142 l 1
 844 142 l 2
 861 142 873 133 873 113 c 0
 873 92 861 83 844 83 c 2
 809 83 l 1
 809 29 l 2
 809 8 796 -3 775 -3 c 0
741 142 m 1
 741 323 l 1
 618 142 l 1
 741 142 l 1
EndSplineSet
Validated: 33
EndChar

StartChar: onehalf
Encoding: 189 189 127
Width: 937
GlyphClass: 1
Flags: W
LayerCount: 2
Fore
SplineSet
692 672 m 2
 303 1 l 2
 281 -38 227 -8 249 33 c 2
 638 704 l 2
 661 744 715 712 692 672 c 2
301 282 m 2
 114 282 l 2
 93 282 83 293 83 312 c 0
 83 330 93 341 114 341 c 2
 181 341 l 1
 181 626 l 1
 129 593 l 2
 88 569 60 621 98 644 c 2
 179 694 l 2
 192 703 204 708 218 708 c 0
 238 708 249 695 249 675 c 2
 249 341 l 1
 301 341 l 2
 321 341 332 331 332 312 c 0
 332 293 321 282 301 282 c 2
867 0 m 2
 642 0 l 2
 623 0 609 12 609 29 c 0
 609 44 616 56 627 67 c 2
 747 196 l 2
 785 238 800 268 800 303 c 0
 800 345 776 368 730 368 c 0
 701 368 668 357 642 338 c 0
 607 315 578 363 613 387 c 0
 647 412 696 427 742 427 c 0
 823 427 873 382 873 310 c 0
 873 265 853 224 807 175 c 2
 697 59 l 1
 867 59 l 2
 887 59 898 49 898 30 c 0
 898 11 887 0 867 0 c 2
EndSplineSet
Validated: 33
EndChar

StartChar: threequarters
Encoding: 190 190 128
Width: 893
GlyphClass: 1
Flags: W
LayerCount: 2
Fore
SplineSet
692 672 m 2
 303 1 l 2
 281 -38 227 -8 249 33 c 2
 638 704 l 2
 661 744 715 712 692 672 c 2
187 278 m 0
 135 278 88 292 54 318 c 0
 20 342 46 390 84 366 c 0
 112 346 146 337 181 337 c 0
 228 337 263 357 263 405 c 0
 263 449 230 466 177 466 c 2
 127 466 l 2
 107 466 95 477 95 496 c 0
 95 515 107 525 127 525 c 2
 166 525 l 2
 218 525 251 546 251 590 c 0
 251 627 223 650 176 650 c 0
 147 650 114 640 88 622 c 0
 48 597 21 645 55 669 c 0
 91 694 139 709 186 709 c 0
 267 709 319 665 319 600 c 0
 319 550 290 516 251 500 c 1
 299 488 331 452 331 398 c 0
 331 322 268 278 187 278 c 0
775 -3 m 0
 754 -3 741 8 741 29 c 2
 741 83 l 1
 580 83 l 2
 559 83 546 97 546 114 c 0
 546 128 553 138 563 154 c 2
 734 402 l 2
 740 412 752 426 775 426 c 0
 796 426 809 413 809 390 c 2
 809 142 l 1
 844 142 l 2
 861 142 873 133 873 113 c 0
 873 92 861 83 844 83 c 2
 809 83 l 1
 809 29 l 2
 809 8 796 -3 775 -3 c 0
741 142 m 1
 741 323 l 1
 618 142 l 1
 741 142 l 1
EndSplineSet
Validated: 33
EndChar

StartChar: questiondown
Encoding: 191 191 129
Width: 443
GlyphClass: 1
Flags: W
LayerCount: 2
Fore
SplineSet
235 380 m 0
 202 380 180 403 180 435 c 0
 180 467 202 490 235 490 c 0
 269 490 290 467 290 435 c 0
 290 403 269 380 235 380 c 0
216 -189 m 0
 101 -189 24 -129 24 -40 c 0
 24 17 45 62 116 129 c 0
 179 190 200 229 207 281 c 0
 209 296 218 307 234 307 c 0
 251 307 261 296 261 276 c 0
 261 214 243 165 176 97 c 0
 123 43 107 10 107 -29 c 0
 107 -83 149 -116 220 -116 c 0
 280 -116 334 -99 382 -64 c 0
 433 -31 467 -92 418 -125 c 0
 365 -163 296 -189 216 -189 c 0
EndSplineSet
Validated: 33
EndChar

StartChar: Agrave
Encoding: 192 192 130
Width: 729
GlyphClass: 1
Flags: W
LayerCount: 2
Fore
SplineSet
331 769 m 2
 227 892 l 2
 197 927 256 970 285 928 c 2
 374 799 l 2
 393 771 354 744 331 769 c 2
72 -7 m 0
 40 -7 27 17 41 49 c 2
 316 675 l 2
 328 701 345 712 365 712 c 0
 385 712 402 701 413 675 c 2
 689 49 l 2
 703 17 691 -7 660 -7 c 0
 636 -7 623 6 613 30 c 2
 548 180 l 1
 181 180 l 1
 117 30 l 2
 105 4 93 -7 72 -7 c 0
366 609 m 1
 364 609 l 1
 211 249 l 1
 519 249 l 1
 366 609 l 1
EndSplineSet
Validated: 33
EndChar

StartChar: Aacute
Encoding: 193 193 131
Width: 729
GlyphClass: 1
Flags: W
LayerCount: 2
Fore
SplineSet
505 892 m 2
 401 769 l 2
 379 744 340 771 358 799 c 2
 447 928 l 2
 476 970 536 927 505 892 c 2
72 -7 m 0
 40 -7 27 17 41 49 c 2
 316 675 l 2
 328 701 345 712 365 712 c 0
 385 712 402 701 413 675 c 2
 689 49 l 2
 703 17 691 -7 660 -7 c 0
 636 -7 623 6 613 30 c 2
 548 180 l 1
 181 180 l 1
 117 30 l 2
 105 4 93 -7 72 -7 c 0
366 609 m 1
 364 609 l 1
 211 249 l 1
 519 249 l 1
 366 609 l 1
EndSplineSet
Validated: 33
EndChar

StartChar: Acircumflex
Encoding: 194 194 132
Width: 729
GlyphClass: 1
Flags: W
LayerCount: 2
Fore
SplineSet
366 884 m 1
 270 768 l 2
 246 742 207 767 227 795 c 2
 315 918 l 2
 328 938 346 946 366 946 c 0
 386 946 404 938 418 918 c 2
 505 795 l 2
 526 767 486 742 463 768 c 2
 366 884 l 1
72 -7 m 0
 40 -7 27 17 41 49 c 2
 316 675 l 2
 328 701 345 712 365 712 c 0
 385 712 402 701 413 675 c 2
 689 49 l 2
 703 17 691 -7 660 -7 c 0
 636 -7 623 6 613 30 c 2
 548 180 l 1
 181 180 l 1
 117 30 l 2
 105 4 93 -7 72 -7 c 0
366 609 m 1
 364 609 l 1
 211 249 l 1
 519 249 l 1
 366 609 l 1
EndSplineSet
Validated: 33
EndChar

StartChar: Atilde
Encoding: 195 195 133
Width: 729
GlyphClass: 1
Flags: W
LayerCount: 2
Fore
SplineSet
182 780 m 0
 168 780 157 790 160 808 c 0
 174 878 217 919 277 919 c 0
 349 919 405 843 458 843 c 0
 493 843 517 867 524 905 c 0
 528 919 537 926 550 925 c 0
 564 925 575 914 572 897 c 0
 558 826 515 786 456 786 c 0
 383 786 327 862 274 862 c 0
 239 862 215 837 208 800 c 0
 204 786 195 779 182 780 c 0
72 -7 m 0
 40 -7 27 17 41 49 c 2
 316 675 l 2
 328 701 345 712 365 712 c 0
 385 712 402 701 413 675 c 2
 689 49 l 2
 703 17 691 -7 660 -7 c 0
 636 -7 623 6 613 30 c 2
 548 180 l 1
 181 180 l 1
 117 30 l 2
 105 4 93 -7 72 -7 c 0
366 609 m 1
 364 609 l 1
 211 249 l 1
 519 249 l 1
 366 609 l 1
EndSplineSet
Validated: 33
EndChar

StartChar: Adieresis
Encoding: 196 196 134
Width: 729
GlyphClass: 1
Flags: W
LayerCount: 2
Fore
SplineSet
454 802 m 0
 424 802 406 819 406 849 c 0
 406 879 424 895 454 895 c 0
 483 895 500 879 500 849 c 0
 500 819 484 802 454 802 c 0
279 802 m 0
 250 802 232 819 232 849 c 0
 232 879 250 895 279 895 c 0
 309 895 326 879 326 849 c 0
 326 819 309 802 279 802 c 0
72 -7 m 0
 40 -7 27 17 41 49 c 2
 316 675 l 2
 328 701 345 712 365 712 c 0
 385 712 402 701 413 675 c 2
 689 49 l 2
 703 17 691 -7 660 -7 c 0
 636 -7 623 6 613 30 c 2
 548 180 l 1
 181 180 l 1
 117 30 l 2
 105 4 93 -7 72 -7 c 0
366 609 m 1
 364 609 l 1
 211 249 l 1
 519 249 l 1
 366 609 l 1
EndSplineSet
Validated: 33
EndChar

StartChar: Aring
Encoding: 197 197 135
Width: 729
GlyphClass: 1
Flags: W
LayerCount: 2
Fore
SplineSet
366 758 m 0
 299 758 247 809 247 874 c 0
 247 939 299 989 366 989 c 0
 433 989 485 939 485 874 c 0
 485 809 433 758 366 758 c 0
366 801 m 0
 408 801 438 833 438 874 c 0
 438 914 408 946 366 946 c 0
 324 946 294 914 294 874 c 0
 294 833 324 801 366 801 c 0
72 -7 m 0
 40 -7 27 17 41 49 c 2
 316 675 l 2
 328 701 345 712 365 712 c 0
 385 712 402 701 413 675 c 2
 689 49 l 2
 703 17 691 -7 660 -7 c 0
 636 -7 623 6 613 30 c 2
 548 180 l 1
 181 180 l 1
 117 30 l 2
 105 4 93 -7 72 -7 c 0
366 609 m 1
 364 609 l 1
 211 249 l 1
 519 249 l 1
 366 609 l 1
EndSplineSet
Validated: 33
EndChar

StartChar: AE
Encoding: 198 198 136
Width: 981
GlyphClass: 2
Flags: W
AnchorPoint: "Anchor-3" 487 0 basechar 0
AnchorPoint: "Anchor-2" 487 705 basechar 0
LayerCount: 2
Fore
SplineSet
42 -7 m 0
 5 -7 -4 19 12 45 c 2
 397 680 l 2
 408 698 422 705 442 705 c 2
 900 705 l 2
 925 705 937 693 937 671 c 0
 937 649 925 636 900 636 c 2
 503 636 l 1
 555 392 l 1
 880 392 l 2
 904 392 917 380 917 358 c 0
 917 336 904 323 880 323 c 2
 571 323 l 1
 624 69 l 1
 900 69 l 2
 925 69 937 56 937 35 c 0
 937 12 925 0 900 0 c 2
 598 0 l 2
 575 0 562 11 557 33 c 2
 526 180 l 1
 180 180 l 1
 85 20 l 2
 74 2 62 -7 42 -7 c 0
435 608 m 1
 433 608 l 1
 220 249 l 1
 511 249 l 1
 435 608 l 1
EndSplineSet
Validated: 1048609
EndChar

StartChar: Ccedilla
Encoding: 199 199 137
Width: 673
GlyphClass: 1
Flags: W
LayerCount: 2
Fore
SplineSet
388 -192 m 0
 364 -192 336 -189 315 -180 c 0
 284 -168 298 -123 330 -136 c 0
 346 -143 363 -145 386 -145 c 0
 421 -145 444 -132 444 -108 c 0
 444 -91 432 -80 406 -80 c 0
 395 -80 386 -81 373 -84 c 0
 361 -88 355 -89 349 -84 c 0
 344 -79 343 -72 345 -59 c 2
 353 -7 l 1
 169 9 61 144 61 353 c 0
 61 575 184 714 392 714 c 0
 475 714 552 689 607 645 c 0
 652 612 614 548 566 582 c 0
 518 621 460 639 394 639 c 0
 235 639 149 535 149 353 c 0
 149 171 235 66 394 66 c 0
 460 66 518 85 568 124 c 0
 615 157 651 95 611 64 c 0
 556 18 484 -7 403 -9 c 1
 397 -44 l 1
 404 -43 410 -42 416 -42 c 0
 465 -42 500 -67 500 -110 c 0
 500 -159 454 -192 388 -192 c 0
EndSplineSet
Validated: 33
EndChar

StartChar: Egrave
Encoding: 200 200 138
Width: 583
GlyphClass: 1
Flags: W
LayerCount: 2
Fore
SplineSet
289 769 m 2
 185 892 l 2
 155 927 214 970 243 928 c 2
 332 799 l 2
 351 771 312 744 289 769 c 2
504 0 m 2
 132 0 l 2
 103 0 87 16 87 45 c 2
 87 660 l 2
 87 689 103 705 132 705 c 2
 504 705 l 2
 526 705 539 693 539 671 c 0
 539 649 526 636 504 636 c 2
 167 636 l 1
 167 392 l 1
 483 392 l 2
 506 392 518 380 518 358 c 0
 518 336 506 323 483 323 c 2
 167 323 l 1
 167 69 l 1
 504 69 l 2
 526 69 539 56 539 35 c 0
 539 12 526 0 504 0 c 2
EndSplineSet
Validated: 33
EndChar

StartChar: Eacute
Encoding: 201 201 139
Width: 583
GlyphClass: 1
Flags: W
LayerCount: 2
Fore
SplineSet
463 892 m 2
 359 769 l 2
 337 744 298 771 316 799 c 2
 405 928 l 2
 434 970 494 927 463 892 c 2
504 0 m 2
 132 0 l 2
 103 0 87 16 87 45 c 2
 87 660 l 2
 87 689 103 705 132 705 c 2
 504 705 l 2
 526 705 539 693 539 671 c 0
 539 649 526 636 504 636 c 2
 167 636 l 1
 167 392 l 1
 483 392 l 2
 506 392 518 380 518 358 c 0
 518 336 506 323 483 323 c 2
 167 323 l 1
 167 69 l 1
 504 69 l 2
 526 69 539 56 539 35 c 0
 539 12 526 0 504 0 c 2
EndSplineSet
Validated: 33
EndChar

StartChar: Ecircumflex
Encoding: 202 202 140
Width: 583
GlyphClass: 1
Flags: W
LayerCount: 2
Fore
SplineSet
324 884 m 1
 228 768 l 2
 204 742 165 767 185 795 c 2
 273 918 l 2
 286 938 304 946 324 946 c 0
 344 946 362 938 376 918 c 2
 463 795 l 2
 484 767 444 742 421 768 c 2
 324 884 l 1
504 0 m 2
 132 0 l 2
 103 0 87 16 87 45 c 2
 87 660 l 2
 87 689 103 705 132 705 c 2
 504 705 l 2
 526 705 539 693 539 671 c 0
 539 649 526 636 504 636 c 2
 167 636 l 1
 167 392 l 1
 483 392 l 2
 506 392 518 380 518 358 c 0
 518 336 506 323 483 323 c 2
 167 323 l 1
 167 69 l 1
 504 69 l 2
 526 69 539 56 539 35 c 0
 539 12 526 0 504 0 c 2
EndSplineSet
Validated: 33
EndChar

StartChar: Edieresis
Encoding: 203 203 141
Width: 583
GlyphClass: 1
Flags: W
LayerCount: 2
Fore
SplineSet
412 802 m 0
 382 802 364 819 364 849 c 0
 364 879 382 895 412 895 c 0
 441 895 458 879 458 849 c 0
 458 819 442 802 412 802 c 0
237 802 m 0
 208 802 190 819 190 849 c 0
 190 879 208 895 237 895 c 0
 267 895 284 879 284 849 c 0
 284 819 267 802 237 802 c 0
504 0 m 2
 132 0 l 2
 103 0 87 16 87 45 c 2
 87 660 l 2
 87 689 103 705 132 705 c 2
 504 705 l 2
 526 705 539 693 539 671 c 0
 539 649 526 636 504 636 c 2
 167 636 l 1
 167 392 l 1
 483 392 l 2
 506 392 518 380 518 358 c 0
 518 336 506 323 483 323 c 2
 167 323 l 1
 167 69 l 1
 504 69 l 2
 526 69 539 56 539 35 c 0
 539 12 526 0 504 0 c 2
EndSplineSet
Validated: 1
EndChar

StartChar: Igrave
Encoding: 204 204 142
Width: 257
GlyphClass: 1
Flags: W
LayerCount: 2
Fore
SplineSet
93 769 m 2
 -11 892 l 2
 -41 927 18 970 47 928 c 2
 136 799 l 2
 155 771 116 744 93 769 c 2
128 -7 m 0
 102 -7 87 9 87 36 c 2
 87 669 l 2
 87 697 102 712 128 712 c 0
 154 712 169 697 169 669 c 2
 169 36 l 2
 169 9 155 -7 128 -7 c 0
EndSplineSet
Validated: 33
EndChar

StartChar: Iacute
Encoding: 205 205 143
Width: 257
GlyphClass: 1
Flags: W
LayerCount: 2
Fore
SplineSet
267 892 m 2
 163 769 l 2
 141 744 102 771 120 799 c 2
 209 928 l 2
 238 970 298 927 267 892 c 2
128 -7 m 0
 102 -7 87 9 87 36 c 2
 87 669 l 2
 87 697 102 712 128 712 c 0
 154 712 169 697 169 669 c 2
 169 36 l 2
 169 9 155 -7 128 -7 c 0
EndSplineSet
Validated: 33
EndChar

StartChar: Icircumflex
Encoding: 206 206 144
Width: 257
GlyphClass: 1
Flags: W
LayerCount: 2
Fore
SplineSet
128 884 m 1
 32 768 l 2
 8 742 -31 767 -11 795 c 2
 77 918 l 2
 90 938 108 946 128 946 c 0
 148 946 166 938 180 918 c 2
 267 795 l 2
 288 767 248 742 225 768 c 2
 128 884 l 1
128 -7 m 0
 102 -7 87 9 87 36 c 2
 87 669 l 2
 87 697 102 712 128 712 c 0
 154 712 169 697 169 669 c 2
 169 36 l 2
 169 9 155 -7 128 -7 c 0
EndSplineSet
Validated: 33
EndChar

StartChar: Idieresis
Encoding: 207 207 145
Width: 257
GlyphClass: 1
Flags: W
LayerCount: 2
Fore
SplineSet
216 802 m 0
 186 802 168 819 168 849 c 0
 168 879 186 895 216 895 c 0
 245 895 262 879 262 849 c 0
 262 819 246 802 216 802 c 0
41 802 m 0
 12 802 -6 819 -6 849 c 0
 -6 879 12 895 41 895 c 0
 71 895 88 879 88 849 c 0
 88 819 71 802 41 802 c 0
128 -7 m 0
 102 -7 87 9 87 36 c 2
 87 669 l 2
 87 697 102 712 128 712 c 0
 154 712 169 697 169 669 c 2
 169 36 l 2
 169 9 155 -7 128 -7 c 0
EndSplineSet
Validated: 1
EndChar

StartChar: Eth
Encoding: 208 208 146
Width: 742
GlyphClass: 1
Flags: W
LayerCount: 2
Fore
SplineSet
325 0 m 2
 132 0 l 2
 103 0 87 16 87 45 c 2
 87 326 l 1
 25 326 l 2
 3 326 -8 338 -8 358 c 0
 -8 378 3 390 25 390 c 2
 87 390 l 1
 87 660 l 2
 87 689 103 705 132 705 c 2
 325 705 l 2
 553 705 682 581 682 353 c 0
 682 125 553 0 325 0 c 2
340 326 m 2
 169 326 l 1
 169 70 l 1
 319 70 l 2
 504 70 595 165 595 353 c 0
 595 541 504 635 319 635 c 2
 169 635 l 1
 169 390 l 1
 340 390 l 2
 361 390 373 379 373 358 c 0
 373 338 361 326 340 326 c 2
EndSplineSet
Validated: 1
EndChar

StartChar: Ntilde
Encoding: 209 209 147
Width: 740
GlyphClass: 1
Flags: W
LayerCount: 2
Fore
SplineSet
186 780 m 0
 171 780 161 790 164 808 c 0
 177 878 221 919 281 919 c 0
 353 919 409 843 462 843 c 0
 497 843 520 867 528 905 c 0
 531 919 541 926 553 925 c 0
 568 925 579 914 576 897 c 0
 562 826 519 786 460 786 c 0
 387 786 331 862 278 862 c 0
 243 862 219 837 212 800 c 0
 208 786 199 779 186 780 c 0
126 -7 m 0
 101 -7 87 8 87 34 c 2
 87 670 l 2
 87 697 101 712 123 712 c 0
 143 712 151 705 164 687 c 2
 576 138 l 1
 576 672 l 2
 576 697 590 712 615 712 c 0
 639 712 652 697 652 672 c 2
 652 33 l 2
 652 8 640 -7 619 -7 c 0
 599 -7 589 0 576 18 c 2
 164 568 l 1
 164 34 l 2
 164 8 150 -7 126 -7 c 0
EndSplineSet
Validated: 33
EndChar

StartChar: Ograve
Encoding: 210 210 148
Width: 767
GlyphClass: 1
Flags: W
LayerCount: 2
Fore
SplineSet
348 769 m 2
 244 892 l 2
 214 927 273 970 302 928 c 2
 391 799 l 2
 410 771 371 744 348 769 c 2
383 -9 m 0
 186 -9 61 131 61 353 c 0
 61 575 185 714 383 714 c 0
 582 714 707 575 707 354 c 0
 707 131 581 -9 383 -9 c 0
383 64 m 0
 533 64 620 171 620 353 c 0
 620 536 534 641 383 641 c 0
 234 641 148 535 148 353 c 0
 148 171 234 64 383 64 c 0
EndSplineSet
Validated: 33
EndChar

StartChar: Oacute
Encoding: 211 211 149
Width: 767
GlyphClass: 1
Flags: W
LayerCount: 2
Fore
SplineSet
522 892 m 2
 418 769 l 2
 396 744 357 771 375 799 c 2
 464 928 l 2
 493 970 553 927 522 892 c 2
383 -9 m 0
 186 -9 61 131 61 353 c 0
 61 575 185 714 383 714 c 0
 582 714 707 575 707 354 c 0
 707 131 581 -9 383 -9 c 0
383 64 m 0
 533 64 620 171 620 353 c 0
 620 536 534 641 383 641 c 0
 234 641 148 535 148 353 c 0
 148 171 234 64 383 64 c 0
EndSplineSet
Validated: 33
EndChar

StartChar: Ocircumflex
Encoding: 212 212 150
Width: 767
GlyphClass: 1
Flags: W
LayerCount: 2
Fore
SplineSet
383 884 m 1
 287 768 l 2
 263 742 224 767 244 795 c 2
 332 918 l 2
 345 938 363 946 383 946 c 0
 403 946 421 938 435 918 c 2
 522 795 l 2
 543 767 503 742 480 768 c 2
 383 884 l 1
383 -9 m 0
 186 -9 61 131 61 353 c 0
 61 575 185 714 383 714 c 0
 582 714 707 575 707 354 c 0
 707 131 581 -9 383 -9 c 0
383 64 m 0
 533 64 620 171 620 353 c 0
 620 536 534 641 383 641 c 0
 234 641 148 535 148 353 c 0
 148 171 234 64 383 64 c 0
EndSplineSet
Validated: 33
EndChar

StartChar: Otilde
Encoding: 213 213 151
Width: 767
GlyphClass: 1
Flags: W
LayerCount: 2
Fore
SplineSet
199 780 m 0
 185 780 174 790 177 808 c 0
 191 878 234 919 294 919 c 0
 366 919 422 843 475 843 c 0
 510 843 534 867 541 905 c 0
 545 919 554 926 567 925 c 0
 581 925 592 914 589 897 c 0
 575 826 532 786 473 786 c 0
 400 786 344 862 291 862 c 0
 256 862 232 837 225 800 c 0
 221 786 212 779 199 780 c 0
383 -9 m 0
 186 -9 61 131 61 353 c 0
 61 575 185 714 383 714 c 0
 582 714 707 575 707 354 c 0
 707 131 581 -9 383 -9 c 0
383 64 m 0
 533 64 620 171 620 353 c 0
 620 536 534 641 383 641 c 0
 234 641 148 535 148 353 c 0
 148 171 234 64 383 64 c 0
EndSplineSet
Validated: 33
EndChar

StartChar: Odieresis
Encoding: 214 214 152
Width: 767
GlyphClass: 1
Flags: W
LayerCount: 2
Fore
SplineSet
471 802 m 0
 441 802 423 819 423 849 c 0
 423 879 441 895 471 895 c 0
 500 895 517 879 517 849 c 0
 517 819 500 802 471 802 c 0
296 802 m 0
 267 802 249 819 249 849 c 0
 249 879 267 895 296 895 c 0
 326 895 343 879 343 849 c 0
 343 819 326 802 296 802 c 0
383 -9 m 0
 186 -9 61 131 61 353 c 0
 61 575 185 714 383 714 c 0
 582 714 707 575 707 354 c 0
 707 131 581 -9 383 -9 c 0
383 64 m 0
 533 64 620 171 620 353 c 0
 620 536 534 641 383 641 c 0
 234 641 148 535 148 353 c 0
 148 171 234 64 383 64 c 0
EndSplineSet
Validated: 1
EndChar

StartChar: multiply
Encoding: 215 215 153
Width: 600
GlyphClass: 1
Flags: W
LayerCount: 2
Fore
SplineSet
300 241 m 1
 129 70 l 2
 98 39 54 82 85 113 c 2
 256 284 l 1
 82 458 l 2
 51 490 95 534 126 502 c 2
 300 329 l 1
 473 502 l 2
 504 533 549 489 517 458 c 2
 344 284 l 1
 515 113 l 2
 546 82 502 39 471 70 c 2
 300 241 l 1
EndSplineSet
Validated: 33
EndChar

StartChar: Oslash
Encoding: 216 216 154
Width: 767
GlyphClass: 1
Flags: W
LayerCount: 2
Fore
SplineSet
383 -9 m 0
 326 -9 275 3 231 25 c 1
 201 -26 l 2
 179 -64 121 -32 145 9 c 2
 176 62 l 1
 103 124 61 225 61 353 c 0
 61 575 185 714 383 714 c 0
 441 714 493 702 537 680 c 1
 566 731 l 2
 588 768 646 737 622 696 c 2
 592 644 l 1
 665 582 707 482 707 354 c 0
 707 131 581 -9 383 -9 c 0
148 353 m 0
 148 256 172 181 217 131 c 1
 499 614 l 1
 466 632 427 641 383 641 c 0
 234 641 148 535 148 353 c 0
383 64 m 0
 533 64 620 171 620 353 c 0
 620 450 596 525 550 575 c 1
 268 91 l 1
 301 73 339 64 383 64 c 0
EndSplineSet
Validated: 33
EndChar

StartChar: Ugrave
Encoding: 217 217 155
Width: 728
GlyphClass: 1
Flags: W
LayerCount: 2
Fore
SplineSet
330 769 m 2
 226 892 l 2
 195 927 255 970 284 928 c 2
 373 799 l 2
 392 771 352 744 330 769 c 2
365 -9 m 0
 180 -9 82 91 82 279 c 2
 82 670 l 2
 82 697 97 712 123 712 c 0
 149 712 164 697 164 670 c 2
 164 283 l 2
 164 136 233 64 365 64 c 0
 496 64 564 136 564 283 c 2
 564 670 l 2
 564 697 579 712 606 712 c 0
 631 712 646 697 646 670 c 2
 646 279 l 2
 646 91 549 -9 365 -9 c 0
EndSplineSet
Validated: 33
EndChar

StartChar: Uacute
Encoding: 218 218 156
Width: 728
GlyphClass: 1
Flags: W
LayerCount: 2
Fore
SplineSet
504 892 m 2
 400 769 l 2
 377 744 338 771 357 799 c 2
 446 928 l 2
 475 970 535 927 504 892 c 2
365 -9 m 0
 180 -9 82 91 82 279 c 2
 82 670 l 2
 82 697 97 712 123 712 c 0
 149 712 164 697 164 670 c 2
 164 283 l 2
 164 136 233 64 365 64 c 0
 496 64 564 136 564 283 c 2
 564 670 l 2
 564 697 579 712 606 712 c 0
 631 712 646 697 646 670 c 2
 646 279 l 2
 646 91 549 -9 365 -9 c 0
EndSplineSet
Validated: 33
EndChar

StartChar: Ucircumflex
Encoding: 219 219 157
Width: 728
GlyphClass: 1
Flags: W
LayerCount: 2
Fore
SplineSet
365 884 m 1
 269 768 l 2
 245 742 205 767 226 795 c 2
 313 918 l 2
 327 938 344 946 365 946 c 0
 385 946 402 938 416 918 c 2
 504 795 l 2
 524 767 485 742 461 768 c 2
 365 884 l 1
365 -9 m 0
 180 -9 82 91 82 279 c 2
 82 670 l 2
 82 697 97 712 123 712 c 0
 149 712 164 697 164 670 c 2
 164 283 l 2
 164 136 233 64 365 64 c 0
 496 64 564 136 564 283 c 2
 564 670 l 2
 564 697 579 712 606 712 c 0
 631 712 646 697 646 670 c 2
 646 279 l 2
 646 91 549 -9 365 -9 c 0
EndSplineSet
Validated: 33
EndChar

StartChar: Udieresis
Encoding: 220 220 158
Width: 728
GlyphClass: 1
Flags: W
LayerCount: 2
Fore
SplineSet
452 802 m 0
 422 802 405 819 405 849 c 0
 405 879 422 895 452 895 c 0
 482 895 498 879 498 849 c 0
 498 819 482 802 452 802 c 0
278 802 m 0
 249 802 231 819 231 849 c 0
 231 879 249 895 278 895 c 0
 308 895 325 879 325 849 c 0
 325 819 308 802 278 802 c 0
365 -9 m 0
 180 -9 82 91 82 279 c 2
 82 670 l 2
 82 697 97 712 123 712 c 0
 149 712 164 697 164 670 c 2
 164 283 l 2
 164 136 233 64 365 64 c 0
 496 64 564 136 564 283 c 2
 564 670 l 2
 564 697 579 712 606 712 c 0
 631 712 646 697 646 670 c 2
 646 279 l 2
 646 91 549 -9 365 -9 c 0
EndSplineSet
Validated: 1
EndChar

StartChar: Yacute
Encoding: 221 221 159
Width: 596
GlyphClass: 1
Flags: W
LayerCount: 2
Fore
SplineSet
437 892 m 2
 333 769 l 2
 311 744 271 771 290 799 c 2
 379 928 l 2
 408 970 468 927 437 892 c 2
298 -7 m 0
 272 -7 257 9 257 37 c 2
 257 333 l 1
 24 654 l 2
 5 680 19 712 52 712 c 0
 71 712 84 704 97 685 c 2
 300 405 l 1
 502 685 l 2
 516 704 528 712 547 712 c 0
 579 712 593 683 572 653 c 2
 339 331 l 1
 339 37 l 2
 339 9 325 -7 298 -7 c 0
EndSplineSet
Validated: 33
EndChar

StartChar: Thorn
Encoding: 222 222 160
Width: 634
GlyphClass: 2
Flags: W
AnchorPoint: "Anchor-3" 324 0 basechar 0
AnchorPoint: "Anchor-2" 324 705 basechar 0
LayerCount: 2
Fore
SplineSet
128 -5 m 0
 102 -5 87 11 87 38 c 2
 87 667 l 2
 87 695 103 710 129 710 c 0
 155 710 169 695 169 671 c 2
 169 577 l 1
 367 577 l 2
 518 577 602 501 602 366 c 0
 602 231 518 154 367 154 c 2
 169 154 l 1
 169 38 l 2
 169 11 155 -5 128 -5 c 0
169 509 m 1
 169 222 l 1
 357 222 l 2
 466 222 520 272 520 366 c 0
 520 460 466 509 357 509 c 2
 169 509 l 1
EndSplineSet
Validated: 1048577
EndChar

StartChar: germandbls
Encoding: 223 223 161
Width: 615
GlyphClass: 1
Flags: W
LayerCount: 2
Fore
SplineSet
403 -9 m 0
 346 -9 284 8 238 40 c 0
 200 65 230 120 269 96 c 0
 313 68 364 56 404 56 c 0
 468 56 509 85 509 134 c 0
 509 173 481 195 402 220 c 0
 295 254 258 292 258 356 c 0
 258 397 276 432 336 484 c 0
 378 520 392 546 392 579 c 0
 392 623 360 651 302 651 c 0
 207 651 157 592 157 490 c 2
 157 35 l 2
 157 8 142 -7 116 -7 c 0
 90 -7 76 8 76 35 c 2
 76 480 l 2
 76 628 158 714 301 714 c 0
 407 714 470 664 470 586 c 0
 470 535 450 499 394 451 c 0
 348 411 335 391 335 364 c 0
 335 329 361 306 442 281 c 0
 545 249 585 207 585 136 c 0
 585 49 512 -9 403 -9 c 0
EndSplineSet
Validated: 33
Substitution2: "Single Substitution lookup 39 subtable" germandbls.calt
Substitution2: "Single Substitution lookup 38 subtable" germandbls.calt
Substitution2: "'aalt' Access All Alternates lookup 0 subtable" germandbls.calt
EndChar

StartChar: agrave
Encoding: 224 224 162
Width: 530
GlyphClass: 1
Flags: W
LayerCount: 2
Fore
SplineSet
239 556 m 2
 139 712 l 2
 112 752 178 791 202 745 c 2
 285 582 l 2
 301 551 257 529 239 556 c 2
229 -9 m 0
 129 -9 54 56 54 140 c 0
 54 247 126 282 346 282 c 2
 378 282 l 1
 378 313 l 2
 378 395 346 430 271 430 c 0
 224 430 178 419 127 392 c 0
 81 369 61 434 102 453 c 0
 159 482 219 495 271 495 c 0
 397 495 456 436 456 306 c 2
 456 35 l 2
 456 8 443 -7 419 -7 c 0
 394 -7 380 8 380 35 c 2
 380 85 l 1
 355 27 300 -9 229 -9 c 0
242 52 m 0
 321 52 378 114 378 199 c 2
 378 229 l 1
 347 229 l 2
 184 229 136 209 136 145 c 0
 136 90 176 52 242 52 c 0
EndSplineSet
Validated: 33
Substitution2: "'ss01' Style Set 1 lookup 35 subtable" agrave.ss01
Substitution2: "'salt' Stylistic Alternatives lookup 34 subtable" agrave.ss01
Substitution2: "'aalt' Access All Alternates lookup 0 subtable" agrave.ss01
EndChar

StartChar: aacute
Encoding: 225 225 163
Width: 530
GlyphClass: 1
Flags: W
LayerCount: 2
Fore
SplineSet
405 712 m 2
 304 556 l 2
 287 529 242 551 258 582 c 2
 342 745 l 2
 365 791 432 752 405 712 c 2
229 -9 m 0
 129 -9 54 56 54 140 c 0
 54 247 126 282 346 282 c 2
 378 282 l 1
 378 313 l 2
 378 395 346 430 271 430 c 0
 224 430 178 419 127 392 c 0
 81 369 61 434 102 453 c 0
 159 482 219 495 271 495 c 0
 397 495 456 436 456 306 c 2
 456 35 l 2
 456 8 443 -7 419 -7 c 0
 394 -7 380 8 380 35 c 2
 380 85 l 1
 355 27 300 -9 229 -9 c 0
242 52 m 0
 321 52 378 114 378 199 c 2
 378 229 l 1
 347 229 l 2
 184 229 136 209 136 145 c 0
 136 90 176 52 242 52 c 0
EndSplineSet
Validated: 33
Substitution2: "'ss01' Style Set 1 lookup 35 subtable" aacute.ss01
Substitution2: "'salt' Stylistic Alternatives lookup 34 subtable" aacute.ss01
Substitution2: "'aalt' Access All Alternates lookup 0 subtable" aacute.ss01
EndChar

StartChar: acircumflex
Encoding: 226 226 164
Width: 530
GlyphClass: 1
Flags: W
LayerCount: 2
Fore
SplineSet
321 734 m 2
 404 582 l 2
 420 551 377 529 361 556 c 2
 272 699 l 1
 183 556 l 2
 166 529 123 551 140 582 c 2
 223 734 l 2
 235 756 251 766 272 766 c 0
 293 766 309 756 321 734 c 2
229 -9 m 0
 129 -9 54 56 54 140 c 0
 54 247 126 282 346 282 c 2
 378 282 l 1
 378 313 l 2
 378 395 346 430 271 430 c 0
 224 430 178 419 127 392 c 0
 81 369 61 434 102 453 c 0
 159 482 219 495 271 495 c 0
 397 495 456 436 456 306 c 2
 456 35 l 2
 456 8 443 -7 419 -7 c 0
 394 -7 380 8 380 35 c 2
 380 85 l 1
 355 27 300 -9 229 -9 c 0
242 52 m 0
 321 52 378 114 378 199 c 2
 378 229 l 1
 347 229 l 2
 184 229 136 209 136 145 c 0
 136 90 176 52 242 52 c 0
EndSplineSet
Validated: 33
Substitution2: "'ss01' Style Set 1 lookup 35 subtable" acircumflex.ss01
Substitution2: "'salt' Stylistic Alternatives lookup 34 subtable" acircumflex.ss01
Substitution2: "'aalt' Access All Alternates lookup 0 subtable" acircumflex.ss01
EndChar

StartChar: atilde
Encoding: 227 227 165
Width: 530
GlyphClass: 1
Flags: W
LayerCount: 2
Fore
SplineSet
115 587 m 0
 101 587 91 597 94 615 c 0
 105 677 138 726 199 726 c 0
 263 726 295 650 344 650 c 0
 374 650 395 675 403 714 c 0
 405 726 414 733 428 732 c 0
 442 732 452 723 449 704 c 0
 438 642 405 593 345 593 c 0
 280 593 248 669 200 669 c 0
 169 669 148 645 140 605 c 0
 138 593 129 586 115 587 c 0
229 -9 m 0
 129 -9 54 56 54 140 c 0
 54 247 126 282 346 282 c 2
 378 282 l 1
 378 313 l 2
 378 395 346 430 271 430 c 0
 224 430 178 419 127 392 c 0
 81 369 61 434 102 453 c 0
 159 482 219 495 271 495 c 0
 397 495 456 436 456 306 c 2
 456 35 l 2
 456 8 443 -7 419 -7 c 0
 394 -7 380 8 380 35 c 2
 380 85 l 1
 355 27 300 -9 229 -9 c 0
242 52 m 0
 321 52 378 114 378 199 c 2
 378 229 l 1
 347 229 l 2
 184 229 136 209 136 145 c 0
 136 90 176 52 242 52 c 0
EndSplineSet
Validated: 33
Substitution2: "'ss01' Style Set 1 lookup 35 subtable" atilde.ss01
Substitution2: "'salt' Stylistic Alternatives lookup 34 subtable" atilde.ss01
Substitution2: "'aalt' Access All Alternates lookup 0 subtable" atilde.ss01
EndChar

StartChar: adieresis
Encoding: 228 228 166
Width: 530
GlyphClass: 1
Flags: W
LayerCount: 2
Fore
SplineSet
359 606 m 0
 329 606 312 622 312 652 c 0
 312 682 329 699 359 699 c 0
 389 699 405 682 405 652 c 0
 405 622 389 606 359 606 c 0
185 606 m 0
 156 606 138 622 138 652 c 0
 138 682 156 699 185 699 c 0
 215 699 232 682 232 652 c 0
 232 622 215 606 185 606 c 0
229 -9 m 0
 129 -9 54 56 54 140 c 0
 54 247 126 282 346 282 c 2
 378 282 l 1
 378 313 l 2
 378 395 346 430 271 430 c 0
 224 430 178 419 127 392 c 0
 81 369 61 434 102 453 c 0
 159 482 219 495 271 495 c 0
 397 495 456 436 456 306 c 2
 456 35 l 2
 456 8 443 -7 419 -7 c 0
 394 -7 380 8 380 35 c 2
 380 85 l 1
 355 27 300 -9 229 -9 c 0
242 52 m 0
 321 52 378 114 378 199 c 2
 378 229 l 1
 347 229 l 2
 184 229 136 209 136 145 c 0
 136 90 176 52 242 52 c 0
EndSplineSet
Validated: 33
Substitution2: "'ss01' Style Set 1 lookup 35 subtable" adieresis.ss01
Substitution2: "'salt' Stylistic Alternatives lookup 34 subtable" adieresis.ss01
Substitution2: "'aalt' Access All Alternates lookup 0 subtable" adieresis.ss01
EndChar

StartChar: aring
Encoding: 229 229 167
Width: 530
GlyphClass: 1
Flags: W
LayerCount: 2
Fore
SplineSet
272 547 m 0
 205 547 153 598 153 663 c 0
 153 727 205 778 272 778 c 0
 338 778 390 727 390 663 c 0
 390 598 338 547 272 547 c 0
272 590 m 0
 314 590 343 621 343 663 c 0
 343 703 314 735 272 735 c 0
 230 735 200 703 200 663 c 0
 200 621 230 590 272 590 c 0
229 -9 m 0
 129 -9 54 56 54 140 c 0
 54 247 126 282 346 282 c 2
 378 282 l 1
 378 313 l 2
 378 395 346 430 271 430 c 0
 224 430 178 419 127 392 c 0
 81 369 61 434 102 453 c 0
 159 482 219 495 271 495 c 0
 397 495 456 436 456 306 c 2
 456 35 l 2
 456 8 443 -7 419 -7 c 0
 394 -7 380 8 380 35 c 2
 380 85 l 1
 355 27 300 -9 229 -9 c 0
242 52 m 0
 321 52 378 114 378 199 c 2
 378 229 l 1
 347 229 l 2
 184 229 136 209 136 145 c 0
 136 90 176 52 242 52 c 0
EndSplineSet
Validated: 33
Substitution2: "'ss01' Style Set 1 lookup 35 subtable" aring.ss01
Substitution2: "'salt' Stylistic Alternatives lookup 34 subtable" aring.ss01
Substitution2: "'aalt' Access All Alternates lookup 0 subtable" aring.ss01
EndChar

StartChar: ae
Encoding: 230 230 168
Width: 861
GlyphClass: 2
Flags: W
AnchorPoint: "Anchor-3" 416 0 basechar 0
AnchorPoint: "Anchor-2" 416 484 basechar 0
LayerCount: 2
Fore
SplineSet
234 -9 m 0
 129 -9 54 56 54 140 c 0
 54 247 128 282 347 282 c 2
 381 282 l 1
 381 312 l 2
 381 395 347 430 272 430 c 0
 225 430 179 419 127 392 c 0
 82 369 62 434 103 453 c 0
 160 482 220 495 273 495 c 0
 358 495 411 464 436 402 c 1
 473 463 539 495 613 496 c 0
 740 496 819 406 819 258 c 2
 819 255 l 2
 819 237 807 228 785 228 c 2
 460 228 l 1
 466 116 523 56 626 56 c 0
 666 56 716 67 758 95 c 0
 803 124 834 69 792 41 c 0
 747 9 685 -9 627 -9 c 0
 526 -9 450 32 415 113 c 1
 388 37 323 -9 234 -9 c 0
612 435 m 0
 526 435 471 377 461 282 c 1
 750 282 l 1
 746 377 698 435 612 435 c 0
244 52 m 0
 326 52 381 115 381 204 c 2
 381 228 l 1
 347 228 l 2
 184 228 136 210 136 145 c 0
 136 90 176 52 244 52 c 0
EndSplineSet
Validated: 1048609
EndChar

StartChar: ccedilla
Encoding: 231 231 169
Width: 463
GlyphClass: 1
Flags: W
LayerCount: 2
Fore
SplineSet
281 -192 m 0
 257 -192 229 -189 209 -180 c 0
 178 -168 191 -123 223 -136 c 0
 239 -143 257 -145 279 -145 c 0
 314 -145 337 -132 337 -108 c 0
 337 -91 325 -80 299 -80 c 0
 288 -80 279 -81 266 -84 c 0
 255 -88 249 -89 242 -84 c 0
 237 -79 236 -72 238 -59 c 2
 246 -7 l 1
 121 9 46 105 46 246 c 0
 46 400 136 495 282 495 c 0
 330 495 385 481 428 446 c 0
 462 422 430 367 392 393 c 0
 357 420 320 429 287 429 c 0
 185 429 129 363 129 245 c 0
 129 128 185 57 287 57 c 0
 320 57 356 66 392 93 c 0
 431 119 459 63 426 40 c 0
 388 8 340 -6 296 -9 c 1
 290 -44 l 1
 297 -43 303 -42 309 -42 c 0
 358 -42 393 -67 393 -110 c 0
 393 -159 348 -192 281 -192 c 0
EndSplineSet
Validated: 33
EndChar

StartChar: egrave
Encoding: 232 232 170
Width: 532
GlyphClass: 1
Flags: W
LayerCount: 2
Fore
SplineSet
248 556 m 2
 147 712 l 2
 120 752 187 791 210 745 c 2
 294 582 l 2
 310 551 266 529 248 556 c 2
295 -9 m 0
 141 -9 46 87 46 242 c 0
 46 393 142 495 280 495 c 0
 411 495 491 405 491 257 c 0
 491 236 479 226 456 226 c 2
 124 226 l 1
 130 115 191 56 295 56 c 0
 339 56 386 66 428 95 c 0
 474 124 504 69 462 41 c 0
 418 9 353 -9 295 -9 c 0
282 435 m 0
 189 435 135 372 125 279 c 1
 421 279 l 1
 417 377 369 435 282 435 c 0
EndSplineSet
Validated: 33
EndChar

StartChar: eacute
Encoding: 233 233 171
Width: 532
GlyphClass: 1
Flags: W
LayerCount: 2
Fore
SplineSet
414 712 m 2
 313 556 l 2
 295 529 251 551 267 582 c 2
 351 745 l 2
 374 791 441 752 414 712 c 2
295 -9 m 0
 141 -9 46 87 46 242 c 0
 46 393 142 495 280 495 c 0
 411 495 491 405 491 257 c 0
 491 236 479 226 456 226 c 2
 124 226 l 1
 130 115 191 56 295 56 c 0
 339 56 386 66 428 95 c 0
 474 124 504 69 462 41 c 0
 418 9 353 -9 295 -9 c 0
282 435 m 0
 189 435 135 372 125 279 c 1
 421 279 l 1
 417 377 369 435 282 435 c 0
EndSplineSet
Validated: 33
EndChar

StartChar: ecircumflex
Encoding: 234 234 172
Width: 532
GlyphClass: 1
Flags: W
LayerCount: 2
Fore
SplineSet
330 734 m 2
 412 582 l 2
 429 551 386 529 369 556 c 2
 280 699 l 1
 191 556 l 2
 175 529 132 551 148 582 c 2
 231 734 l 2
 243 756 259 766 280 766 c 0
 301 766 318 756 330 734 c 2
295 -9 m 0
 141 -9 46 87 46 242 c 0
 46 393 142 495 280 495 c 0
 411 495 491 405 491 257 c 0
 491 236 479 226 456 226 c 2
 124 226 l 1
 130 115 191 56 295 56 c 0
 339 56 386 66 428 95 c 0
 474 124 504 69 462 41 c 0
 418 9 353 -9 295 -9 c 0
282 435 m 0
 189 435 135 372 125 279 c 1
 421 279 l 1
 417 377 369 435 282 435 c 0
EndSplineSet
Validated: 33
EndChar

StartChar: edieresis
Encoding: 235 235 173
Width: 532
GlyphClass: 1
Flags: W
LayerCount: 2
Fore
SplineSet
368 606 m 0
 338 606 321 622 321 652 c 0
 321 682 338 699 368 699 c 0
 397 699 414 682 414 652 c 0
 414 622 398 606 368 606 c 0
194 606 m 0
 164 606 147 622 147 652 c 0
 147 682 164 699 194 699 c 0
 224 699 240 682 240 652 c 0
 240 622 224 606 194 606 c 0
295 -9 m 0
 141 -9 46 87 46 242 c 0
 46 393 142 495 280 495 c 0
 411 495 491 405 491 257 c 0
 491 236 479 226 456 226 c 2
 124 226 l 1
 130 115 191 56 295 56 c 0
 339 56 386 66 428 95 c 0
 474 124 504 69 462 41 c 0
 418 9 353 -9 295 -9 c 0
282 435 m 0
 189 435 135 372 125 279 c 1
 421 279 l 1
 417 377 369 435 282 435 c 0
EndSplineSet
Validated: 33
EndChar

StartChar: igrave
Encoding: 236 236 174
Width: 232
GlyphClass: 1
Flags: W
LayerCount: 2
Fore
SplineSet
84 556 m 2
 -17 712 l 2
 -44 752 22 791 46 745 c 2
 130 582 l 2
 146 551 101 529 84 556 c 2
116 -5 m 0
 90 -5 76 11 76 39 c 2
 76 448 l 2
 76 476 90 491 116 491 c 0
 142 491 157 476 157 448 c 2
 157 39 l 2
 157 11 143 -5 116 -5 c 0
EndSplineSet
Validated: 33
EndChar

StartChar: iacute
Encoding: 237 237 175
Width: 232
GlyphClass: 1
Flags: W
LayerCount: 2
Fore
SplineSet
249 712 m 2
 149 556 l 2
 131 529 87 551 102 582 c 2
 186 745 l 2
 209 791 276 752 249 712 c 2
116 -5 m 0
 90 -5 76 11 76 39 c 2
 76 448 l 2
 76 476 90 491 116 491 c 0
 142 491 157 476 157 448 c 2
 157 39 l 2
 157 11 143 -5 116 -5 c 0
EndSplineSet
Validated: 33
EndChar

StartChar: icircumflex
Encoding: 238 238 176
Width: 232
GlyphClass: 1
Flags: W
LayerCount: 2
Fore
SplineSet
165 734 m 2
 248 582 l 2
 264 551 221 529 205 556 c 2
 116 699 l 1
 27 556 l 2
 10 529 -33 551 -16 582 c 2
 67 734 l 2
 79 756 95 766 116 766 c 0
 137 766 153 756 165 734 c 2
116 -5 m 0
 90 -5 76 11 76 39 c 2
 76 448 l 2
 76 476 90 491 116 491 c 0
 142 491 157 476 157 448 c 2
 157 39 l 2
 157 11 143 -5 116 -5 c 0
EndSplineSet
Validated: 33
EndChar

StartChar: idieresis
Encoding: 239 239 177
Width: 232
GlyphClass: 1
Flags: W
LayerCount: 2
Fore
SplineSet
203 606 m 0
 174 606 156 622 156 652 c 0
 156 682 174 699 203 699 c 0
 233 699 250 682 250 652 c 0
 250 622 233 606 203 606 c 0
29 606 m 0
 0 606 -18 622 -18 652 c 0
 -18 682 0 699 29 699 c 0
 59 699 76 682 76 652 c 0
 76 622 59 606 29 606 c 0
116 -5 m 0
 90 -5 76 11 76 39 c 2
 76 448 l 2
 76 476 90 491 116 491 c 0
 142 491 157 476 157 448 c 2
 157 39 l 2
 157 11 143 -5 116 -5 c 0
EndSplineSet
Validated: 1
EndChar

StartChar: eth
Encoding: 240 240 178
Width: 560
GlyphClass: 1
Flags: W
LayerCount: 2
Fore
SplineSet
276 -9 m 0
 138 -9 46 83 46 223 c 0
 46 360 137 452 272 452 c 0
 342 452 397 427 430 374 c 1
 414 466 366 539 297 587 c 1
 159 527 l 2
 117 509 92 560 137 579 c 2
 237 622 l 1
 215 633 190 642 165 650 c 0
 119 664 133 719 181 706 c 0
 229 693 270 676 308 654 c 1
 420 703 l 2
 461 721 487 671 444 652 c 2
 363 616 l 1
 461 539 514 426 514 284 c 0
 514 95 430 -9 276 -9 c 0
277 57 m 0
 370 57 427 120 427 223 c 0
 427 324 371 387 277 387 c 0
 185 387 128 324 128 223 c 0
 128 118 183 57 277 57 c 0
EndSplineSet
Validated: 33
EndChar

StartChar: ntilde
Encoding: 241 241 179
Width: 568
GlyphClass: 1
Flags: W
LayerCount: 2
Fore
SplineSet
128 587 m 0
 114 587 104 597 108 615 c 0
 118 677 152 726 212 726 c 0
 276 726 308 650 357 650 c 0
 387 650 409 675 416 714 c 0
 419 726 428 733 442 732 c 0
 456 732 466 723 462 704 c 0
 451 642 418 593 358 593 c 0
 294 593 261 669 213 669 c 0
 183 669 161 645 154 605 c 0
 151 593 142 586 128 587 c 0
116 -7 m 0
 90 -7 76 8 76 35 c 2
 76 452 l 2
 76 479 90 493 115 493 c 0
 141 493 155 479 155 452 c 2
 155 403 l 1
 187 464 249 495 322 495 c 0
 438 495 495 433 495 303 c 2
 495 35 l 2
 495 8 480 -7 455 -7 c 0
 429 -7 414 8 414 35 c 2
 414 298 l 2
 414 388 380 429 303 429 c 0
 214 429 157 368 157 277 c 2
 157 35 l 2
 157 8 143 -7 116 -7 c 0
EndSplineSet
Validated: 33
EndChar

StartChar: ograve
Encoding: 242 242 180
Width: 556
GlyphClass: 1
Flags: W
LayerCount: 2
Fore
SplineSet
246 556 m 2
 145 712 l 2
 118 752 185 791 208 745 c 2
 292 582 l 2
 308 551 263 529 246 556 c 2
278 -9 m 0
 137 -9 46 89 46 243 c 0
 46 397 137 495 278 495 c 0
 419 495 510 397 510 243 c 0
 510 89 419 -9 278 -9 c 0
278 56 m 0
 369 56 428 123 428 243 c 0
 428 364 369 430 278 430 c 0
 186 430 128 364 128 243 c 0
 128 123 186 56 278 56 c 0
EndSplineSet
Validated: 33
EndChar

StartChar: oacute
Encoding: 243 243 181
Width: 556
GlyphClass: 1
Flags: W
LayerCount: 2
Fore
SplineSet
411 712 m 2
 311 556 l 2
 293 529 249 551 264 582 c 2
 348 745 l 2
 371 791 438 752 411 712 c 2
278 -9 m 0
 137 -9 46 89 46 243 c 0
 46 397 137 495 278 495 c 0
 419 495 510 397 510 243 c 0
 510 89 419 -9 278 -9 c 0
278 56 m 0
 369 56 428 123 428 243 c 0
 428 364 369 430 278 430 c 0
 186 430 128 364 128 243 c 0
 128 123 186 56 278 56 c 0
EndSplineSet
Validated: 33
EndChar

StartChar: ocircumflex
Encoding: 244 244 182
Width: 556
GlyphClass: 1
Flags: W
LayerCount: 2
Fore
SplineSet
327 734 m 2
 410 582 l 2
 426 551 383 529 367 556 c 2
 278 699 l 1
 189 556 l 2
 172 529 129 551 146 582 c 2
 229 734 l 2
 241 756 257 766 278 766 c 0
 299 766 315 756 327 734 c 2
278 -9 m 0
 137 -9 46 89 46 243 c 0
 46 397 137 495 278 495 c 0
 419 495 510 397 510 243 c 0
 510 89 419 -9 278 -9 c 0
278 56 m 0
 369 56 428 123 428 243 c 0
 428 364 369 430 278 430 c 0
 186 430 128 364 128 243 c 0
 128 123 186 56 278 56 c 0
EndSplineSet
Validated: 33
EndChar

StartChar: otilde
Encoding: 245 245 183
Width: 556
GlyphClass: 1
Flags: W
LayerCount: 2
Fore
SplineSet
121 587 m 0
 107 587 97 597 101 615 c 0
 111 677 145 726 205 726 c 0
 269 726 301 650 350 650 c 0
 380 650 402 675 409 714 c 0
 412 726 420 733 435 732 c 0
 449 732 459 723 455 704 c 0
 444 642 411 593 351 593 c 0
 286 593 254 669 206 669 c 0
 176 669 154 645 147 605 c 0
 144 593 135 586 121 587 c 0
278 -9 m 0
 137 -9 46 89 46 243 c 0
 46 397 137 495 278 495 c 0
 419 495 510 397 510 243 c 0
 510 89 419 -9 278 -9 c 0
278 56 m 0
 369 56 428 123 428 243 c 0
 428 364 369 430 278 430 c 0
 186 430 128 364 128 243 c 0
 128 123 186 56 278 56 c 0
EndSplineSet
Validated: 33
EndChar

StartChar: odieresis
Encoding: 246 246 184
Width: 556
GlyphClass: 1
Flags: W
LayerCount: 2
Fore
SplineSet
366 606 m 0
 336 606 318 622 318 652 c 0
 318 682 336 699 366 699 c 0
 395 699 412 682 412 652 c 0
 412 622 395 606 366 606 c 0
191 606 m 0
 162 606 144 622 144 652 c 0
 144 682 162 699 191 699 c 0
 221 699 238 682 238 652 c 0
 238 622 221 606 191 606 c 0
278 -9 m 0
 137 -9 46 89 46 243 c 0
 46 397 137 495 278 495 c 0
 419 495 510 397 510 243 c 0
 510 89 419 -9 278 -9 c 0
278 56 m 0
 369 56 428 123 428 243 c 0
 428 364 369 430 278 430 c 0
 186 430 128 364 128 243 c 0
 128 123 186 56 278 56 c 0
EndSplineSet
Validated: 1
EndChar

StartChar: divide
Encoding: 247 247 185
Width: 600
GlyphClass: 1
Flags: W
LayerCount: 2
Fore
SplineSet
294 441 m 0
 266 441 250 457 250 486 c 0
 250 514 266 530 294 530 c 0
 322 530 338 514 338 486 c 0
 338 457 323 441 294 441 c 0
519 256 m 2
 81 256 l 2
 61 256 49 267 49 287 c 0
 49 307 61 318 81 318 c 2
 519 318 l 2
 539 318 551 307 551 287 c 0
 551 267 539 256 519 256 c 2
294 43 m 0
 266 43 250 60 250 88 c 0
 250 116 266 132 294 132 c 0
 322 132 338 116 338 88 c 0
 338 60 323 43 294 43 c 0
EndSplineSet
Validated: 1
EndChar

StartChar: oslash
Encoding: 248 248 186
Width: 556
GlyphClass: 2
Flags: W
AnchorPoint: "Anchor-2" 277 484 basechar 0
LayerCount: 2
Fore
SplineSet
278 -9 m 0
 240 -9 206 -2 176 11 c 1
 152 -30 l 2
 132 -63 84 -36 105 1 c 2
 128 41 l 1
 76 85 46 155 46 243 c 0
 46 397 137 495 278 495 c 0
 316 495 350 488 380 475 c 1
 404 517 l 2
 424 549 472 521 452 486 c 2
 428 445 l 1
 480 401 510 331 510 243 c 0
 510 89 419 -9 278 -9 c 0
128 243 m 0
 128 185 142 139 166 107 c 1
 345 415 l 1
 326 425 303 430 278 430 c 0
 186 430 128 364 128 243 c 0
278 56 m 0
 369 56 428 123 428 243 c 0
 428 302 414 347 390 379 c 1
 211 71 l 1
 230 61 253 56 278 56 c 0
EndSplineSet
Validated: 1048609
EndChar

StartChar: ugrave
Encoding: 249 249 187
Width: 561
GlyphClass: 1
Flags: W
LayerCount: 2
Fore
SplineSet
248 557 m 2
 148 713 l 2
 121 753 187 792 211 746 c 2
 294 583 l 2
 310 552 266 530 248 557 c 2
248 -9 m 0
 130 -9 73 57 73 184 c 2
 73 452 l 2
 73 479 88 493 113 493 c 0
 139 493 154 479 154 452 c 2
 154 185 l 2
 154 99 188 58 264 58 c 0
 347 58 404 118 404 210 c 2
 404 452 l 2
 404 479 419 493 445 493 c 0
 470 493 485 479 485 452 c 2
 485 35 l 2
 485 8 472 -7 446 -7 c 0
 421 -7 406 8 406 35 c 2
 406 82 l 1
 375 23 318 -9 248 -9 c 0
EndSplineSet
Validated: 33
EndChar

StartChar: uacute
Encoding: 250 250 188
Width: 561
GlyphClass: 1
Flags: W
LayerCount: 2
Fore
SplineSet
414 713 m 2
 313 557 l 2
 296 530 251 552 267 583 c 2
 351 746 l 2
 374 792 441 753 414 713 c 2
248 -9 m 0
 130 -9 73 57 73 184 c 2
 73 452 l 2
 73 479 88 493 113 493 c 0
 139 493 154 479 154 452 c 2
 154 185 l 2
 154 99 188 58 264 58 c 0
 347 58 404 118 404 210 c 2
 404 452 l 2
 404 479 419 493 445 493 c 0
 470 493 485 479 485 452 c 2
 485 35 l 2
 485 8 472 -7 446 -7 c 0
 421 -7 406 8 406 35 c 2
 406 82 l 1
 375 23 318 -9 248 -9 c 0
EndSplineSet
Validated: 33
EndChar

StartChar: ucircumflex
Encoding: 251 251 189
Width: 561
GlyphClass: 1
Flags: W
LayerCount: 2
Fore
SplineSet
330 735 m 2
 412 583 l 2
 429 552 386 530 369 557 c 2
 281 700 l 1
 192 557 l 2
 175 530 132 552 149 583 c 2
 232 735 l 2
 243 757 260 767 281 767 c 0
 301 767 318 757 330 735 c 2
248 -9 m 0
 130 -9 73 57 73 184 c 2
 73 452 l 2
 73 479 88 493 113 493 c 0
 139 493 154 479 154 452 c 2
 154 185 l 2
 154 99 188 58 264 58 c 0
 347 58 404 118 404 210 c 2
 404 452 l 2
 404 479 419 493 445 493 c 0
 470 493 485 479 485 452 c 2
 485 35 l 2
 485 8 472 -7 446 -7 c 0
 421 -7 406 8 406 35 c 2
 406 82 l 1
 375 23 318 -9 248 -9 c 0
EndSplineSet
Validated: 33
EndChar

StartChar: udieresis
Encoding: 252 252 190
Width: 561
GlyphClass: 1
Flags: W
LayerCount: 2
Fore
SplineSet
368 607 m 0
 338 607 321 623 321 653 c 0
 321 683 338 700 368 700 c 0
 398 700 414 683 414 653 c 0
 414 623 398 607 368 607 c 0
194 607 m 0
 164 607 147 623 147 653 c 0
 147 683 164 700 194 700 c 0
 224 700 241 683 241 653 c 0
 241 623 224 607 194 607 c 0
248 -9 m 0
 130 -9 73 57 73 184 c 2
 73 452 l 2
 73 479 88 493 113 493 c 0
 139 493 154 479 154 452 c 2
 154 185 l 2
 154 99 188 58 264 58 c 0
 347 58 404 118 404 210 c 2
 404 452 l 2
 404 479 419 493 445 493 c 0
 470 493 485 479 485 452 c 2
 485 35 l 2
 485 8 472 -7 446 -7 c 0
 421 -7 406 8 406 35 c 2
 406 82 l 1
 375 23 318 -9 248 -9 c 0
EndSplineSet
Validated: 1
EndChar

StartChar: yacute
Encoding: 253 253 191
Width: 514
GlyphClass: 1
Flags: W
LayerCount: 2
Fore
SplineSet
391 712 m 2
 290 556 l 2
 273 529 228 551 244 582 c 2
 328 745 l 2
 351 791 418 752 391 712 c 2
184 -187 m 0
 153 -187 141 -160 154 -130 c 2
 215 8 l 1
 31 436 l 2
 18 466 31 493 67 493 c 0
 87 493 98 484 108 461 c 2
 259 92 l 1
 411 461 l 2
 421 485 432 493 454 493 c 0
 485 493 496 466 484 437 c 2
 228 -155 l 2
 217 -179 206 -187 184 -187 c 0
EndSplineSet
Validated: 33
EndChar

StartChar: thorn
Encoding: 254 254 192
Width: 583
GlyphClass: 2
Flags: W
AnchorPoint: "Anchor-3" 290 0 basechar 0
AnchorPoint: "Anchor-2" 290 484 basechar 0
LayerCount: 2
Fore
SplineSet
116 -187 m 0
 90 -187 76 -172 76 -146 c 2
 76 671 l 2
 76 697 91 712 116 712 c 0
 142 712 157 697 157 671 c 2
 157 402 l 1
 186 460 247 495 322 495 c 0
 452 495 537 398 537 243 c 0
 537 89 453 -9 322 -9 c 0
 247 -9 187 26 157 84 c 1
 157 -146 l 2
 157 -172 142 -187 116 -187 c 0
305 56 m 0
 396 56 455 123 455 243 c 0
 455 364 396 430 305 430 c 0
 214 430 155 364 155 243 c 0
 155 123 214 56 305 56 c 0
EndSplineSet
Validated: 1048577
EndChar

StartChar: ydieresis
Encoding: 255 255 193
Width: 514
GlyphClass: 1
Flags: W
LayerCount: 2
Fore
SplineSet
345 606 m 0
 315 606 298 622 298 652 c 0
 298 682 315 699 345 699 c 0
 375 699 391 682 391 652 c 0
 391 622 375 606 345 606 c 0
171 606 m 0
 142 606 124 622 124 652 c 0
 124 682 142 699 171 699 c 0
 201 699 218 682 218 652 c 0
 218 622 201 606 171 606 c 0
184 -187 m 0
 153 -187 141 -160 154 -130 c 2
 215 8 l 1
 31 436 l 2
 18 466 31 493 67 493 c 0
 87 493 98 484 108 461 c 2
 259 92 l 1
 411 461 l 2
 421 485 432 493 454 493 c 0
 485 493 496 466 484 437 c 2
 228 -155 l 2
 217 -179 206 -187 184 -187 c 0
EndSplineSet
Validated: 33
EndChar

StartChar: Amacron
Encoding: 256 256 194
Width: 729
GlyphClass: 1
Flags: W
LayerCount: 2
Fore
SplineSet
502 814 m 2
 230 814 l 2
 211 814 201 825 201 842 c 0
 201 860 211 869 230 869 c 2
 502 869 l 2
 521 869 532 860 532 842 c 0
 532 825 521 814 502 814 c 2
72 -7 m 0
 40 -7 27 17 41 49 c 2
 316 675 l 2
 328 701 345 712 365 712 c 0
 385 712 402 701 413 675 c 2
 689 49 l 2
 703 17 691 -7 660 -7 c 0
 636 -7 623 6 613 30 c 2
 548 180 l 1
 181 180 l 1
 117 30 l 2
 105 4 93 -7 72 -7 c 0
366 609 m 1
 364 609 l 1
 211 249 l 1
 519 249 l 1
 366 609 l 1
EndSplineSet
Validated: 33
EndChar

StartChar: amacron
Encoding: 257 257 195
Width: 530
GlyphClass: 1
Flags: W
LayerCount: 2
Fore
SplineSet
393 625 m 2
 151 625 l 2
 132 625 121 635 121 652 c 0
 121 670 132 680 151 680 c 2
 393 680 l 2
 412 680 422 670 422 652 c 0
 422 635 412 625 393 625 c 2
229 -9 m 0
 129 -9 54 56 54 140 c 0
 54 247 126 282 346 282 c 2
 378 282 l 1
 378 313 l 2
 378 395 346 430 271 430 c 0
 224 430 178 419 127 392 c 0
 81 369 61 434 102 453 c 0
 159 482 219 495 271 495 c 0
 397 495 456 436 456 306 c 2
 456 35 l 2
 456 8 443 -7 419 -7 c 0
 394 -7 380 8 380 35 c 2
 380 85 l 1
 355 27 300 -9 229 -9 c 0
242 52 m 0
 321 52 378 114 378 199 c 2
 378 229 l 1
 347 229 l 2
 184 229 136 209 136 145 c 0
 136 90 176 52 242 52 c 0
EndSplineSet
Validated: 33
Substitution2: "'ss01' Style Set 1 lookup 35 subtable" amacron.ss01
Substitution2: "'salt' Stylistic Alternatives lookup 34 subtable" amacron.ss01
Substitution2: "'aalt' Access All Alternates lookup 0 subtable" amacron.ss01
EndChar

StartChar: Abreve
Encoding: 258 258 196
Width: 729
GlyphClass: 1
Flags: W
LayerCount: 2
Fore
SplineSet
366 760 m 0
 287 760 220 806 200 904 c 0
 196 923 208 935 222 936 c 0
 239 938 249 927 251 914 c 0
 265 841 315 814 366 814 c 0
 417 814 467 841 481 914 c 0
 483 927 493 938 510 936 c 0
 524 935 536 923 532 904 c 0
 511 806 445 760 366 760 c 0
72 -7 m 0
 40 -7 27 17 41 49 c 2
 316 675 l 2
 328 701 345 712 365 712 c 0
 385 712 402 701 413 675 c 2
 689 49 l 2
 703 17 691 -7 660 -7 c 0
 636 -7 623 6 613 30 c 2
 548 180 l 1
 181 180 l 1
 117 30 l 2
 105 4 93 -7 72 -7 c 0
366 609 m 1
 364 609 l 1
 211 249 l 1
 519 249 l 1
 366 609 l 1
EndSplineSet
Validated: 33
EndChar

StartChar: abreve
Encoding: 259 259 197
Width: 530
GlyphClass: 1
Flags: W
LayerCount: 2
Fore
SplineSet
272 549 m 0
 186 549 132 613 119 714 c 0
 117 733 128 746 143 746 c 0
 158 747 169 738 171 720 c 0
 180 643 218 604 272 604 c 0
 325 604 364 643 372 720 c 0
 375 738 385 747 400 746 c 0
 415 746 426 733 424 714 c 0
 413 613 357 549 272 549 c 0
229 -9 m 0
 129 -9 54 56 54 140 c 0
 54 247 126 282 346 282 c 2
 378 282 l 1
 378 313 l 2
 378 395 346 430 271 430 c 0
 224 430 178 419 127 392 c 0
 81 369 61 434 102 453 c 0
 159 482 219 495 271 495 c 0
 397 495 456 436 456 306 c 2
 456 35 l 2
 456 8 443 -7 419 -7 c 0
 394 -7 380 8 380 35 c 2
 380 85 l 1
 355 27 300 -9 229 -9 c 0
242 52 m 0
 321 52 378 114 378 199 c 2
 378 229 l 1
 347 229 l 2
 184 229 136 209 136 145 c 0
 136 90 176 52 242 52 c 0
EndSplineSet
Validated: 33
Substitution2: "'ss01' Style Set 1 lookup 35 subtable" abreve.ss01
Substitution2: "'salt' Stylistic Alternatives lookup 34 subtable" abreve.ss01
Substitution2: "'aalt' Access All Alternates lookup 0 subtable" abreve.ss01
EndChar

StartChar: Aogonek
Encoding: 260 260 198
Width: 729
GlyphClass: 1
Flags: W
LayerCount: 2
Fore
SplineSet
673 -192 m 0
 610 -192 568 -154 568 -95 c 0
 568 -54 589 -16 623 12 c 1
 619 17 616 23 613 30 c 2
 548 180 l 1
 181 180 l 1
 117 30 l 2
 105 4 93 -7 72 -7 c 0
 40 -7 26 17 40 49 c 2
 316 675 l 2
 328 701 345 712 365 712 c 0
 385 712 402 701 413 675 c 2
 689 49 l 2
 699 26 697 6 681 -2 c 0
 659 -14 626 -45 626 -86 c 0
 626 -124 652 -142 684 -142 c 0
 696 -142 707 -140 719 -136 c 0
 756 -125 760 -173 732 -183 c 0
 712 -191 692 -192 673 -192 c 0
366 609 m 1
 364 609 l 1
 211 249 l 1
 519 249 l 1
 366 609 l 1
EndSplineSet
Validated: 33
EndChar

StartChar: aogonek
Encoding: 261 261 199
Width: 530
GlyphClass: 1
Flags: W
LayerCount: 2
Fore
SplineSet
421 -192 m 0
 357 -192 316 -154 316 -95 c 0
 316 -52 340 -10 382 19 c 1
 381 24 380 29 380 36 c 2
 380 85 l 1
 355 27 300 -9 229 -9 c 0
 129 -9 54 56 54 140 c 0
 54 247 126 282 346 282 c 2
 378 282 l 1
 378 313 l 2
 378 395 346 430 271 430 c 0
 224 430 178 419 127 392 c 0
 81 369 61 434 102 453 c 0
 159 482 219 495 271 495 c 0
 397 495 456 436 456 306 c 2
 456 35 l 2
 456 12 447 0 431 -6 c 0
 401 -22 374 -49 374 -86 c 0
 374 -124 399 -142 432 -142 c 0
 444 -142 455 -140 466 -136 c 0
 503 -125 508 -173 480 -183 c 0
 460 -191 440 -192 421 -192 c 0
242 52 m 0
 321 52 378 114 378 199 c 2
 378 229 l 1
 347 229 l 2
 184 229 136 209 136 145 c 0
 136 90 176 52 242 52 c 0
EndSplineSet
Validated: 33
Substitution2: "'ss01' Style Set 1 lookup 35 subtable" aogonek.ss01
Substitution2: "'salt' Stylistic Alternatives lookup 34 subtable" aogonek.ss01
Substitution2: "'aalt' Access All Alternates lookup 0 subtable" aogonek.ss01
EndChar

StartChar: Cacute
Encoding: 262 262 200
Width: 673
GlyphClass: 1
Flags: W
LayerCount: 2
Fore
SplineSet
526 892 m 2
 422 769 l 2
 400 744 361 771 379 799 c 2
 468 928 l 2
 497 970 557 927 526 892 c 2
392 -9 m 0
 184 -9 61 130 61 353 c 0
 61 575 184 714 392 714 c 0
 475 714 552 689 607 645 c 0
 652 612 614 548 566 582 c 0
 518 621 460 639 394 639 c 0
 235 639 149 535 149 353 c 0
 149 171 235 66 394 66 c 0
 460 66 518 85 568 124 c 0
 615 157 651 95 611 64 c 0
 554 16 477 -9 392 -9 c 0
EndSplineSet
Validated: 33
EndChar

StartChar: cacute
Encoding: 263 263 201
Width: 463
GlyphClass: 1
Flags: W
LayerCount: 2
Fore
SplineSet
412 712 m 2
 311 556 l 2
 293 529 249 551 265 582 c 2
 348 745 l 2
 372 791 438 752 412 712 c 2
282 -9 m 0
 136 -9 46 92 46 246 c 0
 46 400 136 495 282 495 c 0
 330 495 385 481 428 446 c 0
 462 422 430 367 392 393 c 0
 357 420 320 429 287 429 c 0
 185 429 129 363 129 245 c 0
 129 128 185 57 287 57 c 0
 320 57 356 66 392 93 c 0
 431 119 459 63 426 40 c 0
 384 5 330 -9 282 -9 c 0
EndSplineSet
Validated: 33
EndChar

StartChar: Ccircumflex
Encoding: 264 264 202
Width: 673
GlyphClass: 1
Flags: W
LayerCount: 2
Fore
SplineSet
387 884 m 1
 291 768 l 2
 267 742 228 767 248 795 c 2
 336 918 l 2
 349 938 367 946 387 946 c 0
 407 946 425 938 439 918 c 2
 526 795 l 2
 547 767 507 742 484 768 c 2
 387 884 l 1
392 -9 m 0
 184 -9 61 130 61 353 c 0
 61 575 184 714 392 714 c 0
 475 714 552 689 607 645 c 0
 652 612 614 548 566 582 c 0
 518 621 460 639 394 639 c 0
 235 639 149 535 149 353 c 0
 149 171 235 66 394 66 c 0
 460 66 518 85 568 124 c 0
 615 157 651 95 611 64 c 0
 554 16 477 -9 392 -9 c 0
EndSplineSet
Validated: 33
EndChar

StartChar: ccircumflex
Encoding: 265 265 203
Width: 463
GlyphClass: 1
Flags: W
LayerCount: 2
Fore
SplineSet
327 734 m 2
 410 582 l 2
 427 551 384 529 367 556 c 2
 278 699 l 1
 189 556 l 2
 173 529 130 551 146 582 c 2
 229 734 l 2
 241 756 257 766 278 766 c 0
 299 766 316 756 327 734 c 2
282 -9 m 0
 136 -9 46 92 46 246 c 0
 46 400 136 495 282 495 c 0
 330 495 385 481 428 446 c 0
 462 422 430 367 392 393 c 0
 357 420 320 429 287 429 c 0
 185 429 129 363 129 245 c 0
 129 128 185 57 287 57 c 0
 320 57 356 66 392 93 c 0
 431 119 459 63 426 40 c 0
 384 5 330 -9 282 -9 c 0
EndSplineSet
Validated: 33
EndChar

StartChar: Cdotaccent
Encoding: 266 266 204
Width: 673
GlyphClass: 1
Flags: W
LayerCount: 2
Fore
SplineSet
387 803 m 0
 356 803 338 820 338 851 c 0
 338 881 356 898 387 898 c 0
 418 898 436 881 436 851 c 0
 436 820 418 803 387 803 c 0
392 -9 m 0
 184 -9 61 130 61 353 c 0
 61 575 184 714 392 714 c 0
 475 714 552 689 607 645 c 0
 652 612 614 548 566 582 c 0
 518 621 460 639 394 639 c 0
 235 639 149 535 149 353 c 0
 149 171 235 66 394 66 c 0
 460 66 518 85 568 124 c 0
 615 157 651 95 611 64 c 0
 554 16 477 -9 392 -9 c 0
EndSplineSet
Validated: 33
EndChar

StartChar: cdotaccent
Encoding: 267 267 205
Width: 463
GlyphClass: 1
Flags: W
LayerCount: 2
Fore
SplineSet
278 605 m 0
 247 605 229 623 229 653 c 0
 229 684 247 701 278 701 c 0
 310 701 328 684 328 653 c 0
 328 622 311 605 278 605 c 0
282 -9 m 0
 136 -9 46 92 46 246 c 0
 46 400 136 495 282 495 c 0
 330 495 385 481 428 446 c 0
 462 422 430 367 392 393 c 0
 357 420 320 429 287 429 c 0
 185 429 129 363 129 245 c 0
 129 128 185 57 287 57 c 0
 320 57 356 66 392 93 c 0
 431 119 459 63 426 40 c 0
 384 5 330 -9 282 -9 c 0
EndSplineSet
Validated: 33
EndChar

StartChar: Ccaron
Encoding: 268 268 206
Width: 673
GlyphClass: 1
Flags: W
LayerCount: 2
Fore
SplineSet
387 756 m 0
 367 756 349 764 336 783 c 2
 248 907 l 2
 228 935 268 960 291 933 c 2
 387 818 l 1
 484 933 l 2
 507 960 546 935 526 907 c 2
 439 783 l 2
 425 764 407 756 387 756 c 0
392 -9 m 0
 184 -9 61 130 61 353 c 0
 61 575 184 714 392 714 c 0
 475 714 552 689 607 645 c 0
 652 612 614 548 566 582 c 0
 518 621 460 639 394 639 c 0
 235 639 149 535 149 353 c 0
 149 171 235 66 394 66 c 0
 460 66 518 85 568 124 c 0
 615 157 651 95 611 64 c 0
 554 16 477 -9 392 -9 c 0
EndSplineSet
Validated: 33
EndChar

StartChar: ccaron
Encoding: 269 269 207
Width: 463
GlyphClass: 1
Flags: W
LayerCount: 2
Fore
SplineSet
278 538 m 0
 257 538 241 549 229 571 c 2
 146 722 l 2
 130 753 173 775 189 748 c 2
 278 605 l 1
 367 748 l 2
 384 775 427 753 410 722 c 2
 327 571 l 2
 316 549 299 538 278 538 c 0
282 -9 m 0
 136 -9 46 92 46 246 c 0
 46 400 136 495 282 495 c 0
 330 495 385 481 428 446 c 0
 462 422 430 367 392 393 c 0
 357 420 320 429 287 429 c 0
 185 429 129 363 129 245 c 0
 129 128 185 57 287 57 c 0
 320 57 356 66 392 93 c 0
 431 119 459 63 426 40 c 0
 384 5 330 -9 282 -9 c 0
EndSplineSet
Validated: 33
EndChar

StartChar: Dcaron
Encoding: 270 270 208
Width: 742
GlyphClass: 1
Flags: W
LayerCount: 2
Fore
SplineSet
370 756 m 0
 350 756 332 764 319 783 c 2
 231 907 l 2
 211 935 251 960 274 933 c 2
 370 818 l 1
 467 933 l 2
 490 960 529 935 509 907 c 2
 422 783 l 2
 408 764 390 756 370 756 c 0
325 0 m 2
 132 0 l 2
 103 0 87 16 87 45 c 2
 87 660 l 2
 87 689 103 705 132 705 c 2
 325 705 l 2
 553 705 682 581 682 353 c 0
 682 125 553 0 325 0 c 2
169 635 m 1
 169 70 l 1
 319 70 l 2
 504 70 595 165 595 353 c 0
 595 541 504 635 319 635 c 2
 169 635 l 1
EndSplineSet
Validated: 33
EndChar

StartChar: dcaron
Encoding: 271 271 209
Width: 583
GlyphClass: 1
Flags: W
LayerCount: 2
Fore
SplineSet
261 -9 m 0
 131 -9 46 89 46 243 c 0
 46 398 130 495 261 495 c 0
 336 495 397 459 426 401 c 1
 426 671 l 2
 426 697 441 712 467 712 c 0
 492 712 507 697 507 671 c 2
 507 35 l 2
 507 8 493 -7 467 -7 c 0
 441 -7 427 8 427 35 c 2
 427 87 l 1
 398 28 337 -9 261 -9 c 0
574 510 m 0
 562 510 553 518 553 532 c 2
 553 679 l 2
 553 700 565 712 586 712 c 0
 608 712 618 699 615 677 c 2
 597 531 l 2
 595 518 588 510 574 510 c 0
278 56 m 0
 369 56 428 123 428 243 c 0
 428 364 369 430 278 430 c 0
 186 430 128 364 128 243 c 0
 128 123 186 56 278 56 c 0
EndSplineSet
Validated: 33
EndChar

StartChar: Dcroat
Encoding: 272 272 210
Width: 742
GlyphClass: 1
Flags: W
LayerCount: 2
Fore
SplineSet
325 0 m 2
 132 0 l 2
 103 0 87 16 87 45 c 2
 87 326 l 1
 25 326 l 2
 3 326 -8 338 -8 358 c 0
 -8 378 3 390 25 390 c 2
 87 390 l 1
 87 660 l 2
 87 689 103 705 132 705 c 2
 325 705 l 2
 553 705 682 581 682 353 c 0
 682 125 553 0 325 0 c 2
340 326 m 2
 169 326 l 1
 169 70 l 1
 319 70 l 2
 504 70 595 165 595 353 c 0
 595 541 504 635 319 635 c 2
 169 635 l 1
 169 390 l 1
 340 390 l 2
 361 390 373 379 373 358 c 0
 373 338 361 326 340 326 c 2
EndSplineSet
Validated: 1
EndChar

StartChar: dcroat
Encoding: 273 273 211
Width: 583
GlyphClass: 1
Flags: W
LayerCount: 2
Fore
SplineSet
261 -9 m 0
 132 -9 46 89 46 243 c 0
 46 398 131 495 261 495 c 0
 337 495 398 459 427 401 c 1
 427 554 l 1
 263 554 l 2
 241 554 229 565 229 584 c 0
 229 603 241 614 263 614 c 2
 427 614 l 1
 427 675 l 2
 427 697 441 712 467 712 c 0
 493 712 508 697 508 675 c 2
 508 614 l 1
 570 614 l 2
 592 614 604 603 604 584 c 0
 604 565 592 554 570 554 c 2
 508 554 l 1
 508 35 l 2
 508 8 493 -7 468 -7 c 0
 442 -7 427 8 427 35 c 2
 427 86 l 1
 398 28 337 -9 261 -9 c 0
278 56 m 0
 369 56 428 123 428 243 c 0
 428 364 369 430 278 430 c 0
 187 430 128 364 128 243 c 0
 128 123 187 56 278 56 c 0
EndSplineSet
Validated: 1
EndChar

StartChar: Emacron
Encoding: 274 274 212
Width: 583
GlyphClass: 1
Flags: W
LayerCount: 2
Fore
SplineSet
460 814 m 2
 188 814 l 2
 169 814 159 825 159 842 c 0
 159 860 169 869 188 869 c 2
 460 869 l 2
 479 869 490 860 490 842 c 0
 490 825 479 814 460 814 c 2
504 0 m 2
 132 0 l 2
 103 0 87 16 87 45 c 2
 87 660 l 2
 87 689 103 705 132 705 c 2
 504 705 l 2
 526 705 539 693 539 671 c 0
 539 649 526 636 504 636 c 2
 167 636 l 1
 167 392 l 1
 483 392 l 2
 506 392 518 380 518 358 c 0
 518 336 506 323 483 323 c 2
 167 323 l 1
 167 69 l 1
 504 69 l 2
 526 69 539 56 539 35 c 0
 539 12 526 0 504 0 c 2
EndSplineSet
Validated: 1
EndChar

StartChar: emacron
Encoding: 275 275 213
Width: 532
GlyphClass: 1
Flags: W
LayerCount: 2
Fore
SplineSet
402 625 m 2
 159 625 l 2
 141 625 130 635 130 652 c 0
 130 670 141 680 159 680 c 2
 402 680 l 2
 420 680 431 670 431 652 c 0
 431 635 420 625 402 625 c 2
295 -9 m 0
 141 -9 46 87 46 242 c 0
 46 393 142 495 280 495 c 0
 411 495 491 405 491 257 c 0
 491 236 479 226 456 226 c 2
 124 226 l 1
 130 115 191 56 295 56 c 0
 339 56 386 66 428 95 c 0
 474 124 504 69 462 41 c 0
 418 9 353 -9 295 -9 c 0
282 435 m 0
 189 435 135 372 125 279 c 1
 421 279 l 1
 417 377 369 435 282 435 c 0
EndSplineSet
Validated: 33
EndChar

StartChar: Ebreve
Encoding: 276 276 214
Width: 583
GlyphClass: 1
Flags: W
LayerCount: 2
Fore
SplineSet
324 760 m 0
 245 760 178 806 158 904 c 0
 154 923 166 935 180 936 c 0
 197 938 207 927 209 914 c 0
 223 841 273 814 324 814 c 0
 375 814 425 841 439 914 c 0
 441 927 451 938 468 936 c 0
 482 935 494 923 490 904 c 0
 469 806 403 760 324 760 c 0
504 0 m 2
 132 0 l 2
 103 0 87 16 87 45 c 2
 87 660 l 2
 87 689 103 705 132 705 c 2
 504 705 l 2
 526 705 539 693 539 671 c 0
 539 649 526 636 504 636 c 2
 167 636 l 1
 167 392 l 1
 483 392 l 2
 506 392 518 380 518 358 c 0
 518 336 506 323 483 323 c 2
 167 323 l 1
 167 69 l 1
 504 69 l 2
 526 69 539 56 539 35 c 0
 539 12 526 0 504 0 c 2
EndSplineSet
Validated: 33
EndChar

StartChar: ebreve
Encoding: 277 277 215
Width: 532
GlyphClass: 1
Flags: W
LayerCount: 2
Fore
SplineSet
280 549 m 0
 195 549 140 613 128 714 c 0
 125 733 137 746 152 746 c 0
 167 747 177 738 180 720 c 0
 189 643 227 604 280 604 c 0
 334 604 372 643 381 720 c 0
 383 738 394 747 409 746 c 0
 424 746 435 733 433 714 c 0
 421 613 366 549 280 549 c 0
295 -9 m 0
 141 -9 46 87 46 242 c 0
 46 393 142 495 280 495 c 0
 411 495 491 405 491 257 c 0
 491 236 479 226 456 226 c 2
 124 226 l 1
 130 115 191 56 295 56 c 0
 339 56 386 66 428 95 c 0
 474 124 504 69 462 41 c 0
 418 9 353 -9 295 -9 c 0
282 435 m 0
 189 435 135 372 125 279 c 1
 421 279 l 1
 417 377 369 435 282 435 c 0
EndSplineSet
Validated: 33
EndChar

StartChar: Edotaccent
Encoding: 278 278 216
Width: 583
GlyphClass: 1
Flags: W
LayerCount: 2
Fore
SplineSet
324 803 m 0
 293 803 275 820 275 851 c 0
 275 881 293 898 324 898 c 0
 355 898 373 881 373 851 c 0
 373 820 355 803 324 803 c 0
504 0 m 2
 132 0 l 2
 103 0 87 16 87 45 c 2
 87 660 l 2
 87 689 103 705 132 705 c 2
 504 705 l 2
 526 705 539 693 539 671 c 0
 539 649 526 636 504 636 c 2
 167 636 l 1
 167 392 l 1
 483 392 l 2
 506 392 518 380 518 358 c 0
 518 336 506 323 483 323 c 2
 167 323 l 1
 167 69 l 1
 504 69 l 2
 526 69 539 56 539 35 c 0
 539 12 526 0 504 0 c 2
EndSplineSet
Validated: 1
EndChar

StartChar: edotaccent
Encoding: 279 279 217
Width: 532
GlyphClass: 1
Flags: W
LayerCount: 2
Fore
SplineSet
280 605 m 0
 249 605 231 623 231 653 c 0
 231 684 249 701 280 701 c 0
 312 701 330 684 330 653 c 0
 330 622 313 605 280 605 c 0
295 -9 m 0
 141 -9 46 87 46 242 c 0
 46 393 142 495 280 495 c 0
 411 495 491 405 491 257 c 0
 491 236 479 226 456 226 c 2
 124 226 l 1
 130 115 191 56 295 56 c 0
 339 56 386 66 428 95 c 0
 474 124 504 69 462 41 c 0
 418 9 353 -9 295 -9 c 0
282 435 m 0
 189 435 135 372 125 279 c 1
 421 279 l 1
 417 377 369 435 282 435 c 0
EndSplineSet
Validated: 33
EndChar

StartChar: Eogonek
Encoding: 280 280 218
Width: 583
GlyphClass: 2
Flags: W
AnchorPoint: "Anchor-2" 324 705 basechar 0
LayerCount: 2
Fore
SplineSet
504 0 m 2
 494 0 l 1
 463 -13 428 -45 428 -86 c 0
 428 -124 453 -142 486 -142 c 0
 498 -142 509 -140 521 -136 c 0
 557 -125 562 -173 534 -183 c 0
 514 -191 494 -192 475 -192 c 0
 411 -192 370 -154 370 -95 c 0
 370 -60 385 -27 413 0 c 1
 132 0 l 2
 103 0 87 16 87 45 c 2
 87 660 l 2
 87 689 103 705 132 705 c 2
 504 705 l 2
 526 705 539 693 539 671 c 0
 539 649 526 636 504 636 c 2
 167 636 l 1
 167 392 l 1
 483 392 l 2
 506 392 518 380 518 358 c 0
 518 336 506 323 483 323 c 2
 167 323 l 1
 167 69 l 1
 504 69 l 2
 526 69 539 56 539 35 c 0
 539 12 526 0 504 0 c 2
EndSplineSet
Validated: 1048609
EndChar

StartChar: eogonek
Encoding: 281 281 219
Width: 532
GlyphClass: 2
Flags: W
AnchorPoint: "Anchor-2" 280 484 basechar 0
LayerCount: 2
Fore
SplineSet
337 -192 m 0
 273 -192 231 -154 231 -95 c 0
 231 -64 244 -33 267 -8 c 1
 130 3 46 97 46 242 c 0
 46 393 142 495 280 495 c 0
 411 495 491 405 491 257 c 0
 491 236 479 226 456 226 c 2
 124 226 l 1
 130 115 191 56 295 56 c 0
 339 56 386 66 428 95 c 0
 474 124 504 69 462 41 c 0
 431 18 389 3 346 -5 c 1
 317 -20 289 -49 289 -86 c 0
 289 -124 315 -142 347 -142 c 0
 360 -142 371 -140 382 -136 c 0
 419 -125 423 -173 396 -183 c 0
 376 -191 356 -192 337 -192 c 0
282 435 m 0
 189 435 135 372 125 279 c 1
 421 279 l 1
 417 377 369 435 282 435 c 0
EndSplineSet
Validated: 1048609
EndChar

StartChar: Ecaron
Encoding: 282 282 220
Width: 583
GlyphClass: 1
Flags: W
LayerCount: 2
Fore
SplineSet
324 756 m 0
 304 756 286 764 273 783 c 2
 185 907 l 2
 165 935 205 960 228 933 c 2
 324 818 l 1
 421 933 l 2
 444 960 483 935 463 907 c 2
 376 783 l 2
 362 764 344 756 324 756 c 0
504 0 m 2
 132 0 l 2
 103 0 87 16 87 45 c 2
 87 660 l 2
 87 689 103 705 132 705 c 2
 504 705 l 2
 526 705 539 693 539 671 c 0
 539 649 526 636 504 636 c 2
 167 636 l 1
 167 392 l 1
 483 392 l 2
 506 392 518 380 518 358 c 0
 518 336 506 323 483 323 c 2
 167 323 l 1
 167 69 l 1
 504 69 l 2
 526 69 539 56 539 35 c 0
 539 12 526 0 504 0 c 2
EndSplineSet
Validated: 33
EndChar

StartChar: ecaron
Encoding: 283 283 221
Width: 532
GlyphClass: 1
Flags: W
LayerCount: 2
Fore
SplineSet
280 538 m 0
 259 538 243 549 231 571 c 2
 148 722 l 2
 132 753 175 775 191 748 c 2
 280 605 l 1
 369 748 l 2
 386 775 429 753 412 722 c 2
 330 571 l 2
 318 549 301 538 280 538 c 0
295 -9 m 0
 141 -9 46 87 46 242 c 0
 46 393 142 495 280 495 c 0
 411 495 491 405 491 257 c 0
 491 236 479 226 456 226 c 2
 124 226 l 1
 130 115 191 56 295 56 c 0
 339 56 386 66 428 95 c 0
 474 124 504 69 462 41 c 0
 418 9 353 -9 295 -9 c 0
282 435 m 0
 189 435 135 372 125 279 c 1
 421 279 l 1
 417 377 369 435 282 435 c 0
EndSplineSet
Validated: 33
EndChar

StartChar: Gcircumflex
Encoding: 284 284 222
Width: 726
GlyphClass: 1
Flags: W
LayerCount: 2
Fore
SplineSet
391 884 m 1
 295 768 l 2
 271 742 232 767 252 795 c 2
 340 918 l 2
 353 938 371 946 391 946 c 0
 411 946 429 938 443 918 c 2
 530 795 l 2
 551 767 511 742 488 768 c 2
 391 884 l 1
409 -9 m 0
 183 -9 61 127 61 352 c 0
 61 575 185 714 397 714 c 0
 482 714 562 692 624 641 c 0
 662 614 627 551 585 579 c 1
 531 622 470 640 396 640 c 0
 235 640 148 535 148 352 c 0
 148 165 236 64 411 64 c 0
 468 64 524 74 574 93 c 1
 574 302 l 1
 431 302 l 2
 408 302 395 315 395 335 c 0
 395 356 408 367 431 367 c 2
 610 367 l 2
 632 367 645 354 645 332 c 2
 645 71 l 2
 645 51 639 37 623 31 c 0
 567 8 482 -9 409 -9 c 0
EndSplineSet
Validated: 33
EndChar

StartChar: gcircumflex
Encoding: 285 285 223
Width: 586
GlyphClass: 1
Flags: W
LayerCount: 2
Fore
SplineSet
344 734 m 2
 427 582 l 2
 444 551 401 529 384 556 c 2
 295 699 l 1
 206 556 l 2
 190 529 146 551 163 582 c 2
 246 734 l 2
 258 756 274 766 295 766 c 0
 316 766 333 756 344 734 c 2
291 -189 m 0
 220 -189 150 -173 96 -137 c 0
 57 -114 89 -58 124 -77 c 0
 183 -113 234 -124 287 -124 c 0
 382 -124 431 -73 431 24 c 2
 431 109 l 1
 403 48 339 11 264 11 c 0
 130 11 46 109 46 254 c 0
 46 398 130 495 264 495 c 0
 340 495 402 459 430 399 c 1
 430 452 l 2
 430 479 445 493 470 493 c 0
 496 493 510 479 510 452 c 2
 510 35 l 2
 510 -114 435 -189 291 -189 c 0
279 77 m 0
 372 77 431 145 431 254 c 0
 431 362 372 430 279 430 c 0
 186 430 128 362 128 254 c 0
 128 145 186 77 279 77 c 0
EndSplineSet
Validated: 33
EndChar

StartChar: Gbreve
Encoding: 286 286 224
Width: 726
GlyphClass: 1
Flags: W
LayerCount: 2
Fore
SplineSet
391 760 m 0
 312 760 245 806 225 904 c 0
 221 923 233 935 247 936 c 0
 264 938 274 927 276 914 c 0
 290 841 340 814 391 814 c 0
 442 814 492 841 506 914 c 0
 508 927 518 938 535 936 c 0
 549 935 561 923 557 904 c 0
 536 806 470 760 391 760 c 0
409 -9 m 0
 183 -9 61 127 61 352 c 0
 61 575 185 714 397 714 c 0
 482 714 562 692 624 641 c 0
 662 614 627 551 585 579 c 1
 531 622 470 640 396 640 c 0
 235 640 148 535 148 352 c 0
 148 165 236 64 411 64 c 0
 468 64 524 74 574 93 c 1
 574 302 l 1
 431 302 l 2
 408 302 395 315 395 335 c 0
 395 356 408 367 431 367 c 2
 610 367 l 2
 632 367 645 354 645 332 c 2
 645 71 l 2
 645 51 639 37 623 31 c 0
 567 8 482 -9 409 -9 c 0
EndSplineSet
Validated: 33
EndChar

StartChar: gbreve
Encoding: 287 287 225
Width: 586
GlyphClass: 1
Flags: W
LayerCount: 2
Fore
SplineSet
295 549 m 0
 210 549 155 613 143 714 c 0
 140 733 152 746 167 746 c 0
 181 747 192 738 194 720 c 0
 204 643 242 604 295 604 c 0
 349 604 387 643 396 720 c 0
 398 738 409 747 423 746 c 0
 439 746 450 733 447 714 c 0
 436 613 381 549 295 549 c 0
291 -189 m 0
 220 -189 150 -173 96 -137 c 0
 57 -114 89 -58 124 -77 c 0
 183 -113 234 -124 287 -124 c 0
 382 -124 431 -73 431 24 c 2
 431 109 l 1
 403 48 339 11 264 11 c 0
 130 11 46 109 46 254 c 0
 46 398 130 495 264 495 c 0
 340 495 402 459 430 399 c 1
 430 452 l 2
 430 479 445 493 470 493 c 0
 496 493 510 479 510 452 c 2
 510 35 l 2
 510 -114 435 -189 291 -189 c 0
279 77 m 0
 372 77 431 145 431 254 c 0
 431 362 372 430 279 430 c 0
 186 430 128 362 128 254 c 0
 128 145 186 77 279 77 c 0
EndSplineSet
Validated: 33
EndChar

StartChar: Gdotaccent
Encoding: 288 288 226
Width: 726
GlyphClass: 1
Flags: W
LayerCount: 2
Fore
SplineSet
391 803 m 0
 360 803 342 820 342 851 c 0
 342 881 360 898 391 898 c 0
 422 898 440 881 440 851 c 0
 440 820 422 803 391 803 c 0
409 -9 m 0
 183 -9 61 127 61 352 c 0
 61 575 185 714 397 714 c 0
 482 714 562 692 624 641 c 0
 662 614 627 551 585 579 c 1
 531 622 470 640 396 640 c 0
 235 640 148 535 148 352 c 0
 148 165 236 64 411 64 c 0
 468 64 524 74 574 93 c 1
 574 302 l 1
 431 302 l 2
 408 302 395 315 395 335 c 0
 395 356 408 367 431 367 c 2
 610 367 l 2
 632 367 645 354 645 332 c 2
 645 71 l 2
 645 51 639 37 623 31 c 0
 567 8 482 -9 409 -9 c 0
EndSplineSet
Validated: 33
EndChar

StartChar: gdotaccent
Encoding: 289 289 227
Width: 586
GlyphClass: 1
Flags: W
LayerCount: 2
Fore
SplineSet
295 605 m 0
 264 605 246 623 246 653 c 0
 246 684 264 701 295 701 c 0
 326 701 345 684 345 653 c 0
 345 622 327 605 295 605 c 0
291 -189 m 0
 220 -189 150 -173 96 -137 c 0
 57 -114 89 -58 124 -77 c 0
 183 -113 234 -124 287 -124 c 0
 382 -124 431 -73 431 24 c 2
 431 109 l 1
 403 48 339 11 264 11 c 0
 130 11 46 109 46 254 c 0
 46 398 130 495 264 495 c 0
 340 495 402 459 430 399 c 1
 430 452 l 2
 430 479 445 493 470 493 c 0
 496 493 510 479 510 452 c 2
 510 35 l 2
 510 -114 435 -189 291 -189 c 0
279 77 m 0
 372 77 431 145 431 254 c 0
 431 362 372 430 279 430 c 0
 186 430 128 362 128 254 c 0
 128 145 186 77 279 77 c 0
EndSplineSet
Validated: 33
EndChar

StartChar: Gcommaaccent
Encoding: 290 290 228
Width: 726
GlyphClass: 1
Flags: W
LayerCount: 2
Fore
SplineSet
409 -9 m 0
 183 -9 61 127 61 352 c 0
 61 575 185 714 397 714 c 0
 482 714 562 692 624 641 c 0
 662 614 627 551 585 579 c 1
 531 622 470 640 396 640 c 0
 235 640 148 535 148 352 c 0
 148 165 236 64 411 64 c 0
 468 64 524 74 574 93 c 1
 574 302 l 1
 431 302 l 2
 408 302 395 315 395 335 c 0
 395 356 408 367 431 367 c 2
 610 367 l 2
 632 367 645 354 645 332 c 2
 645 71 l 2
 645 51 639 37 623 31 c 0
 567 8 482 -9 409 -9 c 0
412 -250 m 0
 389 -278 353 -255 376 -222 c 0
 387 -206 394 -188 397 -171 c 1
 365 -169 346 -151 346 -123 c 0
 346 -94 366 -75 397 -75 c 0
 430 -75 449 -95 449 -133 c 0
 449 -171 437 -219 412 -250 c 0
EndSplineSet
Validated: 33
EndChar

StartChar: gcommaaccent
Encoding: 291 291 229
Width: 586
GlyphClass: 1
Flags: W
LayerCount: 2
Fore
SplineSet
296 563 m 0
 263 563 244 582 244 621 c 0
 244 658 256 706 281 737 c 0
 304 765 340 742 317 710 c 0
 306 694 300 675 297 658 c 1
 328 656 347 639 347 610 c 0
 347 581 327 563 296 563 c 0
291 -189 m 0
 220 -189 150 -173 96 -137 c 0
 57 -114 89 -58 124 -77 c 0
 183 -113 234 -124 287 -124 c 0
 382 -124 431 -73 431 24 c 2
 431 109 l 1
 403 48 339 11 264 11 c 0
 130 11 46 109 46 254 c 0
 46 398 130 495 264 495 c 0
 340 495 402 459 430 399 c 1
 430 452 l 2
 430 479 445 493 470 493 c 0
 496 493 510 479 510 452 c 2
 510 35 l 2
 510 -114 435 -189 291 -189 c 0
279 77 m 0
 372 77 431 145 431 254 c 0
 431 362 372 430 279 430 c 0
 186 430 128 362 128 254 c 0
 128 145 186 77 279 77 c 0
EndSplineSet
Validated: 33
EndChar

StartChar: Hcircumflex
Encoding: 292 292 230
Width: 761
GlyphClass: 1
Flags: W
LayerCount: 2
Fore
SplineSet
380 884 m 1
 284 768 l 2
 260 742 221 767 241 795 c 2
 329 918 l 2
 342 938 360 946 380 946 c 0
 400 946 418 938 432 918 c 2
 519 795 l 2
 540 767 500 742 477 768 c 2
 380 884 l 1
128 -7 m 0
 102 -7 87 9 87 36 c 2
 87 669 l 2
 87 697 102 712 128 712 c 0
 154 712 169 697 169 669 c 2
 169 393 l 1
 592 393 l 1
 592 669 l 2
 592 697 607 712 633 712 c 0
 659 712 674 697 674 669 c 2
 674 36 l 2
 674 9 659 -7 633 -7 c 0
 607 -7 592 9 592 36 c 2
 592 322 l 1
 169 322 l 1
 169 36 l 2
 169 9 155 -7 128 -7 c 0
EndSplineSet
Validated: 33
EndChar

StartChar: hcircumflex
Encoding: 293 293 231
Width: 568
GlyphClass: 1
Flags: W
LayerCount: 2
Fore
SplineSet
286 884 m 1
 189 768 l 2
 166 742 126 767 146 795 c 2
 234 918 l 2
 248 938 265 946 286 946 c 0
 306 946 323 938 337 918 c 2
 425 795 l 2
 445 767 406 742 382 768 c 2
 286 884 l 1
116 -7 m 0
 90 -7 76 8 76 35 c 2
 76 671 l 2
 76 697 90 712 116 712 c 0
 142 712 157 697 157 671 c 2
 157 407 l 1
 190 465 251 495 322 495 c 0
 438 495 495 431 495 303 c 2
 495 35 l 2
 495 8 480 -7 455 -7 c 0
 429 -7 414 8 414 35 c 2
 414 298 l 2
 414 388 380 429 303 429 c 0
 214 429 157 368 157 277 c 2
 157 35 l 2
 157 8 143 -7 116 -7 c 0
EndSplineSet
Validated: 33
EndChar

StartChar: Hbar
Encoding: 294 294 232
Width: 798
GlyphClass: 1
Flags: W
LayerCount: 2
Fore
SplineSet
147 -7 m 0
 121 -7 105 9 105 36 c 2
 105 519 l 1
 42 519 l 2
 20 519 8 531 8 552 c 0
 8 572 20 584 42 584 c 2
 105 584 l 1
 105 669 l 2
 105 697 121 712 147 712 c 0
 173 712 188 697 188 669 c 2
 188 584 l 1
 610 584 l 1
 610 669 l 2
 610 697 626 712 652 712 c 0
 678 712 693 697 693 669 c 2
 693 584 l 1
 756 584 l 2
 778 584 791 572 791 552 c 0
 791 531 778 519 756 519 c 2
 693 519 l 1
 693 36 l 2
 693 9 678 -7 652 -7 c 0
 625 -7 610 9 610 36 c 2
 610 317 l 1
 188 317 l 1
 188 36 l 2
 188 9 174 -7 147 -7 c 0
188 519 m 1
 188 388 l 1
 610 388 l 1
 610 519 l 1
 188 519 l 1
EndSplineSet
Validated: 1
EndChar

StartChar: hbar
Encoding: 295 295 233
Width: 568
GlyphClass: 1
Flags: W
LayerCount: 2
Fore
SplineSet
116 -7 m 0
 90 -7 76 8 76 35 c 2
 76 554 l 1
 16 554 l 2
 -6 554 -18 565 -18 584 c 0
 -18 603 -6 614 16 614 c 2
 76 614 l 1
 76 673 l 2
 76 697 90 712 116 712 c 0
 142 712 157 697 157 673 c 2
 157 614 l 1
 318 614 l 2
 339 614 351 603 351 584 c 0
 351 565 339 554 318 554 c 2
 157 554 l 1
 157 407 l 1
 190 465 251 495 322 495 c 0
 438 495 495 431 495 303 c 2
 495 35 l 2
 495 8 480 -7 455 -7 c 0
 429 -7 414 8 414 35 c 2
 414 298 l 2
 414 388 380 429 303 429 c 0
 214 429 157 368 157 277 c 2
 157 35 l 2
 157 8 143 -7 116 -7 c 0
EndSplineSet
Validated: 1
EndChar

StartChar: Itilde
Encoding: 296 296 234
Width: 257
GlyphClass: 1
Flags: W
LayerCount: 2
Fore
SplineSet
-56 780 m 0
 -70 780 -81 790 -78 808 c 0
 -64 878 -21 919 39 919 c 0
 111 919 167 843 220 843 c 0
 255 843 279 867 286 905 c 0
 290 919 299 926 312 925 c 0
 326 925 337 914 334 897 c 0
 320 826 277 786 218 786 c 0
 145 786 89 862 36 862 c 0
 1 862 -23 837 -30 800 c 0
 -34 786 -43 779 -56 780 c 0
128 -7 m 0
 102 -7 87 9 87 36 c 2
 87 669 l 2
 87 697 102 712 128 712 c 0
 154 712 169 697 169 669 c 2
 169 36 l 2
 169 9 155 -7 128 -7 c 0
EndSplineSet
Validated: 33
EndChar

StartChar: itilde
Encoding: 297 297 235
Width: 232
GlyphClass: 1
Flags: W
LayerCount: 2
Fore
SplineSet
-41 587 m 0
 -55 587 -65 597 -61 615 c 0
 -51 677 -17 726 43 726 c 0
 107 726 139 650 188 650 c 0
 218 650 239 675 247 714 c 0
 250 726 258 733 273 732 c 0
 287 732 297 723 293 704 c 0
 282 642 249 593 189 593 c 0
 124 593 92 669 44 669 c 0
 14 669 -8 645 -15 605 c 0
 -18 593 -27 586 -41 587 c 0
116 -5 m 0
 90 -5 76 11 76 39 c 2
 76 448 l 2
 76 476 90 491 116 491 c 0
 142 491 157 476 157 448 c 2
 157 39 l 2
 157 11 143 -5 116 -5 c 0
EndSplineSet
Validated: 33
EndChar

StartChar: Imacron
Encoding: 298 298 236
Width: 257
GlyphClass: 1
Flags: W
LayerCount: 2
Fore
SplineSet
264 814 m 2
 -8 814 l 2
 -27 814 -37 825 -37 842 c 0
 -37 860 -27 869 -8 869 c 2
 264 869 l 2
 283 869 294 860 294 842 c 0
 294 825 283 814 264 814 c 2
128 -7 m 0
 102 -7 87 9 87 36 c 2
 87 669 l 2
 87 697 102 712 128 712 c 0
 154 712 169 697 169 669 c 2
 169 36 l 2
 169 9 155 -7 128 -7 c 0
EndSplineSet
Validated: 1
EndChar

StartChar: imacron
Encoding: 299 299 237
Width: 232
GlyphClass: 1
Flags: W
LayerCount: 2
Fore
SplineSet
237 625 m 2
 -5 625 l 2
 -24 625 -34 635 -34 652 c 0
 -34 670 -24 680 -5 680 c 2
 237 680 l 2
 256 680 267 670 267 652 c 0
 267 635 256 625 237 625 c 2
116 -5 m 0
 90 -5 76 11 76 39 c 2
 76 448 l 2
 76 476 90 491 116 491 c 0
 142 491 157 476 157 448 c 2
 157 39 l 2
 157 11 143 -5 116 -5 c 0
EndSplineSet
Validated: 1
EndChar

StartChar: Ibreve
Encoding: 300 300 238
Width: 257
GlyphClass: 1
Flags: W
LayerCount: 2
Fore
SplineSet
128 760 m 0
 49 760 -18 806 -38 904 c 0
 -42 923 -30 935 -16 936 c 0
 1 938 11 927 13 914 c 0
 27 841 77 814 128 814 c 0
 179 814 229 841 243 914 c 0
 245 927 255 938 272 936 c 0
 286 935 298 923 294 904 c 0
 273 806 207 760 128 760 c 0
128 -7 m 0
 102 -7 87 9 87 36 c 2
 87 669 l 2
 87 697 102 712 128 712 c 0
 154 712 169 697 169 669 c 2
 169 36 l 2
 169 9 155 -7 128 -7 c 0
EndSplineSet
Validated: 33
EndChar

StartChar: ibreve
Encoding: 301 301 239
Width: 232
GlyphClass: 1
Flags: W
LayerCount: 2
Fore
SplineSet
116 549 m 0
 30 549 -24 613 -37 714 c 0
 -39 733 -28 746 -12 746 c 0
 2 747 13 738 15 720 c 0
 25 643 62 604 116 604 c 0
 169 604 208 643 216 720 c 0
 219 738 230 747 244 746 c 0
 259 746 271 733 268 714 c 0
 257 613 201 549 116 549 c 0
116 -5 m 0
 90 -5 76 11 76 39 c 2
 76 448 l 2
 76 476 90 491 116 491 c 0
 142 491 157 476 157 448 c 2
 157 39 l 2
 157 11 143 -5 116 -5 c 0
EndSplineSet
Validated: 33
EndChar

StartChar: Iogonek
Encoding: 302 302 240
Width: 257
GlyphClass: 1
Flags: W
LayerCount: 2
Fore
SplineSet
138 -192 m 0
 74 -192 33 -154 33 -95 c 0
 33 -54 54 -15 92 14 c 1
 89 20 87 28 87 36 c 2
 87 669 l 2
 87 697 102 712 128 712 c 0
 154 712 169 697 169 669 c 2
 169 36 l 2
 169 16 161 3 150 -3 c 0
 120 -19 90 -48 90 -86 c 0
 90 -124 116 -142 149 -142 c 0
 161 -142 172 -140 183 -136 c 0
 220 -125 225 -173 197 -183 c 0
 177 -191 157 -192 138 -192 c 0
EndSplineSet
Validated: 33
EndChar

StartChar: iogonek
Encoding: 303 303 241
Width: 232
GlyphClass: 1
Flags: W
LayerCount: 2
Fore
SplineSet
116 603 m 0
 82 603 63 621 63 653 c 0
 63 685 82 702 116 702 c 0
 150 702 169 685 169 653 c 0
 169 621 151 603 116 603 c 0
126 -192 m 0
 62 -192 20 -154 20 -95 c 0
 20 -53 42 -13 81 15 c 1
 78 22 76 30 76 39 c 2
 76 448 l 2
 76 476 90 491 116 491 c 0
 142 491 157 476 157 448 c 2
 157 39 l 2
 157 19 148 4 135 -3 c 0
 99 -27 78 -52 78 -86 c 0
 78 -124 104 -142 136 -142 c 0
 148 -142 159 -140 171 -136 c 0
 208 -125 212 -173 184 -183 c 0
 164 -191 145 -192 126 -192 c 0
EndSplineSet
Validated: 33
EndChar

StartChar: Idotaccent
Encoding: 304 304 242
Width: 257
GlyphClass: 1
Flags: W
LayerCount: 2
Fore
SplineSet
128 803 m 0
 97 803 79 820 79 851 c 0
 79 881 97 898 128 898 c 0
 159 898 177 881 177 851 c 0
 177 820 159 803 128 803 c 0
128 -7 m 0
 102 -7 87 9 87 36 c 2
 87 669 l 2
 87 697 102 712 128 712 c 0
 154 712 169 697 169 669 c 2
 169 36 l 2
 169 9 155 -7 128 -7 c 0
EndSplineSet
Validated: 1
EndChar

StartChar: dotlessi
Encoding: 305 305 243
Width: 232
GlyphClass: 2
Flags: W
AnchorPoint: "Anchor-4" 144 0 basechar 0
AnchorPoint: "Anchor-3" 116 0 basechar 0
AnchorPoint: "Anchor-2" 116 484 basechar 0
LayerCount: 2
Fore
SplineSet
116 -5 m 0
 90 -5 76 11 76 39 c 2
 76 448 l 2
 76 476 90 491 116 491 c 0
 142 491 157 476 157 448 c 2
 157 39 l 2
 157 11 143 -5 116 -5 c 0
EndSplineSet
Validated: 1048577
EndChar

StartChar: IJ
Encoding: 306 306 244
Width: 580
GlyphClass: 1
Flags: W
LayerCount: 2
Fore
SplineSet
128 -7 m 0
 102 -7 87 9 87 36 c 2
 87 669 l 2
 87 697 102 712 128 712 c 0
 154 712 169 697 169 669 c 2
 169 36 l 2
 169 9 155 -7 128 -7 c 0
318 -3 m 2
 285 -6 l 2
 259 -7 245 10 245 31 c 0
 245 47 255 62 276 64 c 2
 307 66 l 2
 375 72 412 115 412 188 c 2
 412 670 l 2
 412 697 427 712 453 712 c 0
 479 712 494 697 494 670 c 2
 494 187 l 2
 494 71 433 5 318 -3 c 2
EndSplineSet
Validated: 33
EndChar

StartChar: Jcircumflex
Encoding: 308 308 245
Width: 324
GlyphClass: 1
Flags: W
LayerCount: 2
Fore
SplineSet
196 884 m 1
 100 768 l 2
 76 742 37 767 57 795 c 2
 145 918 l 2
 158 938 176 946 196 946 c 0
 216 946 234 938 248 918 c 2
 335 795 l 2
 356 767 316 742 293 768 c 2
 196 884 l 1
61 -3 m 2
 28 -6 l 2
 2 -7 -12 10 -12 31 c 0
 -12 47 -2 62 19 64 c 2
 50 66 l 2
 118 72 155 115 155 188 c 2
 155 670 l 2
 155 697 170 712 196 712 c 0
 222 712 237 697 237 670 c 2
 237 187 l 2
 237 71 176 5 61 -3 c 2
EndSplineSet
Validated: 33
EndChar

StartChar: jcircumflex
Encoding: 309 309 246
Width: 236
GlyphClass: 1
Flags: W
LayerCount: 2
Fore
SplineSet
169 734 m 2
 251 582 l 2
 268 551 225 529 208 556 c 2
 119 699 l 1
 30 556 l 2
 14 529 -29 551 -13 582 c 2
 71 734 l 2
 82 756 98 766 119 766 c 0
 140 766 157 756 169 734 c 2
-17 -191 m 0
 -67 -193 -69 -131 -29 -128 c 0
 45 -124 79 -91 79 -15 c 2
 79 452 l 2
 79 479 94 493 120 493 c 0
 145 493 160 479 160 452 c 2
 160 -9 l 2
 160 -132 97 -186 -17 -191 c 0
EndSplineSet
Validated: 33
EndChar

StartChar: Kcommaaccent
Encoding: 310 310 247
Width: 625
GlyphClass: 1
Flags: W
LayerCount: 2
Fore
SplineSet
128 -7 m 0
 102 -7 87 9 87 36 c 2
 87 670 l 2
 87 697 102 712 128 712 c 0
 154 712 169 697 169 670 c 2
 169 385 l 1
 171 385 l 1
 497 689 l 2
 513 705 528 712 547 712 c 0
 583 712 591 679 567 656 c 2
 250 362 l 1
 583 55 l 2
 613 27 598 -7 562 -7 c 0
 541 -7 530 2 513 19 c 2
 171 332 l 1
 169 332 l 1
 169 36 l 2
 169 9 155 -7 128 -7 c 0
330 -250 m 0
 307 -278 271 -255 294 -222 c 0
 305 -206 312 -188 315 -171 c 1
 283 -169 264 -151 264 -123 c 0
 264 -94 284 -75 315 -75 c 0
 348 -75 367 -95 367 -133 c 0
 367 -171 355 -219 330 -250 c 0
EndSplineSet
Validated: 33
EndChar

StartChar: kcommaaccent
Encoding: 311 311 248
Width: 500
GlyphClass: 1
Flags: W
LayerCount: 2
Fore
SplineSet
116 -7 m 0
 90 -7 76 8 76 35 c 2
 76 671 l 2
 76 697 90 712 116 712 c 0
 142 712 157 697 157 671 c 2
 157 270 l 1
 159 270 l 1
 364 466 l 2
 382 483 393 493 417 493 c 0
 449 493 463 463 438 437 c 2
 243 252 l 1
 457 51 l 2
 484 24 466 -7 437 -7 c 0
 413 -7 401 3 381 23 c 2
 159 228 l 1
 157 228 l 1
 157 35 l 2
 157 8 143 -7 116 -7 c 0
264 -250 m 0
 241 -278 205 -255 228 -222 c 0
 239 -206 246 -188 249 -171 c 1
 217 -169 198 -151 198 -123 c 0
 198 -94 218 -75 249 -75 c 0
 282 -75 301 -95 301 -133 c 0
 301 -171 289 -219 264 -250 c 0
EndSplineSet
Validated: 33
EndChar

StartChar: kgreenlandic
Encoding: 312 312 249
Width: 500
GlyphClass: 2
Flags: W
AnchorPoint: "Anchor-3" 250 0 basechar 0
AnchorPoint: "Anchor-2" 250 484 basechar 0
LayerCount: 2
Fore
SplineSet
116 -7 m 0
 90 -7 76 8 76 35 c 2
 76 452 l 2
 76 479 90 493 116 493 c 0
 142 493 157 479 157 452 c 2
 157 270 l 1
 159 270 l 1
 364 466 l 2
 382 483 393 493 416 493 c 0
 448 493 463 463 438 437 c 2
 243 252 l 1
 457 51 l 2
 484 24 466 -7 437 -7 c 0
 413 -7 401 3 381 23 c 2
 159 228 l 1
 157 228 l 1
 157 35 l 2
 157 8 143 -7 116 -7 c 0
EndSplineSet
Validated: 1048609
EndChar

StartChar: Lacute
Encoding: 313 313 250
Width: 543
GlyphClass: 1
Flags: W
LayerCount: 2
Fore
SplineSet
267 892 m 2
 163 769 l 2
 141 744 102 771 120 799 c 2
 209 928 l 2
 238 970 298 927 267 892 c 2
497 0 m 2
 129 0 l 2
 102 0 87 16 87 43 c 2
 87 667 l 2
 87 695 102 710 128 710 c 0
 154 710 169 695 169 667 c 2
 169 72 l 1
 497 72 l 2
 521 72 535 59 535 36 c 0
 535 13 521 0 497 0 c 2
EndSplineSet
Validated: 33
EndChar

StartChar: lacute
Encoding: 314 314 251
Width: 296
GlyphClass: 1
Flags: W
LayerCount: 2
Fore
SplineSet
255 892 m 2
 151 769 l 2
 129 744 89 771 108 799 c 2
 197 928 l 2
 226 970 286 927 255 892 c 2
224 -9 m 0
 127 -9 76 51 76 161 c 2
 76 671 l 2
 76 697 90 712 116 712 c 0
 142 712 157 697 157 671 c 2
 157 167 l 2
 157 95 186 60 242 60 c 0
 254 60 263 62 272 62 c 0
 286 63 292 57 292 33 c 0
 292 9 283 -2 258 -6 c 0
 247 -8 235 -9 224 -9 c 0
EndSplineSet
Validated: 33
Substitution2: "'ss02' Style Set 2 lookup 36 subtable" lacute.ss02
Substitution2: "'aalt' Access All Alternates lookup 0 subtable" lacute.ss02
EndChar

StartChar: Lcommaaccent
Encoding: 315 315 252
Width: 543
GlyphClass: 1
Flags: W
LayerCount: 2
Fore
SplineSet
497 0 m 2
 129 0 l 2
 102 0 87 16 87 43 c 2
 87 667 l 2
 87 695 102 710 128 710 c 0
 154 710 169 695 169 667 c 2
 169 72 l 1
 497 72 l 2
 521 72 535 59 535 36 c 0
 535 13 521 0 497 0 c 2
321 -250 m 0
 298 -278 262 -255 285 -222 c 0
 296 -206 303 -188 306 -171 c 1
 274 -169 255 -151 255 -123 c 0
 255 -94 275 -75 306 -75 c 0
 339 -75 358 -95 358 -133 c 0
 358 -171 346 -219 321 -250 c 0
EndSplineSet
Validated: 33
EndChar

StartChar: lcommaaccent
Encoding: 316 316 253
Width: 296
GlyphClass: 1
Flags: W
LayerCount: 2
Fore
SplineSet
224 -9 m 0
 127 -9 76 51 76 161 c 2
 76 671 l 2
 76 697 90 712 116 712 c 0
 142 712 157 697 157 671 c 2
 157 167 l 2
 157 95 186 60 242 60 c 0
 254 60 263 62 272 62 c 0
 286 63 292 57 292 33 c 0
 292 9 283 -2 258 -6 c 0
 247 -8 235 -9 224 -9 c 0
200 -250 m 0
 177 -278 141 -255 164 -222 c 0
 175 -206 182 -188 185 -171 c 1
 153 -169 135 -151 135 -123 c 0
 135 -94 154 -75 185 -75 c 0
 218 -75 237 -95 237 -133 c 0
 237 -171 225 -219 200 -250 c 0
EndSplineSet
Validated: 33
Substitution2: "'ss02' Style Set 2 lookup 36 subtable" lcommaaccent.ss02
Substitution2: "'aalt' Access All Alternates lookup 0 subtable" lcommaaccent.ss02
EndChar

StartChar: Lcaron
Encoding: 317 317 254
Width: 543
GlyphClass: 1
Flags: W
LayerCount: 2
Fore
SplineSet
309 475 m 0
 294 475 284 484 284 502 c 2
 284 676 l 2
 284 699 297 712 320 712 c 0
 343 712 355 699 353 674 c 2
 337 500 l 2
 335 483 326 475 309 475 c 0
497 0 m 2
 129 0 l 2
 102 0 87 16 87 43 c 2
 87 667 l 2
 87 695 102 710 128 710 c 0
 154 710 169 695 169 667 c 2
 169 72 l 1
 497 72 l 2
 521 72 535 59 535 36 c 0
 535 13 521 0 497 0 c 2
EndSplineSet
Validated: 33
EndChar

StartChar: lcaron
Encoding: 318 318 255
Width: 296
GlyphClass: 1
Flags: W
LayerCount: 2
Fore
SplineSet
224 -9 m 0
 127 -9 76 51 76 161 c 2
 76 671 l 2
 76 697 90 712 116 712 c 0
 142 712 157 697 157 671 c 2
 157 167 l 2
 157 95 186 60 242 60 c 0
 254 60 263 62 272 62 c 0
 286 63 292 57 292 33 c 0
 292 9 283 -2 258 -6 c 0
 247 -8 235 -9 224 -9 c 0
223 510 m 0
 210 510 202 518 202 532 c 2
 202 679 l 2
 202 700 214 712 235 712 c 0
 257 712 267 699 264 677 c 2
 245 531 l 2
 243 518 237 510 223 510 c 0
EndSplineSet
Validated: 33
Substitution2: "'ss02' Style Set 2 lookup 36 subtable" lcaron.ss02
Substitution2: "'aalt' Access All Alternates lookup 0 subtable" lcaron.ss02
EndChar

StartChar: Ldot
Encoding: 319 319 256
Width: 543
GlyphClass: 1
Flags: W
LayerCount: 2
Fore
SplineSet
497 0 m 2
 129 0 l 2
 102 0 87 16 87 43 c 2
 87 667 l 2
 87 695 102 710 128 710 c 0
 154 710 169 695 169 667 c 2
 169 72 l 1
 497 72 l 2
 521 72 535 59 535 36 c 0
 535 13 521 0 497 0 c 2
403 335 m 0
 370 335 348 358 348 390 c 0
 348 422 370 444 403 444 c 0
 437 444 458 422 458 390 c 0
 458 358 437 335 403 335 c 0
EndSplineSet
Validated: 1
EndChar

StartChar: ldot
Encoding: 320 320 257
Width: 327
GlyphClass: 1
Flags: W
LayerCount: 2
Fore
SplineSet
224 -9 m 0
 127 -9 76 51 76 161 c 2
 76 671 l 2
 76 697 90 712 116 712 c 0
 142 712 157 697 157 671 c 2
 157 167 l 2
 157 95 186 60 242 60 c 0
 254 60 263 62 272 62 c 0
 286 63 292 57 292 33 c 0
 292 9 283 -2 258 -6 c 0
 247 -8 235 -9 224 -9 c 0
281 298 m 0
 248 298 226 321 226 353 c 0
 226 385 248 407 281 407 c 0
 314 407 336 385 336 353 c 0
 336 321 314 298 281 298 c 0
EndSplineSet
Validated: 33
Substitution2: "'ss02' Style Set 2 lookup 36 subtable" ldot.ss02
Substitution2: "'aalt' Access All Alternates lookup 0 subtable" ldot.ss02
EndChar

StartChar: Lslash
Encoding: 321 321 258
Width: 543
GlyphClass: 1
Flags: W
LayerCount: 2
Fore
SplineSet
497 0 m 2
 129 0 l 2
 102 0 87 16 87 43 c 2
 87 300 l 1
 32 268 l 2
 -10 243 -44 300 0 326 c 2
 87 376 l 1
 87 667 l 2
 87 695 102 710 128 710 c 0
 154 710 169 695 169 667 c 2
 169 423 l 1
 314 506 l 2
 357 531 390 473 346 448 c 2
 169 347 l 1
 169 72 l 1
 497 72 l 2
 521 72 535 59 535 36 c 0
 535 13 521 0 497 0 c 2
EndSplineSet
Validated: 33
EndChar

StartChar: lslash
Encoding: 322 322 259
Width: 296
GlyphClass: 1
Flags: W
LayerCount: 2
Fore
SplineSet
224 -9 m 0
 127 -9 76 51 76 161 c 2
 76 289 l 1
 35 265 l 2
 -8 241 -41 298 2 323 c 2
 76 366 l 1
 76 671 l 2
 76 697 90 712 116 712 c 0
 142 712 157 697 157 671 c 2
 157 413 l 1
 218 449 l 2
 260 473 293 416 250 391 c 2
 157 336 l 1
 157 167 l 2
 157 95 186 60 242 60 c 0
 254 60 263 62 272 62 c 0
 286 63 292 57 292 33 c 0
 292 9 283 -2 258 -6 c 0
 247 -8 235 -9 224 -9 c 0
EndSplineSet
Validated: 33
Substitution2: "'ss02' Style Set 2 lookup 36 subtable" lslash.ss02
Substitution2: "'aalt' Access All Alternates lookup 0 subtable" lslash.ss02
EndChar

StartChar: Nacute
Encoding: 323 323 260
Width: 740
GlyphClass: 1
Flags: W
LayerCount: 2
Fore
SplineSet
509 892 m 2
 405 769 l 2
 383 744 344 771 362 799 c 2
 451 928 l 2
 480 970 540 927 509 892 c 2
126 -7 m 0
 101 -7 87 8 87 34 c 2
 87 670 l 2
 87 697 101 712 123 712 c 0
 143 712 151 705 164 687 c 2
 576 138 l 1
 576 672 l 2
 576 697 590 712 615 712 c 0
 639 712 652 697 652 672 c 2
 652 33 l 2
 652 8 640 -7 619 -7 c 0
 599 -7 589 0 576 18 c 2
 164 568 l 1
 164 34 l 2
 164 8 150 -7 126 -7 c 0
EndSplineSet
Validated: 33
EndChar

StartChar: nacute
Encoding: 324 324 261
Width: 568
GlyphClass: 1
Flags: W
LayerCount: 2
Fore
SplineSet
418 712 m 2
 318 556 l 2
 300 529 256 551 271 582 c 2
 355 745 l 2
 378 791 445 752 418 712 c 2
116 -7 m 0
 90 -7 76 8 76 35 c 2
 76 452 l 2
 76 479 90 493 115 493 c 0
 141 493 155 479 155 452 c 2
 155 403 l 1
 187 464 249 495 322 495 c 0
 438 495 495 433 495 303 c 2
 495 35 l 2
 495 8 480 -7 455 -7 c 0
 429 -7 414 8 414 35 c 2
 414 298 l 2
 414 388 380 429 303 429 c 0
 214 429 157 368 157 277 c 2
 157 35 l 2
 157 8 143 -7 116 -7 c 0
EndSplineSet
Validated: 33
EndChar

StartChar: Ncommaaccent
Encoding: 325 325 262
Width: 740
GlyphClass: 1
Flags: W
LayerCount: 2
Fore
SplineSet
126 -7 m 0
 101 -7 87 8 87 34 c 2
 87 670 l 2
 87 697 101 712 123 712 c 0
 143 712 151 705 164 687 c 2
 576 138 l 1
 576 672 l 2
 576 697 590 712 615 712 c 0
 639 712 652 697 652 672 c 2
 652 33 l 2
 652 8 640 -7 619 -7 c 0
 599 -7 589 0 576 18 c 2
 164 568 l 1
 164 34 l 2
 164 8 150 -7 126 -7 c 0
384 -250 m 0
 361 -278 325 -255 348 -222 c 0
 359 -206 366 -188 369 -171 c 1
 337 -169 318 -151 318 -123 c 0
 318 -94 338 -75 369 -75 c 0
 402 -75 421 -95 421 -133 c 0
 421 -171 409 -219 384 -250 c 0
EndSplineSet
Validated: 33
EndChar

StartChar: ncommaaccent
Encoding: 326 326 263
Width: 568
GlyphClass: 1
Flags: W
LayerCount: 2
Fore
SplineSet
116 -7 m 0
 90 -7 76 8 76 35 c 2
 76 452 l 2
 76 479 90 493 115 493 c 0
 141 493 155 479 155 452 c 2
 155 403 l 1
 187 464 249 495 322 495 c 0
 438 495 495 433 495 303 c 2
 495 35 l 2
 495 8 480 -7 455 -7 c 0
 429 -7 414 8 414 35 c 2
 414 298 l 2
 414 388 380 429 303 429 c 0
 214 429 157 368 157 277 c 2
 157 35 l 2
 157 8 143 -7 116 -7 c 0
299 -250 m 0
 276 -278 240 -255 263 -222 c 0
 274 -206 281 -188 284 -171 c 1
 252 -169 233 -151 233 -123 c 0
 233 -94 253 -75 284 -75 c 0
 317 -75 336 -95 336 -133 c 0
 336 -171 324 -219 299 -250 c 0
EndSplineSet
Validated: 33
EndChar

StartChar: Ncaron
Encoding: 327 327 264
Width: 740
GlyphClass: 1
Flags: W
LayerCount: 2
Fore
SplineSet
370 756 m 0
 350 756 332 764 319 783 c 2
 231 907 l 2
 211 935 251 960 274 933 c 2
 370 818 l 1
 467 933 l 2
 490 960 529 935 509 907 c 2
 422 783 l 2
 408 764 390 756 370 756 c 0
126 -7 m 0
 101 -7 87 8 87 34 c 2
 87 670 l 2
 87 697 101 712 123 712 c 0
 143 712 151 705 164 687 c 2
 576 138 l 1
 576 672 l 2
 576 697 590 712 615 712 c 0
 639 712 652 697 652 672 c 2
 652 33 l 2
 652 8 640 -7 619 -7 c 0
 599 -7 589 0 576 18 c 2
 164 568 l 1
 164 34 l 2
 164 8 150 -7 126 -7 c 0
EndSplineSet
Validated: 33
EndChar

StartChar: ncaron
Encoding: 328 328 265
Width: 568
GlyphClass: 1
Flags: W
LayerCount: 2
Fore
SplineSet
285 538 m 0
 264 538 248 549 236 571 c 2
 153 722 l 2
 136 753 179 775 196 748 c 2
 285 605 l 1
 374 748 l 2
 391 775 434 753 417 722 c 2
 334 571 l 2
 322 549 306 538 285 538 c 0
116 -7 m 0
 90 -7 76 8 76 35 c 2
 76 452 l 2
 76 479 90 493 115 493 c 0
 141 493 155 479 155 452 c 2
 155 403 l 1
 187 464 249 495 322 495 c 0
 438 495 495 433 495 303 c 2
 495 35 l 2
 495 8 480 -7 455 -7 c 0
 429 -7 414 8 414 35 c 2
 414 298 l 2
 414 388 380 429 303 429 c 0
 214 429 157 368 157 277 c 2
 157 35 l 2
 157 8 143 -7 116 -7 c 0
EndSplineSet
Validated: 33
EndChar

StartChar: napostrophe
Encoding: 329 329 266
Width: 568
GlyphClass: 1
Flags: W
LayerCount: 2
Fore
SplineSet
49 586 m 0
 26 557 -9 580 13 613 c 0
 24 629 31 647 34 664 c 1
 2 666 -16 684 -16 712 c 0
 -16 741 3 760 34 760 c 0
 67 760 86 741 86 702 c 0
 86 664 74 617 49 586 c 0
116 -7 m 0
 90 -7 76 8 76 35 c 2
 76 452 l 2
 76 479 90 493 115 493 c 0
 141 493 155 479 155 452 c 2
 155 403 l 1
 187 464 249 495 322 495 c 0
 438 495 495 433 495 303 c 2
 495 35 l 2
 495 8 480 -7 455 -7 c 0
 429 -7 414 8 414 35 c 2
 414 298 l 2
 414 388 380 429 303 429 c 0
 214 429 157 368 157 277 c 2
 157 35 l 2
 157 8 143 -7 116 -7 c 0
EndSplineSet
Validated: 33
EndChar

StartChar: Eng
Encoding: 330 330 267
Width: 740
GlyphClass: 2
Flags: W
AnchorPoint: "Anchor-3" 370 0 basechar 0
AnchorPoint: "Anchor-2" 370 705 basechar 0
LayerCount: 2
Fore
SplineSet
475 -191 m 0
 424 -193 423 -131 464 -128 c 0
 537 -123 576 -93 576 -15 c 2
 576 19 l 1
 164 568 l 1
 164 34 l 2
 164 8 150 -7 126 -7 c 0
 101 -7 87 8 87 34 c 2
 87 670 l 2
 87 697 101 712 123 712 c 0
 143 712 151 705 164 687 c 2
 576 138 l 1
 576 672 l 2
 576 697 590 712 615 712 c 0
 639 712 652 697 652 672 c 2
 652 -7 l 2
 652 -134 588 -186 475 -191 c 0
EndSplineSet
Validated: 1048609
EndChar

StartChar: eng
Encoding: 331 331 268
Width: 568
GlyphClass: 1
Flags: W
LayerCount: 2
Fore
SplineSet
314 -192 m 0
 264 -194 263 -132 304 -128 c 0
 379 -122 414 -93 414 -15 c 2
 414 298 l 2
 414 388 380 429 303 429 c 0
 214 429 157 368 157 277 c 2
 157 35 l 2
 157 8 143 -7 116 -7 c 0
 90 -7 76 8 76 35 c 2
 76 452 l 2
 76 479 90 493 115 493 c 0
 141 493 155 479 155 452 c 2
 155 403 l 1
 187 464 249 495 322 495 c 0
 438 495 495 433 495 303 c 2
 495 -9 l 2
 495 -131 433 -186 314 -192 c 0
EndSplineSet
Validated: 33
EndChar

StartChar: Omacron
Encoding: 332 332 269
Width: 767
GlyphClass: 1
Flags: W
LayerCount: 2
Fore
SplineSet
519 814 m 2
 247 814 l 2
 228 814 218 825 218 842 c 0
 218 860 228 869 247 869 c 2
 519 869 l 2
 538 869 549 860 549 842 c 0
 549 825 538 814 519 814 c 2
383 -9 m 0
 186 -9 61 131 61 353 c 0
 61 575 185 714 383 714 c 0
 582 714 707 575 707 354 c 0
 707 131 581 -9 383 -9 c 0
383 64 m 0
 533 64 620 171 620 353 c 0
 620 536 534 641 383 641 c 0
 234 641 148 535 148 353 c 0
 148 171 234 64 383 64 c 0
EndSplineSet
Validated: 1
EndChar

StartChar: omacron
Encoding: 333 333 270
Width: 556
GlyphClass: 1
Flags: W
LayerCount: 2
Fore
SplineSet
399 625 m 2
 157 625 l 2
 138 625 128 635 128 652 c 0
 128 670 138 680 157 680 c 2
 399 680 l 2
 418 680 429 670 429 652 c 0
 429 635 418 625 399 625 c 2
278 -9 m 0
 137 -9 46 89 46 243 c 0
 46 397 137 495 278 495 c 0
 419 495 510 397 510 243 c 0
 510 89 419 -9 278 -9 c 0
278 56 m 0
 369 56 428 123 428 243 c 0
 428 364 369 430 278 430 c 0
 186 430 128 364 128 243 c 0
 128 123 186 56 278 56 c 0
EndSplineSet
Validated: 1
EndChar

StartChar: Obreve
Encoding: 334 334 271
Width: 767
GlyphClass: 1
Flags: W
LayerCount: 2
Fore
SplineSet
383 760 m 0
 304 760 237 806 217 904 c 0
 213 923 225 935 239 936 c 0
 256 938 266 927 268 914 c 0
 282 841 332 814 383 814 c 0
 434 814 484 841 498 914 c 0
 500 927 510 938 527 936 c 0
 541 935 553 923 549 904 c 0
 528 806 462 760 383 760 c 0
383 -9 m 0
 186 -9 61 131 61 353 c 0
 61 575 185 714 383 714 c 0
 582 714 707 575 707 354 c 0
 707 131 581 -9 383 -9 c 0
383 64 m 0
 533 64 620 171 620 353 c 0
 620 536 534 641 383 641 c 0
 234 641 148 535 148 353 c 0
 148 171 234 64 383 64 c 0
EndSplineSet
Validated: 33
EndChar

StartChar: obreve
Encoding: 335 335 272
Width: 556
GlyphClass: 1
Flags: W
LayerCount: 2
Fore
SplineSet
278 549 m 0
 192 549 138 613 126 714 c 0
 123 733 134 746 150 746 c 0
 164 747 175 738 177 720 c 0
 187 643 224 604 278 604 c 0
 331 604 370 643 379 720 c 0
 381 738 392 747 406 746 c 0
 421 746 433 733 430 714 c 0
 419 613 363 549 278 549 c 0
278 -9 m 0
 137 -9 46 89 46 243 c 0
 46 397 137 495 278 495 c 0
 419 495 510 397 510 243 c 0
 510 89 419 -9 278 -9 c 0
278 56 m 0
 369 56 428 123 428 243 c 0
 428 364 369 430 278 430 c 0
 186 430 128 364 128 243 c 0
 128 123 186 56 278 56 c 0
EndSplineSet
Validated: 33
EndChar

StartChar: Ohungarumlaut
Encoding: 336 336 273
Width: 767
GlyphClass: 1
Flags: W
LayerCount: 2
Fore
SplineSet
561 895 m 2
 472 768 l 2
 454 744 421 764 436 790 c 2
 506 925 l 2
 529 968 591 935 561 895 c 2
432 895 m 2
 347 769 l 2
 329 744 295 763 308 789 c 2
 376 925 l 2
 397 968 461 935 432 895 c 2
383 -9 m 0
 186 -9 61 131 61 353 c 0
 61 575 185 714 383 714 c 0
 582 714 707 575 707 354 c 0
 707 131 581 -9 383 -9 c 0
383 64 m 0
 533 64 620 171 620 353 c 0
 620 536 534 641 383 641 c 0
 234 641 148 535 148 353 c 0
 148 171 234 64 383 64 c 0
EndSplineSet
Validated: 33
EndChar

StartChar: ohungarumlaut
Encoding: 337 337 274
Width: 556
GlyphClass: 1
Flags: W
LayerCount: 2
Fore
SplineSet
434 721 m 2
 367 558 l 2
 356 533 316 543 323 571 c 2
 368 736 l 2
 381 786 453 766 434 721 c 2
306 721 m 2
 239 558 l 2
 228 533 188 543 196 571 c 2
 240 736 l 2
 254 786 325 766 306 721 c 2
278 -9 m 0
 137 -9 46 89 46 243 c 0
 46 397 137 495 278 495 c 0
 419 495 510 397 510 243 c 0
 510 89 419 -9 278 -9 c 0
278 56 m 0
 369 56 428 123 428 243 c 0
 428 364 369 430 278 430 c 0
 186 430 128 364 128 243 c 0
 128 123 186 56 278 56 c 0
EndSplineSet
Validated: 33
EndChar

StartChar: OE
Encoding: 338 338 275
Width: 1046
GlyphClass: 2
Flags: W
AnchorPoint: "Anchor-3" 591 0 basechar 0
AnchorPoint: "Anchor-2" 591 705 basechar 0
LayerCount: 2
Fore
SplineSet
967 0 m 2
 418 0 l 2
 190 0 61 125 61 353 c 0
 61 581 190 705 418 705 c 2
 967 705 l 2
 990 705 1003 693 1003 671 c 0
 1003 649 990 636 967 636 c 2
 631 636 l 1
 631 392 l 1
 946 392 l 2
 969 392 982 380 982 358 c 0
 982 336 969 323 946 323 c 2
 631 323 l 1
 631 69 l 1
 967 69 l 2
 990 69 1003 56 1003 35 c 0
 1003 12 990 0 967 0 c 2
424 70 m 2
 551 70 l 1
 551 635 l 1
 424 635 l 2
 239 635 148 541 148 353 c 0
 148 165 239 70 424 70 c 2
EndSplineSet
Validated: 1048577
EndChar

StartChar: oe
Encoding: 339 339 276
Width: 910
GlyphClass: 2
Flags: W
AnchorPoint: "Anchor-3" 469 0 basechar 0
AnchorPoint: "Anchor-2" 468 484 basechar 0
LayerCount: 2
Fore
SplineSet
276 -9 m 0
 136 -9 46 89 46 243 c 0
 46 397 136 495 276 495 c 0
 365 495 433 452 468 377 c 1
 503 450 574 495 662 495 c 0
 790 495 868 405 868 257 c 0
 868 236 857 226 834 226 c 2
 509 226 l 1
 515 116 573 56 675 56 c 0
 717 56 764 66 806 95 c 0
 852 124 882 69 840 41 c 0
 795 9 731 -9 676 -9 c 0
 577 -9 502 32 467 109 c 1
 431 35 364 -9 276 -9 c 0
661 435 m 0
 571 435 519 372 510 279 c 1
 799 279 l 1
 795 377 747 435 661 435 c 0
278 56 m 0
 369 56 428 123 428 243 c 0
 428 364 369 430 278 430 c 0
 186 430 128 364 128 243 c 0
 128 123 186 56 278 56 c 0
EndSplineSet
Validated: 1048609
EndChar

StartChar: Racute
Encoding: 340 340 277
Width: 669
GlyphClass: 1
Flags: W
LayerCount: 2
Fore
SplineSet
480 892 m 2
 376 769 l 2
 353 744 314 771 333 799 c 2
 422 928 l 2
 451 970 510 927 480 892 c 2
128 -7 m 0
 102 -7 87 9 87 36 c 2
 87 663 l 2
 87 690 102 705 129 705 c 2
 366 705 l 2
 517 705 601 631 601 501 c 0
 601 397 542 328 438 308 c 1
 469 297 494 272 517 230 c 2
 613 51 l 2
 628 22 618 -7 585 -7 c 0
 562 -7 548 3 538 24 c 2
 429 226 l 2
 398 283 362 298 297 298 c 2
 169 298 l 1
 169 36 l 2
 169 9 155 -7 128 -7 c 0
169 637 m 1
 169 363 l 1
 354 363 l 2
 464 363 520 410 520 501 c 0
 520 590 464 637 354 637 c 2
 169 637 l 1
EndSplineSet
Validated: 33
EndChar

StartChar: racute
Encoding: 341 341 278
Width: 358
GlyphClass: 1
Flags: W
LayerCount: 2
Fore
SplineSet
348 712 m 2
 247 556 l 2
 230 529 185 551 201 582 c 2
 285 745 l 2
 308 791 375 752 348 712 c 2
117 -7 m 0
 90 -7 76 8 76 35 c 2
 76 452 l 2
 76 479 90 493 115 493 c 0
 141 493 155 479 155 452 c 2
 155 399 l 1
 182 460 240 493 317 496 c 0
 337 498 350 488 351 464 c 0
 353 441 341 427 315 425 c 2
 299 423 l 2
 208 415 158 363 158 277 c 2
 158 35 l 2
 158 8 143 -7 117 -7 c 0
EndSplineSet
Validated: 33
EndChar

StartChar: Rcommaaccent
Encoding: 342 342 279
Width: 669
GlyphClass: 1
Flags: W
LayerCount: 2
Fore
SplineSet
128 -7 m 0
 102 -7 87 9 87 36 c 2
 87 663 l 2
 87 690 102 705 129 705 c 2
 366 705 l 2
 517 705 601 631 601 501 c 0
 601 397 542 328 438 308 c 1
 469 297 494 272 517 230 c 2
 613 51 l 2
 628 22 618 -7 585 -7 c 0
 562 -7 548 3 538 24 c 2
 429 226 l 2
 398 283 362 298 297 298 c 2
 169 298 l 1
 169 36 l 2
 169 9 155 -7 128 -7 c 0
169 637 m 1
 169 363 l 1
 354 363 l 2
 464 363 520 410 520 501 c 0
 520 590 464 637 354 637 c 2
 169 637 l 1
355 -250 m 0
 332 -278 296 -255 319 -222 c 0
 330 -206 337 -188 340 -171 c 1
 308 -169 289 -151 289 -123 c 0
 289 -94 309 -75 340 -75 c 0
 373 -75 392 -95 392 -133 c 0
 392 -171 380 -219 355 -250 c 0
EndSplineSet
Validated: 33
EndChar

StartChar: rcommaaccent
Encoding: 343 343 280
Width: 358
GlyphClass: 1
Flags: W
LayerCount: 2
Fore
SplineSet
117 -7 m 0
 90 -7 76 8 76 35 c 2
 76 452 l 2
 76 479 90 493 115 493 c 0
 141 493 155 479 155 452 c 2
 155 399 l 1
 182 460 240 493 317 496 c 0
 337 498 350 488 351 464 c 0
 353 441 341 427 315 425 c 2
 299 423 l 2
 208 415 158 363 158 277 c 2
 158 35 l 2
 158 8 143 -7 117 -7 c 0
130 -250 m 0
 107 -278 72 -255 94 -222 c 0
 105 -206 112 -188 115 -171 c 1
 83 -169 65 -151 65 -123 c 0
 65 -94 84 -75 115 -75 c 0
 148 -75 167 -95 167 -133 c 0
 167 -171 155 -219 130 -250 c 0
EndSplineSet
Validated: 33
EndChar

StartChar: Rcaron
Encoding: 344 344 281
Width: 669
GlyphClass: 1
Flags: W
LayerCount: 2
Fore
SplineSet
341 756 m 0
 320 756 303 764 289 783 c 2
 201 907 l 2
 181 935 221 960 244 933 c 2
 341 818 l 1
 437 933 l 2
 460 960 500 935 480 907 c 2
 392 783 l 2
 379 764 361 756 341 756 c 0
128 -7 m 0
 102 -7 87 9 87 36 c 2
 87 663 l 2
 87 690 102 705 129 705 c 2
 366 705 l 2
 517 705 601 631 601 501 c 0
 601 397 542 328 438 308 c 1
 469 297 494 272 517 230 c 2
 613 51 l 2
 628 22 618 -7 585 -7 c 0
 562 -7 548 3 538 24 c 2
 429 226 l 2
 398 283 362 298 297 298 c 2
 169 298 l 1
 169 36 l 2
 169 9 155 -7 128 -7 c 0
169 637 m 1
 169 363 l 1
 354 363 l 2
 464 363 520 410 520 501 c 0
 520 590 464 637 354 637 c 2
 169 637 l 1
EndSplineSet
Validated: 33
EndChar

StartChar: rcaron
Encoding: 345 345 282
Width: 358
GlyphClass: 1
Flags: W
LayerCount: 2
Fore
SplineSet
215 538 m 0
 194 538 178 549 166 571 c 2
 83 722 l 2
 66 753 109 775 126 748 c 2
 215 605 l 1
 304 748 l 2
 320 775 363 753 347 722 c 2
 264 571 l 2
 252 549 236 538 215 538 c 0
117 -7 m 0
 90 -7 76 8 76 35 c 2
 76 452 l 2
 76 479 90 493 115 493 c 0
 141 493 155 479 155 452 c 2
 155 399 l 1
 182 460 240 493 317 496 c 0
 337 498 350 488 351 464 c 0
 353 441 341 427 315 425 c 2
 299 423 l 2
 208 415 158 363 158 277 c 2
 158 35 l 2
 158 8 143 -7 117 -7 c 0
EndSplineSet
Validated: 33
EndChar

StartChar: Sacute
Encoding: 346 346 283
Width: 615
GlyphClass: 1
Flags: W
LayerCount: 2
Fore
SplineSet
453 892 m 2
 349 769 l 2
 327 744 287 771 306 799 c 2
 395 928 l 2
 424 970 484 927 453 892 c 2
315 -9 m 0
 219 -9 132 15 70 60 c 0
 28 89 60 154 104 125 c 0
 165 82 230 64 315 64 c 0
 435 64 492 113 492 186 c 0
 492 245 453 277 355 297 c 2
 251 318 l 2
 125 344 64 404 64 505 c 0
 64 630 169 714 321 714 c 0
 405 714 478 691 537 644 c 0
 575 615 544 554 498 584 c 1
 445 625 388 641 320 641 c 0
 214 641 147 588 147 508 c 0
 147 444 184 409 273 391 c 2
 377 369 l 2
 511 341 575 288 575 190 c 0
 575 72 475 -9 315 -9 c 0
EndSplineSet
Validated: 33
EndChar

StartChar: sacute
Encoding: 347 347 284
Width: 481
GlyphClass: 1
Flags: W
LayerCount: 2
Fore
SplineSet
383 712 m 2
 282 556 l 2
 264 529 220 551 236 582 c 2
 320 745 l 2
 343 791 410 752 383 712 c 2
240 -9 m 0
 180 -9 117 5 65 40 c 0
 29 62 54 117 94 96 c 0
 146 64 194 53 242 53 c 0
 318 53 357 83 357 131 c 0
 357 169 332 189 278 201 c 2
 187 221 l 2
 103 239 63 282 63 349 c 0
 63 437 139 495 253 495 c 0
 311 495 365 480 408 447 c 0
 442 424 414 370 375 394 c 0
 335 421 293 433 253 433 c 0
 179 433 139 401 139 353 c 0
 139 315 161 292 213 281 c 2
 304 262 l 2
 390 243 434 204 434 135 c 0
 434 46 357 -9 240 -9 c 0
EndSplineSet
Validated: 33
EndChar

StartChar: Scircumflex
Encoding: 348 348 285
Width: 615
GlyphClass: 1
Flags: W
LayerCount: 2
Fore
SplineSet
314 884 m 1
 218 768 l 2
 194 742 155 767 175 795 c 2
 263 918 l 2
 276 938 293 946 314 946 c 0
 334 946 351 938 366 918 c 2
 453 795 l 2
 474 767 434 742 411 768 c 2
 314 884 l 1
315 -9 m 0
 219 -9 132 15 70 60 c 0
 28 89 60 154 104 125 c 0
 165 82 230 64 315 64 c 0
 435 64 492 113 492 186 c 0
 492 245 453 277 355 297 c 2
 251 318 l 2
 125 344 64 404 64 505 c 0
 64 630 169 714 321 714 c 0
 405 714 478 691 537 644 c 0
 575 615 544 554 498 584 c 1
 445 625 388 641 320 641 c 0
 214 641 147 588 147 508 c 0
 147 444 184 409 273 391 c 2
 377 369 l 2
 511 341 575 288 575 190 c 0
 575 72 475 -9 315 -9 c 0
EndSplineSet
Validated: 33
EndChar

StartChar: scircumflex
Encoding: 349 349 286
Width: 481
GlyphClass: 1
Flags: W
LayerCount: 2
Fore
SplineSet
299 734 m 2
 381 582 l 2
 398 551 355 529 338 556 c 2
 249 699 l 1
 160 556 l 2
 144 529 101 551 117 582 c 2
 200 734 l 2
 212 756 228 766 249 766 c 0
 270 766 287 756 299 734 c 2
240 -9 m 0
 180 -9 117 5 65 40 c 0
 29 62 54 117 94 96 c 0
 146 64 194 53 242 53 c 0
 318 53 357 83 357 131 c 0
 357 169 332 189 278 201 c 2
 187 221 l 2
 103 239 63 282 63 349 c 0
 63 437 139 495 253 495 c 0
 311 495 365 480 408 447 c 0
 442 424 414 370 375 394 c 0
 335 421 293 433 253 433 c 0
 179 433 139 401 139 353 c 0
 139 315 161 292 213 281 c 2
 304 262 l 2
 390 243 434 204 434 135 c 0
 434 46 357 -9 240 -9 c 0
EndSplineSet
Validated: 33
EndChar

StartChar: Scedilla
Encoding: 350 350 287
Width: 615
GlyphClass: 1
Flags: W
LayerCount: 2
Fore
SplineSet
319 -192 m 0
 295 -192 267 -189 247 -180 c 0
 216 -168 229 -123 261 -136 c 0
 277 -143 294 -145 317 -145 c 0
 352 -145 375 -132 375 -108 c 0
 375 -91 363 -80 337 -80 c 0
 326 -80 317 -81 304 -84 c 0
 293 -88 287 -89 280 -84 c 0
 275 -79 274 -72 276 -59 c 2
 284 -8 l 1
 200 -3 125 20 70 60 c 0
 28 89 60 154 104 125 c 0
 165 82 230 64 315 64 c 0
 435 64 492 113 492 186 c 0
 492 245 453 277 355 297 c 2
 251 318 l 2
 125 344 64 404 64 505 c 0
 64 630 169 714 321 714 c 0
 405 714 478 691 537 644 c 0
 575 615 544 554 498 584 c 1
 445 625 388 641 320 641 c 0
 214 641 147 588 147 508 c 0
 147 444 184 409 273 391 c 2
 377 369 l 2
 511 341 575 288 575 190 c 0
 575 77 483 -2 334 -9 c 1
 328 -44 l 1
 335 -43 341 -42 347 -42 c 0
 396 -42 431 -67 431 -110 c 0
 431 -159 386 -192 319 -192 c 0
EndSplineSet
Validated: 33
Substitution2: "'locl' Localized Forms in Latin lookup 11 subtable" Scommaaccent
Substitution2: "'aalt' Access All Alternates lookup 0 subtable" Scommaaccent
EndChar

StartChar: scedilla
Encoding: 351 351 288
Width: 481
GlyphClass: 1
Flags: W
LayerCount: 2
Fore
SplineSet
243 -192 m 0
 218 -192 191 -189 170 -180 c 0
 139 -168 153 -123 185 -136 c 0
 201 -143 218 -145 240 -145 c 0
 276 -145 299 -132 299 -108 c 0
 299 -91 286 -80 260 -80 c 0
 250 -80 240 -81 228 -84 c 0
 216 -88 210 -89 204 -84 c 0
 198 -79 197 -72 199 -59 c 2
 207 -8 l 1
 157 -3 107 11 65 40 c 0
 29 62 54 117 94 96 c 0
 146 64 194 53 242 53 c 0
 318 53 357 83 357 131 c 0
 357 169 332 189 278 201 c 2
 187 221 l 2
 103 239 63 282 63 349 c 0
 63 437 139 495 253 495 c 0
 311 495 365 480 408 447 c 0
 442 424 414 370 375 394 c 0
 335 421 293 433 253 433 c 0
 179 433 139 401 139 353 c 0
 139 315 161 292 213 281 c 2
 304 262 l 2
 390 243 434 204 434 135 c 0
 434 51 365 -3 258 -9 c 1
 252 -44 l 1
 259 -43 265 -42 271 -42 c 0
 320 -42 355 -67 355 -110 c 0
 355 -159 309 -192 243 -192 c 0
EndSplineSet
Validated: 33
Substitution2: "'locl' Localized Forms in Latin lookup 11 subtable" scommaaccent
Substitution2: "'aalt' Access All Alternates lookup 0 subtable" scommaaccent
EndChar

StartChar: Scaron
Encoding: 352 352 289
Width: 615
GlyphClass: 1
Flags: W
LayerCount: 2
Fore
SplineSet
314 756 m 0
 293 756 276 764 263 783 c 2
 175 907 l 2
 155 935 195 960 218 933 c 2
 314 818 l 1
 411 933 l 2
 434 960 473 935 453 907 c 2
 366 783 l 2
 352 764 334 756 314 756 c 0
315 -9 m 0
 219 -9 132 15 70 60 c 0
 28 89 60 154 104 125 c 0
 165 82 230 64 315 64 c 0
 435 64 492 113 492 186 c 0
 492 245 453 277 355 297 c 2
 251 318 l 2
 125 344 64 404 64 505 c 0
 64 630 169 714 321 714 c 0
 405 714 478 691 537 644 c 0
 575 615 544 554 498 584 c 1
 445 625 388 641 320 641 c 0
 214 641 147 588 147 508 c 0
 147 444 184 409 273 391 c 2
 377 369 l 2
 511 341 575 288 575 190 c 0
 575 72 475 -9 315 -9 c 0
EndSplineSet
Validated: 33
EndChar

StartChar: scaron
Encoding: 353 353 290
Width: 481
GlyphClass: 1
Flags: W
LayerCount: 2
Fore
SplineSet
249 538 m 0
 228 538 212 549 200 571 c 2
 117 722 l 2
 101 753 144 775 160 748 c 2
 249 605 l 1
 338 748 l 2
 355 775 398 753 381 722 c 2
 299 571 l 2
 287 549 270 538 249 538 c 0
240 -9 m 0
 180 -9 117 5 65 40 c 0
 29 62 54 117 94 96 c 0
 146 64 194 53 242 53 c 0
 318 53 357 83 357 131 c 0
 357 169 332 189 278 201 c 2
 187 221 l 2
 103 239 63 282 63 349 c 0
 63 437 139 495 253 495 c 0
 311 495 365 480 408 447 c 0
 442 424 414 370 375 394 c 0
 335 421 293 433 253 433 c 0
 179 433 139 401 139 353 c 0
 139 315 161 292 213 281 c 2
 304 262 l 2
 390 243 434 204 434 135 c 0
 434 46 357 -9 240 -9 c 0
EndSplineSet
Validated: 33
EndChar

StartChar: Tcedilla
Encoding: 354 354 291
Width: 602
GlyphClass: 1
Flags: W
LayerCount: 2
Fore
SplineSet
305 -192 m 0
 280 -192 253 -189 232 -180 c 0
 201 -168 215 -123 247 -136 c 0
 263 -143 280 -145 302 -145 c 0
 338 -145 360 -132 360 -108 c 0
 360 -91 348 -80 322 -80 c 0
 312 -80 302 -81 290 -84 c 0
 278 -88 272 -89 265 -84 c 0
 260 -79 259 -72 261 -59 c 2
 271 5 l 1
 264 12 260 23 260 36 c 2
 260 634 l 1
 35 634 l 2
 11 634 -3 648 -3 670 c 0
 -3 692 11 705 35 705 c 2
 568 705 l 2
 592 705 606 692 606 670 c 0
 606 647 592 634 568 634 c 2
 343 634 l 1
 343 36 l 2
 343 16 336 3 321 -3 c 1
 314 -44 l 1
 321 -43 327 -42 333 -42 c 0
 381 -42 417 -67 417 -110 c 0
 417 -159 371 -192 305 -192 c 0
EndSplineSet
Validated: 33
Substitution2: "'locl' Localized Forms in Latin lookup 11 subtable" Tcommaaccent
Substitution2: "'aalt' Access All Alternates lookup 0 subtable" Tcommaaccent
EndChar

StartChar: tcedilla
Encoding: 355 355 292
Width: 350
GlyphClass: 1
Flags: W
LayerCount: 2
Fore
SplineSet
271 -9 m 0
 258 -9 246 -8 234 -7 c 1
 228 -44 l 1
 235 -43 241 -42 247 -42 c 0
 295 -42 331 -67 331 -110 c 0
 331 -159 285 -192 219 -192 c 0
 194 -192 167 -189 146 -180 c 0
 115 -168 129 -123 161 -136 c 0
 177 -143 194 -145 216 -145 c 0
 252 -145 274 -132 274 -108 c 0
 274 -91 262 -80 236 -80 c 0
 226 -80 216 -81 204 -84 c 0
 192 -88 186 -89 180 -84 c 0
 174 -79 173 -72 175 -59 c 2
 185 7 l 1
 128 32 99 87 99 168 c 2
 99 423 l 1
 32 423 l 2
 9 423 -3 435 -3 455 c 0
 -3 475 9 486 32 486 c 2
 99 486 l 1
 99 601 l 2
 99 627 114 642 140 642 c 0
 166 642 180 627 180 601 c 2
 180 486 l 1
 306 486 l 2
 328 486 341 475 341 455 c 0
 341 435 328 423 306 423 c 2
 180 423 l 1
 180 176 l 2
 180 100 209 60 282 60 c 0
 307 60 324 68 337 68 c 0
 349 69 358 61 358 38 c 0
 358 22 353 7 338 2 c 0
 322 -3 292 -9 271 -9 c 0
EndSplineSet
Validated: 33
Substitution2: "'locl' Localized Forms in Latin lookup 11 subtable" tcommaaccent
Substitution2: "'aalt' Access All Alternates lookup 0 subtable" tcommaaccent
EndChar

StartChar: Tcaron
Encoding: 356 356 293
Width: 602
GlyphClass: 1
Flags: W
LayerCount: 2
Fore
SplineSet
301 756 m 0
 281 756 264 764 250 783 c 2
 162 907 l 2
 142 935 182 960 205 933 c 2
 301 818 l 1
 398 933 l 2
 421 960 461 935 441 907 c 2
 353 783 l 2
 339 764 322 756 301 756 c 0
301 -7 m 0
 275 -7 260 9 260 36 c 2
 260 634 l 1
 35 634 l 2
 11 634 -3 648 -3 670 c 0
 -3 692 11 705 35 705 c 2
 568 705 l 2
 592 705 606 692 606 670 c 0
 606 647 592 634 568 634 c 2
 343 634 l 1
 343 36 l 2
 343 9 329 -7 301 -7 c 0
EndSplineSet
Validated: 33
EndChar

StartChar: tcaron
Encoding: 357 357 294
Width: 350
GlyphClass: 1
Flags: W
LayerCount: 2
Fore
SplineSet
270 526 m 0
 257 526 248 533 248 548 c 2
 248 679 l 2
 248 700 260 712 281 712 c 0
 302 712 313 699 310 677 c 2
 292 546 l 2
 290 533 283 526 270 526 c 0
271 -9 m 0
 156 -9 99 54 99 168 c 2
 99 423 l 1
 32 423 l 2
 9 423 -3 435 -3 455 c 0
 -3 475 9 486 32 486 c 2
 99 486 l 1
 99 601 l 2
 99 627 114 642 140 642 c 0
 166 642 180 627 180 601 c 2
 180 486 l 1
 306 486 l 2
 328 486 341 475 341 455 c 0
 341 435 328 423 306 423 c 2
 180 423 l 1
 180 176 l 2
 180 100 209 60 282 60 c 0
 307 60 324 68 337 68 c 0
 349 69 358 61 358 38 c 0
 358 22 353 7 338 2 c 0
 322 -3 292 -9 271 -9 c 0
EndSplineSet
Validated: 33
EndChar

StartChar: Tbar
Encoding: 358 358 295
Width: 602
GlyphClass: 1
Flags: W
LayerCount: 2
Fore
SplineSet
301 -7 m 0
 275 -7 260 9 260 36 c 2
 260 326 l 1
 144 326 l 2
 122 326 110 338 110 358 c 0
 110 378 122 390 144 390 c 2
 260 390 l 1
 260 634 l 1
 35 634 l 2
 11 634 -3 648 -3 670 c 0
 -3 692 11 705 35 705 c 2
 568 705 l 2
 592 705 606 692 606 670 c 0
 606 647 592 634 568 634 c 2
 343 634 l 1
 343 390 l 1
 458 390 l 2
 480 390 492 379 492 358 c 0
 492 338 480 326 458 326 c 2
 343 326 l 1
 343 36 l 2
 343 9 329 -7 301 -7 c 0
EndSplineSet
Validated: 1
EndChar

StartChar: tbar
Encoding: 359 359 296
Width: 350
GlyphClass: 1
Flags: W
LayerCount: 2
Fore
SplineSet
271 -9 m 0
 156 -9 99 54 99 168 c 2
 99 239 l 1
 50 239 l 2
 31 239 20 249 20 266 c 0
 20 283 31 294 50 294 c 2
 99 294 l 1
 99 423 l 1
 32 423 l 2
 9 423 -3 435 -3 455 c 0
 -3 475 9 486 32 486 c 2
 99 486 l 1
 99 601 l 2
 99 627 114 642 140 642 c 0
 166 642 180 627 180 601 c 2
 180 486 l 1
 306 486 l 2
 328 486 341 475 341 455 c 0
 341 435 328 423 306 423 c 2
 180 423 l 1
 180 294 l 1
 279 294 l 2
 298 294 309 283 309 266 c 0
 309 249 298 239 279 239 c 2
 180 239 l 1
 180 176 l 2
 180 100 209 60 282 60 c 0
 307 60 324 68 337 68 c 0
 349 69 358 61 358 38 c 0
 358 22 353 7 338 2 c 0
 322 -3 292 -9 271 -9 c 0
EndSplineSet
Validated: 33
EndChar

StartChar: Utilde
Encoding: 360 360 297
Width: 728
GlyphClass: 1
Flags: W
LayerCount: 2
Fore
SplineSet
181 780 m 0
 166 780 156 790 159 808 c 0
 172 878 216 919 276 919 c 0
 348 919 404 843 457 843 c 0
 492 843 515 867 523 905 c 0
 526 919 536 926 548 925 c 0
 563 925 574 914 570 897 c 0
 557 826 514 786 455 786 c 0
 382 786 326 862 273 862 c 0
 238 862 214 837 206 800 c 0
 203 786 194 779 181 780 c 0
365 -9 m 0
 180 -9 82 91 82 279 c 2
 82 670 l 2
 82 697 97 712 123 712 c 0
 149 712 164 697 164 670 c 2
 164 283 l 2
 164 136 233 64 365 64 c 0
 496 64 564 136 564 283 c 2
 564 670 l 2
 564 697 579 712 606 712 c 0
 631 712 646 697 646 670 c 2
 646 279 l 2
 646 91 549 -9 365 -9 c 0
EndSplineSet
Validated: 33
EndChar

StartChar: utilde
Encoding: 361 361 298
Width: 561
GlyphClass: 1
Flags: W
LayerCount: 2
Fore
SplineSet
124 588 m 0
 110 588 100 598 103 616 c 0
 114 678 147 727 208 727 c 0
 272 727 304 651 353 651 c 0
 383 651 404 676 412 715 c 0
 414 727 423 734 437 733 c 0
 451 733 461 724 458 705 c 0
 447 643 414 594 353 594 c 0
 289 594 257 670 209 670 c 0
 178 670 157 646 149 606 c 0
 147 594 138 587 124 588 c 0
248 -9 m 0
 130 -9 73 57 73 184 c 2
 73 452 l 2
 73 479 88 493 113 493 c 0
 139 493 154 479 154 452 c 2
 154 185 l 2
 154 99 188 58 264 58 c 0
 347 58 404 118 404 210 c 2
 404 452 l 2
 404 479 419 493 445 493 c 0
 470 493 485 479 485 452 c 2
 485 35 l 2
 485 8 472 -7 446 -7 c 0
 421 -7 406 8 406 35 c 2
 406 82 l 1
 375 23 318 -9 248 -9 c 0
EndSplineSet
Validated: 33
EndChar

StartChar: Umacron
Encoding: 362 362 299
Width: 728
GlyphClass: 1
Flags: W
LayerCount: 2
Fore
SplineSet
501 814 m 2
 229 814 l 2
 210 814 199 825 199 842 c 0
 199 860 210 869 229 869 c 2
 501 869 l 2
 520 869 531 860 531 842 c 0
 531 825 520 814 501 814 c 2
365 -9 m 0
 180 -9 82 91 82 279 c 2
 82 670 l 2
 82 697 97 712 123 712 c 0
 149 712 164 697 164 670 c 2
 164 283 l 2
 164 136 233 64 365 64 c 0
 496 64 564 136 564 283 c 2
 564 670 l 2
 564 697 579 712 606 712 c 0
 631 712 646 697 646 670 c 2
 646 279 l 2
 646 91 549 -9 365 -9 c 0
EndSplineSet
Validated: 1
EndChar

StartChar: umacron
Encoding: 363 363 300
Width: 561
GlyphClass: 1
Flags: W
LayerCount: 2
Fore
SplineSet
402 626 m 2
 160 626 l 2
 141 626 130 636 130 653 c 0
 130 671 141 681 160 681 c 2
 402 681 l 2
 421 681 431 671 431 653 c 0
 431 636 421 626 402 626 c 2
248 -9 m 0
 130 -9 73 57 73 184 c 2
 73 452 l 2
 73 479 88 493 113 493 c 0
 139 493 154 479 154 452 c 2
 154 185 l 2
 154 99 188 58 264 58 c 0
 347 58 404 118 404 210 c 2
 404 452 l 2
 404 479 419 493 445 493 c 0
 470 493 485 479 485 452 c 2
 485 35 l 2
 485 8 472 -7 446 -7 c 0
 421 -7 406 8 406 35 c 2
 406 82 l 1
 375 23 318 -9 248 -9 c 0
EndSplineSet
Validated: 1
EndChar

StartChar: Ubreve
Encoding: 364 364 301
Width: 728
GlyphClass: 1
Flags: W
LayerCount: 2
Fore
SplineSet
365 760 m 0
 286 760 219 806 199 904 c 0
 194 923 207 935 220 936 c 0
 237 938 247 927 250 914 c 0
 264 841 313 814 365 814 c 0
 416 814 465 841 479 914 c 0
 482 927 492 938 509 936 c 0
 523 935 535 923 531 904 c 0
 510 806 444 760 365 760 c 0
365 -9 m 0
 180 -9 82 91 82 279 c 2
 82 670 l 2
 82 697 97 712 123 712 c 0
 149 712 164 697 164 670 c 2
 164 283 l 2
 164 136 233 64 365 64 c 0
 496 64 564 136 564 283 c 2
 564 670 l 2
 564 697 579 712 606 712 c 0
 631 712 646 697 646 670 c 2
 646 279 l 2
 646 91 549 -9 365 -9 c 0
EndSplineSet
Validated: 33
EndChar

StartChar: ubreve
Encoding: 365 365 302
Width: 561
GlyphClass: 1
Flags: W
LayerCount: 2
Fore
SplineSet
281 550 m 0
 195 550 141 614 128 715 c 0
 126 734 137 747 152 747 c 0
 167 748 178 739 180 721 c 0
 189 644 227 605 281 605 c 0
 334 605 373 644 381 721 c 0
 384 739 394 748 409 747 c 0
 424 747 435 734 433 715 c 0
 422 614 366 550 281 550 c 0
248 -9 m 0
 130 -9 73 57 73 184 c 2
 73 452 l 2
 73 479 88 493 113 493 c 0
 139 493 154 479 154 452 c 2
 154 185 l 2
 154 99 188 58 264 58 c 0
 347 58 404 118 404 210 c 2
 404 452 l 2
 404 479 419 493 445 493 c 0
 470 493 485 479 485 452 c 2
 485 35 l 2
 485 8 472 -7 446 -7 c 0
 421 -7 406 8 406 35 c 2
 406 82 l 1
 375 23 318 -9 248 -9 c 0
EndSplineSet
Validated: 33
EndChar

StartChar: Uring
Encoding: 366 366 303
Width: 728
GlyphClass: 1
Flags: W
LayerCount: 2
Fore
SplineSet
365 758 m 0
 298 758 246 809 246 874 c 0
 246 939 298 989 365 989 c 0
 431 989 483 939 483 874 c 0
 483 809 431 758 365 758 c 0
365 801 m 0
 407 801 437 833 437 874 c 0
 437 914 407 946 365 946 c 0
 323 946 293 914 293 874 c 0
 293 833 323 801 365 801 c 0
365 -9 m 0
 180 -9 82 91 82 279 c 2
 82 670 l 2
 82 697 97 712 123 712 c 0
 149 712 164 697 164 670 c 2
 164 283 l 2
 164 136 233 64 365 64 c 0
 496 64 564 136 564 283 c 2
 564 670 l 2
 564 697 579 712 606 712 c 0
 631 712 646 697 646 670 c 2
 646 279 l 2
 646 91 549 -9 365 -9 c 0
EndSplineSet
Validated: 1
EndChar

StartChar: uring
Encoding: 367 367 304
Width: 561
GlyphClass: 1
Flags: W
LayerCount: 2
Fore
SplineSet
281 548 m 0
 214 548 162 599 162 664 c 0
 162 728 214 779 281 779 c 0
 347 779 399 728 399 664 c 0
 399 599 347 548 281 548 c 0
281 591 m 0
 323 591 352 622 352 664 c 0
 352 704 323 736 281 736 c 0
 239 736 209 704 209 664 c 0
 209 622 239 591 281 591 c 0
248 -9 m 0
 130 -9 73 57 73 184 c 2
 73 452 l 2
 73 479 88 493 113 493 c 0
 139 493 154 479 154 452 c 2
 154 185 l 2
 154 99 188 58 264 58 c 0
 347 58 404 118 404 210 c 2
 404 452 l 2
 404 479 419 493 445 493 c 0
 470 493 485 479 485 452 c 2
 485 35 l 2
 485 8 472 -7 446 -7 c 0
 421 -7 406 8 406 35 c 2
 406 82 l 1
 375 23 318 -9 248 -9 c 0
EndSplineSet
Validated: 1
EndChar

StartChar: Uhungarumlaut
Encoding: 368 368 305
Width: 728
GlyphClass: 1
Flags: W
LayerCount: 2
Fore
SplineSet
414 895 m 2
 328 769 l 2
 310 744 276 763 290 789 c 2
 357 925 l 2
 379 968 442 935 414 895 c 2
543 895 m 2
 454 768 l 2
 436 744 403 764 417 790 c 2
 488 925 l 2
 511 968 572 935 543 895 c 2
365 -9 m 0
 180 -9 82 91 82 279 c 2
 82 670 l 2
 82 697 97 712 123 712 c 0
 149 712 164 697 164 670 c 2
 164 283 l 2
 164 136 233 64 365 64 c 0
 496 64 564 136 564 283 c 2
 564 670 l 2
 564 697 579 712 606 712 c 0
 631 712 646 697 646 670 c 2
 646 279 l 2
 646 91 549 -9 365 -9 c 0
EndSplineSet
Validated: 33
EndChar

StartChar: uhungarumlaut
Encoding: 369 369 306
Width: 561
GlyphClass: 1
Flags: W
LayerCount: 2
Fore
SplineSet
309 722 m 2
 242 559 l 2
 231 534 191 544 198 572 c 2
 243 737 l 2
 256 787 328 767 309 722 c 2
436 722 m 2
 369 559 l 2
 359 534 319 544 326 572 c 2
 370 737 l 2
 384 787 455 767 436 722 c 2
248 -9 m 0
 130 -9 73 57 73 184 c 2
 73 452 l 2
 73 479 88 493 113 493 c 0
 139 493 154 479 154 452 c 2
 154 185 l 2
 154 99 188 58 264 58 c 0
 347 58 404 118 404 210 c 2
 404 452 l 2
 404 479 419 493 445 493 c 0
 470 493 485 479 485 452 c 2
 485 35 l 2
 485 8 472 -7 446 -7 c 0
 421 -7 406 8 406 35 c 2
 406 82 l 1
 375 23 318 -9 248 -9 c 0
EndSplineSet
Validated: 33
EndChar

StartChar: Uogonek
Encoding: 370 370 307
Width: 728
GlyphClass: 1
Flags: W
LayerCount: 2
Fore
SplineSet
403 -192 m 0
 339 -192 298 -154 298 -95 c 0
 298 -64 311 -33 333 -8 c 1
 169 3 82 102 82 279 c 2
 82 670 l 2
 82 697 97 712 123 712 c 0
 149 712 164 697 164 670 c 2
 164 283 l 2
 164 136 233 64 365 64 c 0
 496 64 564 136 564 283 c 2
 564 670 l 2
 564 697 579 712 606 712 c 0
 631 712 646 697 646 670 c 2
 646 279 l 2
 646 106 564 8 408 -7 c 1
 380 -23 355 -51 355 -86 c 0
 355 -124 381 -142 413 -142 c 0
 426 -142 437 -140 448 -136 c 0
 485 -125 489 -173 462 -183 c 0
 442 -191 422 -192 403 -192 c 0
EndSplineSet
Validated: 33
EndChar

StartChar: uogonek
Encoding: 371 371 308
Width: 561
GlyphClass: 1
Flags: W
LayerCount: 2
Fore
SplineSet
406 36 m 2
 406 82 l 1
 375 23 318 -9 248 -9 c 0
 130 -9 73 57 73 184 c 2
 73 452 l 2
 73 479 88 493 113 493 c 0
 139 493 154 479 154 452 c 2
 154 185 l 2
 154 99 188 58 264 58 c 0
 347 58 404 118 404 210 c 2
 404 452 l 2
 404 479 419 493 445 493 c 0
 470 493 485 479 485 452 c 2
 485 35 l 2
 485 12 476 0 460 -6 c 0
 430 -21 403 -49 403 -86 c 0
 403 -124 428 -142 461 -142 c 0
 473 -142 484 -140 495 -136 c 0
 532 -125 537 -173 509 -183 c 0
 489 -191 469 -192 450 -192 c 0
 386 -192 345 -154 345 -95 c 0
 345 -53 368 -12 409 17 c 1
 407 23 406 29 406 36 c 2
EndSplineSet
Validated: 33
EndChar

StartChar: Wcircumflex
Encoding: 372 372 309
Width: 1101
GlyphClass: 1
Flags: W
LayerCount: 2
Fore
SplineSet
551 884 m 1
 454 768 l 2
 431 742 391 767 412 795 c 2
 499 918 l 2
 513 938 530 946 551 946 c 0
 571 946 588 938 602 918 c 2
 690 795 l 2
 710 767 671 742 647 768 c 2
 551 884 l 1
313 -7 m 0
 289 -7 275 5 266 31 c 2
 45 662 l 2
 36 691 50 712 82 712 c 0
 105 712 117 701 126 677 c 2
 316 121 l 1
 509 674 l 2
 518 700 531 712 553 712 c 0
 574 712 586 700 595 674 c 2
 787 115 l 1
 981 677 l 2
 988 700 1001 712 1024 712 c 0
 1052 712 1067 691 1057 662 c 2
 835 31 l 2
 826 5 813 -7 788 -7 c 0
 764 -7 750 5 741 31 c 2
 551 578 l 1
 359 31 l 2
 350 5 338 -7 313 -7 c 0
EndSplineSet
Validated: 33
EndChar

StartChar: wcircumflex
Encoding: 373 373 310
Width: 841
GlyphClass: 1
Flags: W
LayerCount: 2
Fore
SplineSet
470 734 m 2
 553 582 l 2
 569 551 526 529 510 556 c 2
 421 699 l 1
 332 556 l 2
 315 529 272 551 289 582 c 2
 372 734 l 2
 384 756 400 766 421 766 c 0
 442 766 458 756 470 734 c 2
244 -7 m 0
 221 -7 203 5 193 31 c 2
 44 436 l 2
 31 471 47 493 78 493 c 0
 98 493 109 485 118 460 c 2
 246 94 l 1
 378 460 l 2
 387 483 401 493 423 493 c 0
 444 493 459 482 467 460 c 2
 597 93 l 1
 727 462 l 2
 736 486 749 493 768 493 c 0
 800 493 809 465 797 436 c 2
 648 31 l 2
 638 5 620 -7 597 -7 c 0
 574 -7 556 5 547 31 c 2
 421 378 l 1
 295 31 l 2
 285 5 267 -7 244 -7 c 0
EndSplineSet
Validated: 33
EndChar

StartChar: Ycircumflex
Encoding: 374 374 311
Width: 596
GlyphClass: 1
Flags: W
LayerCount: 2
Fore
SplineSet
298 884 m 1
 202 768 l 2
 178 742 139 767 159 795 c 2
 247 918 l 2
 260 938 277 946 298 946 c 0
 318 946 335 938 350 918 c 2
 437 795 l 2
 458 767 418 742 395 768 c 2
 298 884 l 1
298 -7 m 0
 272 -7 257 9 257 37 c 2
 257 333 l 1
 24 654 l 2
 5 680 19 712 52 712 c 0
 71 712 84 704 97 685 c 2
 300 405 l 1
 502 685 l 2
 516 704 528 712 547 712 c 0
 579 712 593 683 572 653 c 2
 339 331 l 1
 339 37 l 2
 339 9 325 -7 298 -7 c 0
EndSplineSet
Validated: 33
EndChar

StartChar: ycircumflex
Encoding: 375 375 312
Width: 514
GlyphClass: 1
Flags: W
LayerCount: 2
Fore
SplineSet
307 734 m 2
 390 582 l 2
 406 551 363 529 347 556 c 2
 258 699 l 1
 169 556 l 2
 152 529 109 551 126 582 c 2
 209 734 l 2
 221 756 237 766 258 766 c 0
 279 766 295 756 307 734 c 2
184 -187 m 0
 153 -187 141 -160 154 -130 c 2
 215 8 l 1
 31 436 l 2
 18 466 31 493 67 493 c 0
 87 493 98 484 108 461 c 2
 259 92 l 1
 411 461 l 2
 421 485 432 493 454 493 c 0
 485 493 496 466 484 437 c 2
 228 -155 l 2
 217 -179 206 -187 184 -187 c 0
EndSplineSet
Validated: 33
EndChar

StartChar: Ydieresis
Encoding: 376 376 313
Width: 596
GlyphClass: 1
Flags: W
LayerCount: 2
Fore
SplineSet
385 802 m 0
 356 802 338 819 338 849 c 0
 338 879 356 895 385 895 c 0
 415 895 432 879 432 849 c 0
 432 819 415 802 385 802 c 0
211 802 m 0
 182 802 164 819 164 849 c 0
 164 879 182 895 211 895 c 0
 241 895 258 879 258 849 c 0
 258 819 241 802 211 802 c 0
298 -7 m 0
 272 -7 257 9 257 37 c 2
 257 333 l 1
 24 654 l 2
 5 680 19 712 52 712 c 0
 71 712 84 704 97 685 c 2
 300 405 l 1
 502 685 l 2
 516 704 528 712 547 712 c 0
 579 712 593 683 572 653 c 2
 339 331 l 1
 339 37 l 2
 339 9 325 -7 298 -7 c 0
EndSplineSet
Validated: 33
EndChar

StartChar: Zacute
Encoding: 377 377 314
Width: 589
GlyphClass: 1
Flags: W
LayerCount: 2
Fore
SplineSet
445 892 m 2
 341 769 l 2
 319 744 280 771 298 799 c 2
 387 928 l 2
 416 970 476 927 445 892 c 2
535 0 m 2
 86 0 l 2
 44 0 30 39 61 80 c 2
 454 634 l 1
 80 634 l 2
 55 634 41 647 41 670 c 0
 41 692 55 705 80 705 c 2
 514 705 l 2
 557 705 571 667 540 625 c 2
 146 71 l 1
 535 71 l 2
 560 71 574 59 574 36 c 0
 574 13 560 0 535 0 c 2
EndSplineSet
Validated: 33
EndChar

StartChar: zacute
Encoding: 378 378 315
Width: 463
GlyphClass: 1
Flags: W
LayerCount: 2
Fore
SplineSet
372 712 m 2
 271 556 l 2
 254 529 209 551 225 582 c 2
 309 745 l 2
 332 791 399 752 372 712 c 2
408 0 m 2
 85 0 l 2
 50 0 40 37 66 67 c 2
 332 423 l 1
 81 423 l 2
 60 423 48 435 48 455 c 0
 48 475 60 486 81 486 c 2
 388 486 l 2
 429 486 438 450 414 421 c 2
 144 63 l 1
 408 63 l 2
 429 63 441 52 441 32 c 0
 441 12 429 0 408 0 c 2
EndSplineSet
Validated: 33
EndChar

StartChar: Zdotaccent
Encoding: 379 379 316
Width: 589
GlyphClass: 1
Flags: W
LayerCount: 2
Fore
SplineSet
306 803 m 0
 275 803 258 820 258 851 c 0
 258 881 275 898 306 898 c 0
 338 898 355 881 355 851 c 0
 355 820 338 803 306 803 c 0
535 0 m 2
 86 0 l 2
 44 0 30 39 61 80 c 2
 454 634 l 1
 80 634 l 2
 55 634 41 647 41 670 c 0
 41 692 55 705 80 705 c 2
 514 705 l 2
 557 705 571 667 540 625 c 2
 146 71 l 1
 535 71 l 2
 560 71 574 59 574 36 c 0
 574 13 560 0 535 0 c 2
EndSplineSet
Validated: 33
EndChar

StartChar: zdotaccent
Encoding: 380 380 317
Width: 463
GlyphClass: 1
Flags: W
LayerCount: 2
Fore
SplineSet
239 605 m 0
 207 605 190 623 190 653 c 0
 190 684 207 701 239 701 c 0
 270 701 288 684 288 653 c 0
 288 622 271 605 239 605 c 0
408 0 m 2
 85 0 l 2
 50 0 40 37 66 67 c 2
 332 423 l 1
 81 423 l 2
 60 423 48 435 48 455 c 0
 48 475 60 486 81 486 c 2
 388 486 l 2
 429 486 438 450 414 421 c 2
 144 63 l 1
 408 63 l 2
 429 63 441 52 441 32 c 0
 441 12 429 0 408 0 c 2
EndSplineSet
Validated: 33
EndChar

